/* XPM */
static char *bf34d4f864204e94fa569aabeac85931UEisTnX9VLq5WI8U[] = {
/* columns rows colors chars-per-pixel */
"64 64 151 2 ",
"   c #1F0000",
".  c #230000",
"X  c #240000",
"o  c #361200",
"O  c #290D14",
"+  c #290D16",
"@  c #301827",
"#  c #321826",
"$  c #331827",
"%  c #4F2500",
"&  c #592F00",
"*  c #6E2900",
"=  c #603227",
"-  c #6B4100",
";  c #7F4700",
":  c #3B2843",
">  c #3B2844",
",  c #423558",
"<  c #43365B",
"1  c #41375F",
"2  c #413761",
"3  c #453C67",
"4  c #453E6A",
"5  c #453E6B",
"6  c #6E4343",
"7  c #6B4851",
"8  c #46406E",
"9  c #4A4373",
"0  c #4A4474",
"q  c #4D467A",
"w  c #4E477B",
"e  c #684D65",
"r  c #685372",
"t  c #923A00",
"y  c #933A00",
"u  c #844D0B",
"i  c #845500",
"p  c #845600",
"a  c #915F00",
"s  c #8D4015",
"d  c #9A4B1D",
"f  c #A04300",
"g  c #A04400",
"h  c #AD4B00",
"j  c #B95100",
"k  c #BC5200",
"l  c #A46E00",
"z  c #BB7500",
"x  c #BE7600",
"c  c #914B27",
"v  c #CF5B00",
"b  c #D05B00",
"n  c #D06C00",
"m  c #C47B00",
"M  c #DD7500",
"N  c #E66900",
"B  c #FA7500",
"V  c #FF7700",
"C  c #FF7800",
"Z  c #FF7900",
"A  c #835041",
"S  c #875652",
"D  c #9C6955",
"F  c #A4705A",
"G  c #8C6265",
"H  c #906461",
"J  c #CC8100",
"K  c #C9840B",
"L  c #E98800",
"P  c #FF8200",
"I  c #FF8800",
"U  c #EB9900",
"Y  c #FF9100",
"T  c #FF9600",
"R  c #F09E00",
"E  c #FF9800",
"W  c #FE9D00",
"Q  c #FCA600",
"!  c #FBAA00",
"~  c #FFA900",
"^  c #FFAC00",
"/  c #FFB000",
"(  c #FFB400",
")  c #FFBA00",
"_  c #FFBD00",
"`  c #FFB114",
"'  c #FFB016",
"]  c #FFB917",
"[  c #FFB61A",
"{  c #FFB11C",
"}  c #DB9635",
"|  c #FBAF24",
" . c #FFB426",
".. c #F7AF31",
"X. c #FFB73D",
"o. c #FFC600",
"O. c #FFC700",
"+. c #FFC516",
"@. c #FFC616",
"#. c #FFC230",
"$. c #FFC636",
"%. c #FBC43F",
"&. c #FFC53C",
"*. c #BF846C",
"=. c #CC8D45",
"-. c #FFB743",
";. c #FFBB4F",
":. c #C1856C",
">. c #D19679",
",. c #FFBF73",
"<. c #FFC54F",
"1. c #FFC562",
"2. c #FFC564",
"3. c #FFC476",
"4. c #534F87",
"5. c #525089",
"6. c #585C9E",
"7. c #585DA1",
"8. c #5E63AC",
"9. c #5D64AD",
"0. c #5E64AE",
"q. c #5E6AB9",
"w. c #5E6ABB",
"e. c #6168B3",
"r. c #616BB9",
"t. c #636EBF",
"y. c #656FBF",
"u. c #6570C1",
"i. c #6672C5",
"p. c #6471C6",
"a. c #6775C9",
"s. c #6775CB",
"d. c #6978CF",
"f. c #6677D1",
"g. c #6978D0",
"h. c #6979D1",
"j. c #697AD6",
"k. c #697AD7",
"l. c #6C7EDA",
"z. c #6D7FDE",
"x. c #6E83E6",
"c. c #7388ED",
"v. c #7288EE",
"b. c #728BF3",
"n. c #718BF7",
"m. c #728CF7",
"M. c #F0AF8F",
"N. c #FFC187",
"B. c #FFC488",
"V. c #FFC4A1",
"C. c #FFC4A3",
/* pixels */
"m.m.m.m.m.m.m.m.m.m.m.m.m.m.m.m.m.m.m.m.m.m.m.m.m.m.m.m.m.m.m.m.m.m.m.m.m.m.m.m.m.m.m.m.m.m.m.m.m.m.m.m.m.m.m.m.m.m.m.m.m.m.m.m.",
"m.m.m.m.m.m.m.m.m.m.m.m.m.m.m.m.m.m.m.m.m.m.m.m.m.m.m.m.m.m.m.m.m.m.m.m.m.m.m.m.m.m.m.m.m.m.m.m.m.m.m.m.m.m.m.m.m.m.m.m.m.m.m.m.",
"m.m.m.m.m.m.m.m.m.m.m.m.m.m.m.m.m.m.m.m.m.m.m.m.m.m.m.m.m.m.m.m.m.m.m.m.m.m.m.m.m.m.m.m.m.m.m.m.m.m.m.m.m.m.m.m.m.m.m.m.m.m.m.m.",
"m.m.m.m.m.m.m.m.m.m.m.m.m.m.m.m.m.m.m.m.m.m.m.m.m.m.m.m.m.m.m.m.m.m.m.m.m.m.m.m.m.m.m.m.m.m.m.m.m.m.m.m.m.m.m.m.m.m.m.m.m.m.m.m.",
"m.m.m.m.m.m.m.m.m.m.m.m.m.m.m.m.m.m.m.m.m.m.m.m.m.m.m.m.m.m.m.m.m.m.m.m.m.m.m.m.m.m.m.m.m.m.m.m.m.m.m.m.m.m.m.m.m.m.m.m.m.m.m.m.",
"m.m.m.m.m.m.m.m.m.m.m.m.m.m.m.m.m.m.m.m.m.m.m.m.m.m.m.m.m.m.m.m.m.m.m.m.m.m.m.m.m.m.m.m.m.m.m.m.m.m.m.m.m.m.m.m.m.m.m.m.m.m.m.m.",
"m.m.m.m.m.m.m.m.m.m.m.m.m.m.m.m.m.m.m.m.m.m.m.m.m.m.m.m.m.m.m.m.m.m.m.m.m.m.m.m.m.m.m.m.m.m.m.m.m.m.m.m.m.m.m.m.m.m.m.m.m.m.m.m.",
"m.m.m.m.m.m.m.m.m.m.m.m.m.m.m.m.m.m.m.m.m.m.m.m.m.m.m.m.m.m.m.m.m.m.m.m.m.m.m.m.m.m.m.m.m.m.m.m.m.m.m.m.m.m.m.m.m.m.m.m.m.m.m.m.",
"m.m.m.m.m.m.m.m.m.m.m.m.m.m.m.m.m.m.m.m.m.m.m.m.m.m.m.m.m.m.m.m.m.m.m.m.m.m.m.m.m.m.m.m.m.m.m.m.m.m.m.m.m.m.m.m.m.m.m.m.m.m.m.m.",
"m.m.m.m.m.m.m.m.m.m.m.m.m.m.m.m.m.m.m.m.m.m.m.m.m.m.m.n.m.m.m.m.m.m.m.m.m.m.m.m.m.m.m.m.m.m.m.m.m.m.m.m.m.m.m.m.m.m.m.m.m.m.m.m.",
"m.m.m.m.m.m.m.m.m.m.m.m.m.m.m.m.m.m.m.m.m.m.m.m.z.h.h.h.h.h.h.h.h.h.h.l.m.m.m.m.m.m.m.m.m.m.m.m.m.m.m.m.m.m.m.m.m.m.m.m.m.m.m.m.",
"m.m.m.m.m.m.m.m.m.m.m.m.m.m.m.m.m.m.m.m.m.m.m.m., .                   : m.m.m.m.m.m.m.m.m.m.m.m.m.m.m.m.m.m.m.m.m.m.m.m.m.m.m.m.",
"m.m.m.m.m.m.m.m.m.m.m.m.m.m.m.m.m.m.m.m.m.m.m.m., .                 . > m.m.m.m.m.m.m.m.m.m.m.m.m.m.m.m.m.m.m.m.m.m.m.m.m.m.m.m.",
"m.m.m.m.m.m.m.m.m.m.m.m.m.m.m.m.m.m.s.q w w w w G D D D D D D D D D D G w q w w w t.m.m.m.m.m.m.m.m.m.m.m.m.m.m.m.m.m.m.m.m.m.m.",
"m.m.m.m.m.m.m.m.m.m.m.m.m.m.m.m.m.m.6.          *.C.V.C.C.C.C.C.V.C.C.>..         5.m.m.m.m.m.m.m.m.m.m.m.m.m.m.m.m.m.m.m.m.m.m.",
"m.m.m.m.m.m.m.m.m.m.m.m.m.m.m.m.m.m.7.          *.V.C.C.C.V.C.C.C.C.C.>.          5.m.m.m.m.m.m.m.m.m.m.m.m.m.m.m.m.m.m.m.m.m.m.",
"m.m.m.m.m.m.m.m.m.m.m.m.m.m.m.a.# # S M.M.M.M.M.| ^ ^ / ^ / ^ / / ^ ^ ! U U L N N s @ @ w.m.m.m.m.m.m.m.m.m.m.m.m.m.m.m.m.m.m.m.",
"m.m.m.m.m.m.m.m.m.m.m.m.m.m.m.u.X X A C.C.C.C.C. .~ ^ ~ ~ ~ ~ ^ ~ ~ ^ ~ ~ ^ E V Z t     9.m.m.m.m.m.m.m.m.m.m.m.m.m.m.m.m.m.m.m.",
"m.m.m.m.m.m.m.m.m.m.m.m.m.m.m.u.. . A C.C.N.3.,.[ / / ` { { { { ` / ~ / ~ ^ E Z V t     9.n.m.m.m.m.m.m.m.m.m.m.m.m.m.m.m.m.m.m.",
"m.m.m.m.m.m.m.m.m.m.m.m.m.m.m.y.    A C.C.-.~ ~ _ O.O.3.C.C.C.C.B.O.O.O.~ ~ E V Z t   . 9.n.m.m.m.m.m.m.m.m.m.m.m.m.m.m.m.m.m.m.",
"m.m.m.m.m.m.m.m.m.m.m.m.m.m.m.t.    A C.C.-.~ ~ _ O.O.3.C.C.C.C.B.O.O.O.~ ~ E Z V t     9.m.m.m.m.m.m.m.m.m.m.m.m.m.m.m.m.m.m.m.",
"m.m.m.m.m.m.m.m.m.m.m.m.b.0 9 r F F =.X.X.] ) ) #.<.<.$.&.&.X.X...p p l ) ( ^ T E n g g 7 0 0 x.m.m.m.m.m.m.m.m.m.m.m.m.m.m.m.m.",
"m.m.m.m.m.m.m.m.m.m.n.n.c.    = C.C.;.~ ~ ( O.O.2.C.C.+.O.O.^ ~ U     & O.O._ ^ ~ Y Z V *     k.m.m.m.m.m.m.m.m.m.m.m.m.m.m.m.m.",
"m.m.m.m.m.m.m.m.n.n.n.n.c.    = C.C.;.~ ^ ) O.O.1.C.C.+.O.O.^ ^ Q     & O.O._ ~ ~ Y V Z *     k.m.m.m.m.m.m.m.m.m.m.m.m.m.m.m.m.",
"m.m.m.m.m.m.m.m.m.m.m.m.c.    = C.C.;.~ ~ ) O.O.2.C.C.+.O.O.~ ~ U .   & O.O.) ~ ~ Y Z V *     k.m.m.m.m.m.m.m.m.m.m.m.m.m.m.m.m.",
"m.m.m.m.m.m.m.m.m.m.m.m.c.    = C.C.;.^ ~ ) O.O.2.C.C.+.O.O.~ ~ U     & O.O._ ~ ^ Y V Z *     k.m.m.m.m.m.m.m.m.m.m.m.m.m.m.m.m.",
"m.m.m.m.m.m.m.m.m.m.m.m.c.    = C.C.;.~ ~ ) O.O.1.C.C.+.O.O.^ ^ Q     & O.O.) ~ ~ Y Z V *     k.m.m.m.m.m.m.m.m.m.m.m.m.m.m.m.m.",
"m.m.m.m.m.m.m.m.m.m.m.m.c.    = C.C.;.~ ~ / o.O.1.C.C.+.O.O.^ ~ U     & O.O._ ~ ~ Y V Z *     k.m.m.m.m.m.m.m.m.m.m.m.m.m.m.m.m.",
"m.m.m.m.m.m.m.m.m.m.m.m.c.    = C.C.;.^ ~ ) O.O.2.C.C.+.O.O.^ ~ U     & O.O.) ~ ~ Y Z V *     k.m.m.m.m.m.m.m.m.m.m.m.m.m.m.m.m.",
"m.m.m.m.m.m.m.m.m.m.m.m.c.    = C.C.;.~ ~ ) O.O.2.C.C.+.O.O.^ ^ Q     & O.O.) ~ ^ Y V Z *     k.m.m.m.m.m.m.m.m.m.m.m.m.m.m.m.m.",
"m.m.m.m.m.m.m.m.m.m.m.m.c.    = C.C.;.~ ~ ) O.O.2.C.C.+.O.O.~ ~ U .   & O.O._ ~ ~ Y Z Z *     k.m.m.m.m.m.m.m.m.m.m.m.m.m.m.m.m.",
"m.m.m.m.m.m.m.m.m.m.m.m.c.    = C.C.;.^ ~ ) O.O.2.C.C.+.O.O.~ ~ U     & O.O._ ~ ~ Y V Z *     k.m.m.m.m.m.m.m.m.m.m.m.m.m.m.m.m.",
"m.m.m.m.m.m.m.m.m.m.n.n.c.    = C.C.;.~ ~ ) O.O.2.C.C.+.O.O.^ ^ R .   & O.O._ ~ ~ Y Z V *     k.n.n.m.m.m.m.m.m.m.m.m.m.m.m.m.m.",
"m.m.m.m.m.m.m.m.m.m.m.n.c.    = C.C.;.~ ~ / O.O.1.C.C.+.O.O.^ ~ U .   & O.O._ ~ ~ Y Z Z *     k.n.n.m.m.m.m.m.m.m.m.m.m.m.m.m.m.",
"m.m.m.m.m.m.m.m.m.m.n.n.c.    = C.C.;.~ ~ ) O.O.2.C.C.+.O.O.^ ~ !     & O.O._ ~ ~ Y Z V *     k.m.m.m.m.m.m.m.m.m.m.m.m.m.m.m.m.",
"m.m.m.m.m.m.m.m.m.m.n.n.c.    = C.C.;.~ ~ ) O.O.2.C.C.+.O.O.^ ^ U     & O.O._ ~ ~ Y V Z *     k.m.m.m.m.m.m.m.m.m.m.m.m.m.m.m.m.",
"m.m.m.m.m.m.m.m.m.m.m.m.b.    = C.C.;.~ ~ ) O.O.2.C.C.+.O.O.^ ~ U     & O.O.) ~ ~ Y Z V *     k.m.m.m.m.m.m.m.m.m.m.m.m.m.m.m.m.",
"m.m.m.m.m.m.m.m.m.m.m.m.c.    = C.C.;.~ ~ ) O.O.2.C.C.] ( ( ~ ~ Q     & O.O.) ~ ^ Y V Z *     k.m.m.m.m.m.m.m.m.m.m.m.m.m.m.m.m.",
"m.m.m.m.m.m.m.m.m.m.m.m.c.    = C.C.;.^ ~ _ O.O.2.C.C.` ~ ^ ~ ^ U     & O.O._ ~ ~ Y Z V *     k.m.m.m.m.m.m.m.m.m.m.m.m.m.m.m.m.",
"m.m.m.m.m.m.m.m.m.m.m.m.b.    = C.C.;.~ ~ / O.O.1.C.C.' ~ ^ ~ ~ U     & O.O._ ~ ~ Y V Z *     k.m.m.m.m.m.m.m.m.m.m.m.m.m.m.m.m.",
"m.m.m.m.m.m.m.m.m.m.m.m.c..   = C.C.;.~ ^ ) O.O.2.C.C.` ~ ~ ^ ~ Q     & O.O.) ~ ~ Y Z Z *     k.m.m.m.m.m.m.m.m.m.m.m.m.m.m.m.m.",
"m.m.m.m.m.m.m.m.m.m.m.m.c.  . = C.C.;.~ ^ ) O.O.2.V.C.` ~ ~ ~ ~ U     & O.O._ ~ ~ Y Z V * .   k.m.m.m.m.m.m.m.m.m.m.m.m.m.m.m.m.",
"m.m.m.m.m.m.m.m.m.m.m.m.b.> 4 e *.*.} ^ ~ ) O.O.%.1.1.K z z z z z * - a _ _ / T E M j j 6 2 2 x.m.m.m.m.m.m.m.m.m.m.m.m.m.m.m.m.",
"m.m.m.m.m.m.m.m.m.m.m.m.m.m.m.p.    ; ~ ~ / O.O.O.O.O.%         o O.O.O.~ ^ E Z Z t . . 8.m.m.m.m.m.m.m.m.m.m.m.m.m.m.m.m.m.m.m.",
"m.m.m.m.m.m.m.m.m.m.m.m.m.m.m.y.    ; ^ ~ ) O.O.O.O.O.%         o O.O.O.~ ~ T Z V t . . 9.n.m.m.m.m.m.m.m.m.m.m.m.m.m.m.m.m.m.m.",
"m.m.m.m.m.m.m.m.m.m.m.m.m.m.m.u.    ; ~ ~ / ( / ( ( / J x x x x m ) / Q I I P Z Z t . . 9.n.m.m.m.m.m.m.m.m.m.m.m.m.m.m.m.m.m.m.",
"m.m.m.m.m.m.m.m.m.m.m.m.m.m.m.y.    ; ~ ^ ~ ~ ~ ~ ~ ~ ^ ~ ~ ~ ^ ~ ^ ~ Q V V Z V V t   . 9.m.m.m.m.m.m.m.m.m.m.m.m.m.m.m.m.m.m.m.",
"m.m.m.m.m.m.m.m.m.m.m.m.m.m.m.p.+ + u Q Q Q Q Q ~ ~ ~ ~ ~ ~ ~ ~ ^ ~ ~ W B B B B B f + + e.m.m.m.m.m.m.m.m.m.m.m.m.m.m.m.m.m.m.m.",
"m.m.m.m.m.m.m.m.m.m.m.m.m.m.m.m.m.m.7.. X X X X k V Z V Z V Z Z Z V Z b X X X . X 4.m.m.m.m.m.m.m.m.m.m.m.m.m.m.m.m.m.m.m.m.m.m.",
"m.m.m.m.m.m.m.m.m.m.m.m.m.m.m.m.m.m.7.          j Z V Z V Z V Z V Z V v         . 5.m.m.m.m.m.m.m.m.m.m.m.m.m.m.m.m.m.m.m.m.m.m.",
"m.m.m.m.m.m.m.m.m.m.m.m.m.m.m.m.m.m.p.4 8 8 4 4 c h h h h h h h h h h d 3 3 3 4 8 r.m.m.m.m.m.m.m.m.m.m.m.m.m.m.m.m.m.m.m.m.m.m.",
"m.m.m.m.m.m.m.m.m.m.m.m.m.m.m.m.m.m.m.m.m.m.m.m.<                     : m.m.m.m.m.m.m.m.m.m.m.m.m.m.m.m.m.m.m.m.m.m.m.m.m.m.m.m.",
"m.m.m.m.m.m.m.m.m.m.m.m.m.m.m.m.m.m.m.m.m.m.m.m.<                     : m.m.m.m.m.m.m.m.m.m.m.m.m.m.m.m.m.m.m.m.m.m.m.m.m.m.m.m.",
"m.m.m.m.m.m.m.m.m.m.m.m.m.m.m.m.m.m.m.m.m.m.m.m.f.w.w.w.w.w.w.w.w.w.w.a.m.m.m.m.m.m.m.m.m.m.m.m.m.m.m.m.m.m.m.m.m.m.m.m.m.m.m.m.",
"m.m.m.m.m.m.m.m.m.m.m.m.m.m.m.m.m.m.m.m.m.m.m.m.m.m.m.m.m.m.m.m.m.m.m.m.m.m.m.m.m.m.m.m.m.m.m.m.m.m.m.m.m.m.m.m.m.m.m.m.m.m.m.m.",
"m.m.m.m.m.m.m.m.m.m.m.m.m.m.m.m.m.m.m.m.m.m.m.m.m.m.m.m.m.m.m.m.m.m.m.m.m.m.m.m.m.m.m.m.m.m.m.m.m.m.m.m.m.m.m.m.m.m.m.m.m.m.m.m.",
"m.m.m.m.m.m.m.m.m.m.m.m.m.m.m.m.m.m.m.m.m.m.m.m.m.m.m.m.m.m.m.m.m.m.m.m.m.m.m.m.m.m.m.m.m.m.m.m.m.m.m.m.m.m.m.m.m.m.m.m.m.m.m.m.",
"m.m.m.m.m.m.m.m.m.m.m.m.m.m.m.m.m.m.m.m.m.m.m.m.m.m.m.m.m.m.m.m.m.m.m.m.m.m.m.m.m.m.m.m.m.m.m.m.m.m.m.m.m.m.m.m.m.m.m.m.m.m.m.m.",
"m.m.m.m.m.m.m.m.m.m.m.m.m.m.m.m.m.m.m.m.m.m.m.m.m.m.m.m.m.m.m.m.m.m.m.m.m.m.m.m.m.m.m.m.m.m.m.m.m.m.m.m.m.m.m.m.m.m.m.m.m.m.m.m.",
"m.m.m.m.m.m.m.m.m.m.m.m.m.m.m.m.m.m.m.m.m.m.m.m.m.m.m.m.m.m.m.m.m.m.m.m.m.m.m.m.m.m.m.m.m.m.m.m.m.m.m.m.m.m.m.m.m.m.m.m.m.m.m.m.",
"m.m.m.m.m.m.m.m.m.m.m.m.m.m.m.m.m.m.m.m.m.m.m.m.m.m.m.m.m.m.m.m.m.m.m.m.m.m.m.m.m.m.m.m.m.m.m.m.m.m.m.m.m.m.m.m.m.m.m.m.m.m.m.m.",
"m.m.m.m.m.m.m.m.m.m.m.m.m.m.m.m.m.m.m.m.m.m.m.m.m.m.m.m.m.m.m.m.m.m.m.m.m.m.m.m.m.m.m.m.m.m.m.m.m.m.m.m.m.m.m.m.m.m.m.m.m.m.m.m.",
"m.m.m.m.m.m.m.m.m.m.m.m.m.m.m.m.m.m.m.m.m.m.m.m.m.m.m.m.m.m.m.m.m.m.m.m.m.m.m.m.m.m.m.m.m.m.m.m.m.m.m.m.m.m.m.m.m.m.m.m.m.m.m.m.",
"m.m.m.m.m.m.m.m.m.m.m.m.m.m.m.m.m.m.m.m.m.m.m.m.m.m.m.m.m.m.m.m.m.m.m.n.n.n.n.m.n.n.n.n.n.n.n.n.n.n.n.n.n.n.n.n.n.n.n.n.n.n.n.n."
};
