/* XPM */
static char *_04a55769c8e4cfddc00d26492b6f624hJvoXPmznxIAuXRe[] = {
/* columns rows colors chars-per-pixel */
"64 64 185 2 ",
"   c #080604",
".  c #1A120B",
"X  c #20170D",
"o  c #2E2112",
"O  c #3F2D1B",
"+  c #192038",
"@  c #3F3739",
"#  c #47180A",
"$  c #5E4328",
"%  c #6E4E2E",
"&  c #7A5733",
"*  c #5E4F7E",
"=  c #6C4D74",
"-  c #6C527B",
";  c #7B7D67",
":  c #E0370F",
">  c #F93A0E",
",  c #ED3D13",
"<  c #EA3D19",
"1  c #F63C12",
"2  c #F23E1A",
"3  c #90550F",
"4  c #8F5718",
"5  c #8F581C",
"6  c #905613",
"7  c #945915",
"8  c #905818",
"9  c #A65116",
"0  c #AB5415",
"q  c #9E621E",
"w  c #835623",
"e  c #8F5223",
"r  c #885926",
"t  c #8B5E34",
"y  c #B5433F",
"u  c #8C623C",
"i  c #A46723",
"p  c #B3732C",
"a  c #BF6E3D",
"s  c #BA7A35",
"d  c #EB421E",
"f  c #F54215",
"g  c #F94013",
"h  c #F5441A",
"j  c #F8481B",
"k  c #CC402E",
"l  c #EC4225",
"z  c #E8462D",
"x  c #F04623",
"c  c #E34835",
"v  c #924858",
"b  c #A84549",
"n  c #8A6347",
"m  c #9B6F41",
"M  c #956E48",
"N  c #886653",
"B  c #AC7B49",
"V  c #B17E4B",
"C  c #885770",
"Z  c #AD5D7A",
"A  c #8F7471",
"S  c #BC627A",
"D  c #D84F49",
"F  c #CD565C",
"G  c #D35352",
"H  c #F96B4A",
"J  c #F97456",
"K  c #CB7C7E",
"L  c #5F9879",
"P  c #629A77",
"I  c #75A669",
"U  c #C5843D",
"Y  c #BAD235",
"T  c #DBE71C",
"R  c #BE8750",
"E  c #8FB655",
"W  c #D39049",
"Q  c #C98E55",
"!  c #DE9D5D",
"~  c #FB884A",
"^  c #E58950",
"/  c #E39D55",
"(  c #FC9A59",
")  c #E0A05F",
"_  c #EBA55C",
"`  c #C39073",
"'  c #FB8D73",
"]  c #E69671",
"[  c #F4AC65",
"{  c #F7B066",
"}  c #F9B167",
"|  c #F6B36C",
" . c #FEB56B",
".. c #FFB86D",
"X. c #E8AA73",
"o. c #F5B374",
"O. c #255A98",
"+. c #3A5397",
"@. c #367D97",
"#. c #1E57AE",
"$. c #045ABF",
"%. c #0A5CBB",
"&. c #155AB3",
"*. c #275BAC",
"=. c #1C6BAB",
"-. c #0960B9",
";. c #1863B6",
":. c #226FA7",
">. c #594E81",
",. c #5C5F86",
"<. c #7E7593",
"1. c #79769D",
"2. c #546BB5",
"3. c #7C79A7",
"4. c #7A79AA",
"5. c #6877B3",
"6. c #797CB5",
"7. c #015AC0",
"8. c #0A5EC3",
"9. c #0D61C5",
"0. c #1265C4",
"q. c #2974CA",
"w. c #266CD5",
"e. c #3673DF",
"r. c #5974D1",
"t. c #4D7EEB",
"y. c #B26587",
"u. c #B26588",
"i. c #AC6A97",
"p. c #8F76B1",
"a. c #9675B8",
"s. c #8C7BCC",
"d. c #9377C1",
"f. c #9178C3",
"g. c #857FD5",
"h. c #48888A",
"j. c #408390",
"k. c #5591D5",
"l. c #7781C3",
"z. c #7481CD",
"x. c #7383D2",
"c. c #7384D8",
"v. c #7DABDF",
"b. c #5281ED",
"n. c #5683F2",
"m. c #6B87ED",
"M. c #7885E7",
"N. c #6E8AF4",
"B. c #6389FB",
"V. c #6B8CFF",
"C. c #738BF5",
"Z. c #798DF1",
"A. c #718EFA",
"S. c #7B94F7",
"D. c #7694FF",
"F. c #7B98FF",
"G. c #B5918F",
"H. c #AF9FBE",
"J. c #BFA4AE",
"K. c #D98D96",
"L. c #D6AA96",
"P. c #E2AE86",
"I. c #C9A7A3",
"U. c #FDBAAA",
"Y. c #FEC8BB",
"T. c #8380DA",
"R. c #9097DB",
"E. c #AC9FC1",
"W. c #8DA9D3",
"Q. c #8694E5",
"!. c #83A8EC",
"~. c #8AB3E2",
"^. c #ACBEFF",
"/. c #B1CCEC",
"(. c #BECBFF",
"). c #FED3C9",
"_. c #C9DBF2",
"`. c #D9DDF9",
"'. c #DBE3FF",
"]. c #FEE9E4",
"[. c #E1E6FE",
"{. c #E2E8FF",
"}. c #EEF3FB",
"|. c #FFF9F7",
" X c #FEFEFF",
/* pixels */
"V.V.V.V.V.V.V.V.V.V.V.V.V.V.V.V.V.V.V.V.V.V.V.V.V.V.V.V.V.V.V.V.V.V.V.V.V.V.V.V.V.V.V.V.V.V.V.V.V.V.V.V.V.V.V.V.V.V.V.V.V.V.V.V.",
"V.V.V.V.V.V.V.V.V.V.V.V.V.V.V.V.V.V.V.V.V.V.V.V.V.V.V.V.V.V.V.V.V.V.V.V.V.V.V.V.V.V.V.V.V.V.V.V.V.V.V.V.V.V.V.V.V.V.V.V.V.V.V.V.",
"V.V.V.V.V.V.V.V.V.V.V.V.V.V.V.V.V.V.V.V.V.V.V.V.V.V.V.V.V.V.V.V.V.V.V.V.V.V.V.V.V.V.V.V.V.V.V.V.V.V.V.V.V.V.V.V.V.V.V.V.V.V.V.V.",
"V.V.V.V.V.V.V.V.V.V.V.V.V.V.V.V.V.V.V.V.V.V.V.V.V.V.V.V.V.V.V.V.V.V.V.V.V.V.V.V.V.V.V.V.V.V.V.V.V.V.V.V.V.V.V.V.V.V.V.V.V.V.V.V.",
"V.V.V.V.V.V.V.V.V.V.V.V.V.V.V.V.V.V.V.V.V.V.V.V.V.V.V.V.V.V.V.V.V.V.V.V.V.V.V.V.V.V.V.V.V.V.V.V.V.V.V.V.V.V.V.V.V.V.V.V.V.V.V.V.",
"V.V.V.V.V.V.V.V.V.V.V.V.V.V.V.V.V.V.V.V.V.V.V.V.V.V.V.V.V.V.V.V.V.V.V.V.V.V.V.V.V.V.V.V.V.V.V.V.V.V.V.V.V.V.V.V.V.V.V.V.V.V.V.V.",
"V.V.V.V.V.V.V.V.V.V.V.V.V.V.V.V.V.V.V.V.V.V.V.V.V.V.V.V.V.V.V.V.V.V.V.V.V.V.V.V.V.V.V.V.V.V.V.V.V.V.V.V.V.V.V.V.V.V.V.V.V.V.V.V.",
"V.V.V.V.V.V.V.V.V.V.V.V.V.V.V.V.V.V.V.V.V.V.V.V.V.V.V.V.V.V.V.V.V.V.V.V.V.V.V.V.V.V.V.V.V.V.V.V.V.V.V.V.V.V.V.V.V.V.V.V.V.V.V.V.",
"V.V.V.V.V.V.V.V.V.V.V.V.V.V.V.V.V.V.V.V.V.V.V.V.V.V.V.V.V.V.V.V.V.V.V.V.V.V.V.V.V.V.V.V.V.V.V.V.V.V.V.V.V.V.V.V.V.V.V.V.V.V.V.V.",
"V.V.V.V.V.V.V.V.V.V.V.V.V.V.V.V.V.V.V.V.V.V.V.V.V.V.V.V.V.V.V.V.V.V.V.V.V.V.V.V.V.V.V.V.V.V.V.V.V.V.V.V.V.V.V.V.V.V.V.V.V.V.V.V.",
"V.V.V.V.V.V.V.V.V.V.V.V.V.V.V.V.V.V.V.V.V.V.V.V.V.V.V.V.V.V.V.V.V.V.V.V.V.V.V.V.V.V.V.V.V.V.V.V.V.V.V.V.V.V.V.V.V.V.V.V.V.V.V.V.",
"V.V.V.V.V.V.V.V.V.V.V.V.V.V.V.V.V.V.V.V.V.V.V.V.V.V.V.V.V.V.V.V.V.V.V.V.V.V.V.V.V.V.V.V.V.V.V.V.V.V.V.V.V.V.V.V.V.V.V.V.V.V.V.V.",
"V.V.V.V.V.V.V.V.V.V.V.V.V.V.V.V.V.V.V.V.V.V.V.V.V.V.V.N.N.N.N.N.B.N.V.V.V.V.V.V.V.V.V.V.V.V.V.V.V.V.V.V.V.V.V.V.V.V.V.V.V.V.V.V.",
"V.V.V.V.V.V.V.V.V.V.V.V.V.V.V.V.V.V.V.V.V.V.V.V.V.V.s.u.y.y.u.u.u.u.u.a.V.V.V.V.V.V.V.V.V.V.V.V.V.V.V.V.V.V.V.V.V.V.V.V.V.V.V.V.",
"V.V.V.V.V.V.V.V.V.V.V.V.V.V.V.V.V.V.V.V.V.V.V.V.V.N.i.f , 1 f > 1 1 1 S N.V.V.N.V.V.V.V.V.V.V.V.V.V.V.V.V.V.V.V.V.V.V.V.V.V.V.V.",
"V.V.V.V.V.V.V.V.V.V.V.V.V.V.V.V.V.V.V.V.V.V.V.V.M.d.S 1 > > > > 1 1 1 F d.d.d.d.s.N.V.V.V.V.V.V.V.V.V.V.V.V.V.V.V.V.V.V.V.V.V.V.",
"V.V.V.V.V.V.V.V.V.V.V.V.V.V.V.V.V.V.V.V.V.V.V.V.p.z h 1 1 1 g g > > > 2 l l l x D T.V.V.V.V.V.V.V.V.V.V.V.V.V.V.V.V.V.V.V.V.V.V.",
"V.V.V.V.V.V.V.V.V.V.V.V.V.V.V.V.V.V.V.V.V.V.V.V.p.d f , , , f j h < : < j x z l G c.B.V.V.V.V.V.V.V.V.V.V.V.V.V.V.V.V.V.V.V.V.V.",
"V.V.V.V.V.V.V.V.V.V.V.V.V.V.V.V.V.V.V.V.V.V.V.V.p.9 0 0 9 0 ^ ( ( a # e ( G.s.s.g.C.V.V.V.V.V.V.V.V.V.V.V.V.V.V.V.V.V.V.V.V.V.V.",
"V.V.V.V.V.V.V.V.V.V.V.V.V.V.V.V.V.V.V.V.V.V.V.B.l.8 3 3 3 q / }  .V . % o.E.V.N.V.A.V.V.V.V.V.V.V.V.V.V.V.V.V.V.V.V.V.V.V.V.V.V.",
"V.V.V.V.V.V.V.V.V.V.V.V.V.V.V.V.V.V.V.V.V.V.M.<.A U s 7 p W [  .o.V . % | L.J.J.H.Z.V.V.V.V.V.V.V.V.V.V.V.V.V.V.V.V.V.V.V.V.V.V.",
"V.V.V.V.V.V.V.V.V.V.V.V.V.V.V.V.V.V.V.V.V.V.z.t p } U q W }  .}  .V . % |  . . .P.Q.V.V.V.V.V.V.V.V.V.V.V.V.V.V.V.V.V.V.V.V.V.V.",
"V.V.V.V.V.V.V.V.V.V.V.V.V.V.V.V.V.V.V.V.V.V.z.t p  .U 7 U ! [  . .Q $ & V !  . .o.E.R.A.V.V.V.V.V.V.V.V.V.V.V.V.V.V.V.V.V.V.V.V.",
"V.V.V.V.V.V.V.V.V.V.V.V.V.V.V.V.V.V.V.V.V.B.z.t p  .U 7 3 q _ .. .} [ u . m  . .o.o.L.C.V.V.V.V.V.V.V.V.V.V.V.V.V.V.V.V.V.V.V.V.",
"V.V.V.V.V.V.V.V.V.V.V.V.V.V.V.V.V.V.V.V.V.V.z.t p _ U i q i _  . .{ ! &   & ) ! ) X.I.S.V.V.V.V.V.V.V.V.V.V.V.V.V.V.V.V.V.V.V.V.",
"V.V.V.V.V.V.V.V.V.V.V.V.V.V.V.V.V.V.V.V.V.V.z.u 3 i U _ _ _ }  . .R O .   . o o @ 6.S.V.V.V.V.V.V.V.V.V.V.V.V.V.V.V.V.V.V.V.V.V.",
"V.V.V.V.V.V.V.V.V.V.V.V.V.V.V.V.V.V.V.V.V.V.z.u 8 7 U  . . . . ...V X           + r.V.V.V.V.V.V.V.V.V.V.V.V.V.V.V.V.V.V.V.V.V.V.",
"V.V.V.V.V.V.V.V.V.V.V.V.V.V.V.V.V.V.V.V.V.V.m.6.3.3.G. . . . . . .) B m m m M ,.2.m.V.V.V.V.V.V.V.V.V.V.V.V.V.V.V.V.V.V.V.V.V.V.",
"V.V.V.V.V.V.V.V.V.V.V.V.V.V.V.V.V.V.V.V.V.V.V.V.N.A.H. . . ... . ...}  . .| o.R.B.V.V.V.V.V.V.V.V.V.V.V.V.V.V.V.V.V.V.V.V.V.V.V.",
"V.V.V.V.V.V.V.V.V.V.V.V.V.V.V.V.V.V.V.V.V.V.V.V.M.p.K ~ ` G.^ ~ ~ ~ ~ ] I.I.I.Q.V.V.V.V.V.V.V.V.V.V.V.V.V.V.V.V.V.V.V.V.V.V.V.V.",
"V.V.V.V.V.V.V.V.V.V.V.V.V.V.V.V.V.V.V.V.V.V.V.V.a.l 2 h * *.y g g g g S Z.A.V.V.V.V.V.V.V.V.V.V.V.V.V.V.V.V.V.V.V.V.V.V.V.V.V.V.",
"V.V.V.V.V.V.V.V.V.V.V.V.V.V.V.V.V.V.V.V.V.V.N.M.i.f > 1 * &.y > > < k Z T.T.T.T.M.N.V.V.V.V.V.V.V.V.V.V.V.V.V.V.V.V.V.V.V.V.V.V.",
"V.V.V.V.V.V.V.V.V.V.V.V.V.V.V.V.V.V.V.V.V.V.g.G l 1 1 < >.#.y 1 > y +.- c c c c F T.V.V.V.V.V.V.V.V.V.V.V.V.V.V.V.V.V.V.V.V.V.V.",
"V.V.V.V.V.V.V.V.V.V.V.V.V.V.V.V.V.V.V.V.V.V.f.z > 1 > 1 >.#.b < < b &.= 1 1 > > c s.V.V.V.V.V.V.V.V.V.V.V.V.V.V.V.V.V.V.V.V.V.V.",
"V.V.V.V.V.V.V.V.V.V.V.V.V.V.V.V.V.V.V.V.M.u.G 2 > 1 1 , >.%.>.>.>.+.%.= 1 > 1 > x G u.C.V.V.V.V.V.V.V.V.V.V.V.V.V.V.V.V.V.V.V.V.",
"V.V.V.V.V.V.V.V.V.V.V.V.V.V.V.V.V.V.V.V.M.D > > 1 1 1 < = $.$.$.$.$.$.= 1 1 > 1 1 1 G C.V.V.V.V.V.V.V.V.V.V.V.V.V.V.V.V.V.V.V.V.",
"V.V.V.V.V.V.V.V.V.V.V.V.V.V.V.V.V.V.V.V.Z.K.' ' H 2 k v E L &.$.%.:.P ; v k 1 J ' ' K.C.V.V.V.V.V.V.V.V.V.V.V.V.V.V.V.V.V.V.V.V.",
"V.V.V.V.V.V.V.V.V.V.V.V.V.V.V.V.V.V.V.V.F.[.|.|.U.2 C &.E T @.$.7.h.T E &.v j Y.|.|.`.D.V.V.V.V.V.V.V.V.V.V.V.V.V.V.V.V.V.V.V.V.",
"V.V.V.V.V.V.V.V.V.V.V.V.V.V.V.V.V.V.V.V.F.{. X XY.H C $.I Y @.7.7.j.Y I 0.C H ). X X'.D.V.V.V.V.V.V.V.V.V.V.V.V.V.V.V.V.V.V.V.V.",
"V.V.V.V.V.V.V.V.V.V.V.V.V.V.V.V.V.V.V.V.D.[. X X|.].W.7.;.=.-.7.$.%.=.;.9.W.].|. X X'.D.V.V.V.V.V.V.V.V.V.V.V.V.V.V.V.V.V.V.V.V.",
"V.V.V.V.V.V.V.V.V.V.V.V.V.V.V.V.V.V.V.V.D.'. X X X}.v.$.$.$.7.7.$.7.7.$.8.~.}. X X X'.D.V.V.V.V.V.V.V.V.V.V.V.V.V.V.V.V.V.V.V.V.",
"V.V.V.V.V.V.V.V.V.V.V.V.V.V.V.V.V.V.V.V.F.{. X X(.k.q.$.$.$.7.7.$.$.7.7.8.q.k._. X X'.D.V.V.V.V.V.V.V.V.V.V.V.V.V.V.V.V.V.V.V.V.",
"V.V.V.V.V.V.V.V.V.V.V.V.V.V.V.V.V.V.V.V.F.'. X X/.8.7.7.$.7.7.7.7.7.7.$.7.7.0./. X X'.D.V.V.V.V.V.V.V.V.V.V.V.V.V.V.V.V.V.V.V.V.",
"V.V.V.V.V.V.V.V.V.V.V.V.V.V.V.V.V.V.V.V.D.^.(.(.v.9.$.$.$.7.w.e.e.w.7.7.7.7.0.!.(.(.^.D.V.V.V.V.V.V.V.V.V.V.V.V.V.V.V.V.V.V.V.V.",
"V.V.V.V.V.V.V.V.V.V.V.V.V.V.V.V.V.V.V.V.V.V.D.V.b.7.7.$.$.9.b.V.V.t.8.$.7.$.8.b.V.V.V.V.V.V.V.V.V.V.V.V.V.V.V.V.V.V.V.V.V.V.V.V.",
"V.V.V.V.V.V.V.V.V.V.V.V.V.V.V.V.V.V.V.V.V.V.N.x.5.O.O.O.;.w.n.V.V.n.w.;.O.O.O.5.x.N.V.V.V.V.V.V.V.V.V.V.V.V.V.V.V.V.V.V.V.V.V.V.",
"V.V.V.V.V.V.V.V.V.V.V.V.V.V.V.V.V.V.V.V.V.V.z.n r w w t 4.n.B.V.V.V.B.3.& w w r N c.V.V.V.V.V.V.V.V.V.V.V.V.V.V.V.V.V.V.V.V.V.V.",
"V.V.V.V.V.V.V.V.V.V.V.V.V.V.V.V.V.V.V.V.V.V.6.t 3 6 6 8 4.V.V.V.V.V.N.1.3 3 6 3 t z.N.V.V.V.V.V.V.V.V.V.V.V.V.V.V.V.V.V.V.V.V.V.",
"V.V.V.V.V.V.V.V.V.V.V.V.V.V.V.V.V.V.V.V.N.A n 5 6 6 6 8 4.V.V.V.V.V.V.1.4 6 6 6 r n A N.V.V.V.V.V.V.V.V.V.V.V.V.V.V.V.V.V.V.V.V.",
"V.V.V.V.V.V.V.V.V.V.V.V.V.V.V.V.V.V.V.V.m.n 4 5 4 8 4 5 4.V.V.V.V.V.V.1.4 4 4 4 4 5 N N.V.V.V.V.V.V.V.V.V.V.V.V.V.V.V.V.V.V.V.V.",
"V.V.V.V.V.V.V.V.V.V.V.V.V.V.V.V.V.V.V.V.N.4.<.<.<.<.<.<.c.V.V.V.V.V.V.z.<.<.<.<.<.<.6.N.V.V.V.V.V.V.V.V.V.V.V.V.V.V.V.V.V.V.V.V.",
"V.V.V.V.V.V.V.V.V.V.V.V.V.V.V.V.V.V.V.V.V.N.V.N.V.N.A.V.V.V.V.V.V.V.V.B.A.V.V.N.N.N.B.V.V.V.V.V.V.V.V.V.V.V.V.V.V.V.V.V.V.V.V.V.",
"V.V.V.V.V.V.V.V.V.V.V.V.V.V.V.V.V.V.V.V.V.V.V.V.V.V.V.V.V.V.V.V.V.V.V.V.V.V.V.V.V.V.V.V.V.V.V.V.V.V.V.V.V.V.V.V.V.V.V.V.V.V.V.V.",
"V.V.V.V.V.V.V.V.V.V.V.V.V.V.V.V.V.V.V.V.V.V.V.V.V.V.V.V.V.V.V.V.V.V.V.V.V.V.V.V.V.V.V.V.V.V.V.V.V.V.V.V.V.V.V.V.V.V.V.V.V.V.V.V.",
"V.V.V.V.V.V.V.V.V.V.V.V.V.V.V.V.V.V.V.V.V.V.V.V.V.V.V.V.V.V.V.V.V.V.V.V.V.V.V.V.V.V.V.V.V.V.V.V.V.V.V.V.V.V.V.V.V.V.V.V.V.V.V.V.",
"V.V.V.V.V.V.V.V.V.V.V.V.V.V.V.V.V.V.V.V.V.V.V.V.V.V.V.V.V.V.V.V.V.V.V.V.V.V.V.V.V.V.V.V.V.V.V.V.V.V.V.V.V.V.V.V.V.V.V.V.V.V.V.V.",
"V.V.V.V.V.V.V.V.V.V.V.V.V.V.V.V.V.V.V.V.V.V.V.V.V.V.V.V.V.V.V.V.V.V.V.V.V.V.V.V.V.V.V.V.V.V.V.V.V.V.V.V.V.V.V.V.V.V.V.V.V.V.V.V.",
"V.V.V.V.V.V.V.V.V.V.V.V.V.V.V.V.V.V.V.V.V.V.V.V.V.V.V.V.V.V.V.V.V.V.V.V.V.V.V.V.V.V.V.V.V.V.V.V.V.V.V.V.V.V.V.V.V.V.V.V.V.V.V.V.",
"V.V.V.V.V.V.V.V.V.V.V.V.V.V.V.V.V.V.V.V.V.V.V.V.V.V.V.V.V.V.V.V.V.V.V.V.V.V.V.V.V.V.V.V.V.V.V.V.V.V.V.V.V.V.V.V.V.V.V.V.V.V.V.V.",
"V.V.V.V.V.V.V.V.V.V.V.V.V.V.V.V.V.V.V.V.V.V.V.V.V.V.V.V.V.V.V.V.V.V.V.V.V.V.V.V.V.V.V.V.V.V.V.V.V.V.V.V.V.V.V.V.V.V.V.V.V.V.V.V.",
"V.V.V.V.V.V.V.V.V.V.V.V.V.V.V.V.V.V.V.V.V.V.V.V.V.V.V.V.V.V.V.V.V.V.V.V.V.V.V.V.V.V.V.V.V.V.V.V.V.V.V.V.V.V.V.V.V.V.V.V.V.V.V.V.",
"V.V.V.V.V.V.V.V.V.V.V.V.V.V.V.V.V.V.V.V.V.V.V.V.V.V.V.V.V.V.V.V.V.V.V.V.V.V.V.V.V.V.V.V.V.V.V.V.V.V.V.V.V.V.V.V.V.V.V.V.V.V.V.V.",
"V.V.V.V.V.V.V.V.V.V.V.V.V.V.V.V.V.V.V.V.V.V.V.V.V.V.V.V.V.V.V.V.V.V.V.V.V.V.V.V.V.V.V.V.V.V.V.V.V.V.V.V.V.V.V.V.V.V.V.V.V.V.V.V.",
"V.V.V.V.V.V.V.V.V.V.V.V.V.V.V.V.V.V.V.V.V.V.V.V.V.V.V.V.V.V.V.V.V.V.V.V.V.V.V.V.V.V.V.V.V.V.V.V.V.V.V.V.V.V.V.V.V.V.V.V.V.V.V.V."
};
