/* XPM */
static char *_88847da92c746e8d9f968d6e3bc47d7a0Z8eP5owLOpHqKO[] = {
/* columns rows colors chars-per-pixel */
"64 64 118 2 ",
"   c #000000",
".  c #060608",
"X  c #07080D",
"o  c #0F121F",
"O  c #3F2B0C",
"+  c #1B2136",
"@  c #4E360E",
"#  c #553A10",
"$  c #434204",
"%  c #534904",
"&  c #535305",
"*  c #5C4012",
"=  c #6E4C14",
"-  c #656405",
";  c #6B6B04",
":  c #756606",
">  c #64523F",
",  c #212742",
"<  c #232946",
"1  c #242B4A",
"2  c #2C3456",
"3  c #2F385E",
"4  c #2E3861",
"5  c #394576",
"6  c #3A477A",
"7  c #424242",
"8  c #554A48",
"9  c #594F50",
"0  c #545454",
"q  c #5A535E",
"w  c #6C5743",
"e  c #696950",
"r  c #545C7A",
"t  c #626262",
"y  c #7F7B68",
"u  c #895D19",
"i  c #8C7D08",
"p  c #967B0B",
"a  c #9F6C1D",
"s  c #A27717",
"d  c #AD761F",
"f  c #988406",
"g  c #9A9A04",
"h  c #A99204",
"j  c #BAA107",
"k  c #C1B705",
"l  c #D8A514",
"z  c #E1AE13",
"x  c #F3B517",
"c  c #F3BA15",
"v  c #C38522",
"b  c #EA9F25",
"n  c #EBA125",
"m  c #EACA06",
"M  c #F7C50E",
"N  c #F9C90C",
"B  c #F2D004",
"V  c #FDD604",
"C  c #FED901",
"Z  c #FDD909",
"A  c #FDDA15",
"S  c #FCE402",
"D  c #FAEB01",
"F  c #FAEA0E",
"G  c #F7F700",
"H  c #F8F500",
"J  c #F7F801",
"K  c #F8F800",
"L  c #FCE210",
"P  c #FEDD21",
"I  c #FCDE32",
"U  c #FAEF25",
"Y  c #F5F532",
"T  c #938942",
"R  c #CBBF47",
"E  c #D9C545",
"W  c #D7C952",
"Q  c #F9F941",
"!  c #D3C77F",
"~  c #FEE967",
"^  c #FDE96D",
"/  c #FAFA66",
"(  c #FAFA6D",
")  c #FAFA7C",
"_  c #414F88",
"`  c #555D85",
"'  c #475693",
"]  c #4B5B9D",
"[  c #666C86",
"{  c #636C92",
"}  c #4D5DA2",
"|  c #5264AD",
" . c #5465B0",
".. c #566ABA",
"X. c #596CBA",
"o. c #5D71C4",
"O. c #6276CB",
"+. c #647AD4",
"@. c #667DDC",
"#. c #6B84E7",
"$. c #6C85EA",
"%. c #728CF7",
"&. c #939393",
"*. c #999999",
"=. c #AAAAAB",
"-. c gray69",
";. c #FBFA8D",
":. c #FBFB91",
">. c #FBFB98",
",. c #FEF3AA",
"<. c #FCFBAB",
"1. c #FDF5B6",
"2. c #FDF5BD",
"3. c #FCFCB9",
"4. c #FEFDEB",
"5. c #FEFDF4",
"6. c #FBFBFB",
"7. c #FEFEFE",
/* pixels */
"%.%.%.%.%.%.%.%.%.%.%.%.%.%.%.%.%.%.%.%.%.%.%.%.%.%.%.%.%.%.%.%.%.%.%.%.%.%.%.%.%.%.%.%.%.%.%.%.%.%.%.%.%.%.%.%.%.%.%.%.%.%.%.%.",
"%.%.%.%.%.%.%.%.%.%.%.%.%.%.%.%.%.%.%.%.%.%.%.%.%.%.%.%.%.%.%.%.%.%.%.%.%.%.%.%.%.%.%.%.%.%.%.%.%.%.%.%.%.%.%.%.%.%.%.%.%.%.%.%.",
"%.%.%.%.%.%.%.%.%.%.%.%.%.%.%.%.%.%.%.%.%.%.%.%.%.%.%.%.%.%.%.%.%.%.%.%.%.%.%.%.%.%.%.%.%.%.%.%.%.%.%.%.%.%.%.%.%.%.%.%.%.%.%.%.",
"%.%.%.%.%.%.%.%.%.%.%.%.%.%.%.%.%.%.%.%.%.%.%.%.%.%.%.%.%.%.%.%.%.%.%.%.%.%.%.%.%.%.%.%.%.%.%.%.%.%.%.%.%.%.%.%.%.%.%.%.%.%.%.%.",
"%.%.%.%.%.%.%.%.%.%.%.%.%.%.%.%.%.%.%.%.%.%.%.%.%.+.+.+.+.+.+.+.+.+.+.+.+.+.+.$.%.%.%.%.%.%.%.%.%.%.%.%.%.%.%.%.%.%.%.%.%.%.%.%.",
"%.%.%.%.%.%.%.%.%.%.%.%.%.%.%.%.%.%.%.%.%.%.%.%.O.X X X X X X X X X X X X X X | %.%.%.%.%.%.%.%.%.%.%.%.%.%.%.%.%.%.%.%.%.%.%.%.",
"%.%.%.%.%.%.%.%.%.%.%.%.%.%.%.%.%.%.%.%.%.%.%.%.O.                            | %.%.%.%.%.%.%.%.%.%.%.%.%.%.%.%.%.%.%.%.%.%.%.%.",
"%.%.%.%.%.%.%.%.%.%.%.%.%.%.%.%.%.%.%.%.%.%.%.%.O.                            | %.%.%.%.%.%.%.%.%.%.%.%.%.%.%.%.%.%.%.%.%.%.%.%.",
"%.%.%.%.%.%.%.%.%.%.%.%.%.%.%.%.%.| 3 3 3 3 3 3 r -.-.-.-.-.-.-.-.-.-.-.-.-.-.[ 3 3 3 3 3 3 ] %.%.%.%.%.%.%.%.%.%.%.%.%.%.%.%.%.",
"%.%.%.%.%.%.%.%.%.%.%.%.%.%.%.%.%.5             7 7.7.7.7.7.7.7.7.7.7.7.7.7.7.t             2 %.%.%.%.%.%.%.%.%.%.%.%.%.%.%.%.%.",
"%.%.%.%.%.%.%.%.%.%.%.%.%.%.%.%.%.6             7 7.7.7.7.7.7.7.7.7.7.7.7.7.7.t             2 %.%.%.%.%.%.%.%.%.%.%.%.%.%.%.%.%.",
"%.%.%.%.%.%.%.%.%.%.%.%.%.$.X.X.X.{ 0 0 0 0 0 0 y ,.,.,.,.,.,.,.,.,.,.,.,.,.,.T % % % @ @ @ 8 X.X.X.%.%.%.%.%.%.%.%.%.%.%.%.%.%.",
"%.%.%.%.%.%.%.%.%.%.%.%.%.o.X   . *.7.7.7.7.7.7.2.C C C C C V C C V C C C V C C C C V n n n d        .%.%.%.%.%.%.%.%.%.%.%.%.%.",
"%.%.%.%.%.%.%.%.%.%.%.%.%.o.X     *.7.7.7.7.7.7.2.C V C C C C C C C V C C C C V C C V n b n d        .%.%.%.%.%.%.%.%.%.%.%.%.%.",
"%.%.%.%.%.%.%.%.%.%.%.%.%.o..     *.7.7.7.5.5.5.1.C C C C Z Z Z Z Z Z C C V C C C C V x b b d       | %.%.%.%.%.%.%.%.%.%.%.%.%.",
"%.%.%.%.%.%.%.%.%.%.%.%.%.o..     *.7.7.5.I A A L G G G ;.4.4.4.4.4.4.<.G G G S C V V n b b d        .%.%.%.%.%.%.%.%.%.%.%.%.%.",
"%.%.%.%.%.%.%.%.%.%.%.%.%.o.      *.7.7.4.P V C C K K K >.7.7.7.7.7.7.3.K K K S V V V x b b d       | %.%.%.%.%.%.%.%.%.%.%.%.%.",
"%.%.%.%.%.%.%.%.%.%.%.%.%.o..     *.7.7.4.P V C S K J K >.7.7.7.7.7.7.3.J K K S V V V n b b d        .%.%.%.%.%.%.%.%.%.%.%.%.%.",
"%.%.%.%.%.%.%.%.%.%.' 5 5 ` &.&.&.! ^ ^ ~ F D D U :.:.:.) ( ( ( ^ ^ ^ W ; ; ; k D D D M M c l u u u q 5 5 _ $.%.%.%.%.%.%.%.%.%.",
"%.%.%.%.%.%.%.%.%.%.+     7 6.7.7.~ C C V G K G Q 7.7.7./ K K K C C C j       g G G J C C C N b b n #     o $.%.%.%.%.%.%.%.%.%.",
"%.%.%.%.%.%.%.%.%.$.+     7 6.7.7.~ C V C H G G Q 7.7.7./ G K K C C C j       g G K G C V C N b b n #     o #.%.%.%.%.%.%.%.%.%.",
"%.%.%.%.%.%.%.%.%.%.+     7 6.7.7.~ C C C G K G Q 7.7.7./ G G H C C C j       g K G K C C C N b b b #     o #.%.%.%.%.%.%.%.%.%.",
"%.%.%.%.%.%.%.%.%.%.+     7 6.7.7.~ C C C H K K Q 7.7.7./ K G G C C C j       g J K K C V C N b b n #     o #.%.%.%.%.%.%.%.%.%.",
"%.%.%.%.%.%.%.%.%.%.+     7 6.7.7.~ C V C H K G Q 7.7.7./ K K K C C C j       g J K J C C C N b n b #     o #.%.%.%.%.%.%.%.%.%.",
"%.%.%.%.%.%.%.%.%.%.+     7 6.7.7.~ C C C H G G Q 7.7.7./ K K K C C C j       g K G G C C C N b b b #     o #.%.%.%.%.%.%.%.%.%.",
"%.%.%.%.%.%.%.%.%.%.+     7 6.7.7.~ C V C H G G Q 7.7.7./ K K K S C C j       g K G G C C C N b b n #     o #.%.%.%.%.%.%.%.%.%.",
"%.%.%.%.%.%.%.%.%.%.+     7 6.7.7.~ C C C G K K Q 7.7.7./ K K H C C C j       g J K J C C C N b b n #     o #.%.%.%.%.%.%.%.%.%.",
"%.%.%.%.%.%.%.%.%.%.+     7 6.7.7.~ C V C H G K Q 7.7.7./ K K G C C C j       g K K G S C C N b b b #     o #.%.%.%.%.%.%.%.%.%.",
"%.%.%.%.%.%.%.%.%.$.+     7 6.7.7.~ V C C G G K Q 7.7.7./ K K G C V C j       g K K G C V C N b n n #     o $.%.%.%.%.%.%.%.%.%.",
"%.%.%.%.%.%.%.%.%.%.+     7 6.7.7.~ C C V H G G Q 7.7.7./ K K G C C C j       g K K G C C C N b b b #     o #.%.%.%.%.%.%.%.%.%.",
"%.%.%.%.%.%.%.%.%.%.+     7 6.7.7.~ C V C H G G Q 7.7.7./ K K G C C V j       g K K J C C C N b b b #     o $.%.%.%.%.%.%.%.%.%.",
"%.%.%.%.%.%.%.%.%.%.+     7 6.7.7.~ C C C G G G Q 7.7.7./ G G G C C C j       g J K K C C V N b b n #     o $.%.%.%.%.%.%.%.%.%.",
"%.%.%.%.%.%.%.%.%.%.+     7 6.7.7.~ C C V H K K Q 7.7.7./ K K K C C C j       g K K G C C C N n b n #     o $.%.%.%.%.%.%.%.%.%.",
"%.%.%.%.%.%.%.%.%.%.+     7 6.7.7.~ C V C H K K Q 7.7.7./ K K K S C C j       g G K G C C C M b b n #     o #.%.%.%.%.%.%.%.%.%.",
"%.%.%.%.%.%.%.%.%.$.+     7 6.7.7.~ C C C G K G Q 7.7.7./ K K H C C C j       g K K J C C C N b b b #     o #.%.%.%.%.%.%.%.%.%.",
"%.%.%.%.%.%.%.%.%.%.+     7 6.7.7.~ C V V H G K Q 7.7.7./ G G H C C C j       g K K G S C C N b b n #     o #.%.%.%.%.%.%.%.%.%.",
"%.%.%.%.%.%.%.%.%.%.+     7 6.7.7.~ V C C G G K Q 7.7.7./ G G G C C C j       g K G G C C V N b b n #     o #.%.%.%.%.%.%.%.%.%.",
"%.%.%.%.%.%.%.%.%.%.+     7 6.7.7.~ V C V H G G Q 7.7.7./ G G G C C C j       g J K G C C C N b n b #     o #.%.%.%.%.%.%.%.%.%.",
"%.%.%.%.%.%.%.%.%.%.+     7 6.7.7.~ C C C H K K Q 7.7.7./ H H H C C V j       g K K J C C V N b b b #     o $.%.%.%.%.%.%.%.%.%.",
"%.%.%.%.%.%.%.%.%.%.+     7 6.7.7.~ V C C G G K Q 7.7.7.~ V V C C C C j       g J K G C C C N b n n #     o #.%.%.%.%.%.%.%.%.%.",
"%.%.%.%.%.%.%.%.%.%.+     7 6.7.7.~ C C C H G G Q 7.7.7.~ C C C C C C j       g K K G C C C N b b n #     o #.%.%.%.%.%.%.%.%.%.",
"%.%.%.%.%.%.%.%.%.$.+     7 6.7.7.~ C C C G G G Q 7.7.7.~ C V C C C C j       g K K J C V C N b b n #     o #.%.%.%.%.%.%.%.%.%.",
"%.%.%.%.%.%.%.%.%.%.+     7 6.7.7.~ C C V H G K Q 7.7.7.~ C C C C C C j       g J K J C C C N b b n #     o $.%.%.%.%.%.%.%.%.%.",
"%.%.%.%.%.%.%.%.%.%.+     7 6.7.7.~ C V C G K K Q 7.7.7.~ C C V V C V j       g K K G S V C N n b n #     o $.%.%.%.%.%.%.%.%.%.",
"%.%.%.%.%.%.%.%.%.%.+     7 6.7.7.~ C C C H G G Q 7.7.7.~ V C C C C V j       g K K G C C C N n b n #     o #.%.%.%.%.%.%.%.%.%.",
"%.%.%.%.%.%.%.%.%.%.6 4 4 r =.=.=.E V C C G K G Y <.<.<.R h h h h h h i & & & k D D D M M M z a a a 9 4 4 5 $.%.%.%.%.%.%.%.%.%.",
"%.%.%.%.%.%.%.%.%.%.%.%.%.o.      f C C V H K K G G G G -             $ K G K S C C V b n b d        .%.%.%.%.%.%.%.%.%.%.%.%.%.",
"%.%.%.%.%.%.%.%.%.%.%.%.%.o..     f V C C G K G G K K K -             $ K G G S C C V x n b d   X    .%.%.%.%.%.%.%.%.%.%.%.%.%.",
"%.%.%.%.%.%.%.%.%.%.%.%.%.o..     f C C C G J K K J K K -             $ K J K S C C V n n n d     .  .%.%.%.%.%.%.%.%.%.%.%.%.%.",
"%.%.%.%.%.%.%.%.%.%.%.%.%.o..     f V C C C C C C C C C B m m m m m m B C C C c n n n n b n d        .%.%.%.%.%.%.%.%.%.%.%.%.%.",
"%.%.%.%.%.%.%.%.%.%.%.%.%.o.      f V C V C C C C C C C C C C C C C C C C C C x n n b b b b d   .    .%.%.%.%.%.%.%.%.%.%.%.%.%.",
"%.%.%.%.%.%.%.%.%.%.%.%.%.o..     f C C C C C C C C C C C C V C C C C C C C C c n n n b b b d        .%.%.%.%.%.%.%.%.%.%.%.%.%.",
"%.%.%.%.%.%.%.%.%.%.%.%.%.#.} ] } e : : : : : : p c c c c c c c c c c c c c c s = = = = = = w ] } ] @.%.%.%.%.%.%.%.%.%.%.%.%.%.",
"%.%.%.%.%.%.%.%.%.%.%.%.%.%.%.%.%.6             @ n b b b b b b b b n b b b b #             2 %.%.%.%.%.%.%.%.%.%.%.%.%.%.%.%.%.",
"%.%.%.%.%.%.%.%.%.%.%.%.%.%.%.%.%.6             O b b n b b n b b b b b n b n *             3 %.%.%.%.%.%.%.%.%.%.%.%.%.%.%.%.%.",
"%.%.%.%.%.%.%.%.%.%.%.%.%.%.%.%.%.] < 1 1 1 1 1 7 v v v v v v v v v v v v v v > , , < < < 1 _ %.%.%.%.%.%.%.%.%.%.%.%.%.%.%.%.%.",
"%.%.%.%.%.%.%.%.%.%.%.%.%.%.%.%.%.%.%.%.%.%.%.%.O.                            | %.%.%.%.%.%.%.%.%.%.%.%.%.%.%.%.%.%.%.%.%.%.%.%.",
"%.%.%.%.%.%.%.%.%.%.%.%.%.%.%.%.%.%.%.%.%.%.%.%.O.                            | %.%.%.%.%.%.%.%.%.%.%.%.%.%.%.%.%.%.%.%.%.%.%.%.",
"%.%.%.%.%.%.%.%.%.%.%.%.%.%.%.%.%.%.%.%.%.%.%.%.O.                            | %.%.%.%.%.%.%.%.%.%.%.%.%.%.%.%.%.%.%.%.%.%.%.%.",
"%.%.%.%.%.%.%.%.%.%.%.%.%.%.%.%.%.%.%.%.%.%.%.%.$.............................$.%.%.%.%.%.%.%.%.%.%.%.%.%.%.%.%.%.%.%.%.%.%.%.%.",
"%.%.%.%.%.%.%.%.%.%.%.%.%.%.%.%.%.%.%.%.%.%.%.%.%.%.%.%.%.%.%.%.%.%.%.%.%.%.%.%.%.%.%.%.%.%.%.%.%.%.%.%.%.%.%.%.%.%.%.%.%.%.%.%.",
"%.%.%.%.%.%.%.%.%.%.%.%.%.%.%.%.%.%.%.%.%.%.%.%.%.%.%.%.%.%.%.%.%.%.%.%.%.%.%.%.%.%.%.%.%.%.%.%.%.%.%.%.%.%.%.%.%.%.%.%.%.%.%.%.",
"%.%.%.%.%.%.%.%.%.%.%.%.%.%.%.%.%.%.%.%.%.%.%.%.%.%.%.%.%.%.%.%.%.%.%.%.%.%.%.%.%.%.%.%.%.%.%.%.%.%.%.%.%.%.%.%.%.%.%.%.%.%.%.%.",
"%.%.%.%.%.%.%.%.%.%.%.%.%.%.%.%.%.%.%.%.%.%.%.%.%.%.%.%.%.%.%.%.%.%.%.%.%.%.%.%.%.%.%.%.%.%.%.%.%.%.%.%.%.%.%.%.%.%.%.%.%.%.%.%."
};
