/* XPM */
static char *_94e65ec016b48e8c65a53c22d24760860xIkJDDpEc456nW[] = {
/* columns rows colors chars-per-pixel */
"64 64 251 2 ",
"   c #020202",
".  c #060709",
"X  c #090909",
"o  c #130C0D",
"O  c #131313",
"+  c #1C1C1C",
"@  c #260808",
"#  c #380707",
"$  c #2B1814",
"%  c #1D2216",
"&  c #060628",
"*  c #050534",
"=  c #1E2121",
"-  c #232323",
";  c #2B2B2B",
":  c #202038",
">  c #343434",
",  c #3C3C3C",
"<  c #4A0F09",
"1  c #580606",
"2  c #6A0505",
"3  c #730303",
"4  c #7D0404",
"5  c #791818",
"6  c #532E12",
"7  c #673913",
"8  c #483635",
"9  c #513533",
"0  c #6A3A2F",
"q  c #564533",
"w  c #764625",
"e  c #6E5C3B",
"r  c #627B39",
"t  c #03034A",
"y  c #060659",
"u  c #01015E",
"i  c #171858",
"p  c #312F56",
"a  c #30265A",
"s  c #000060",
"d  c #171865",
"f  c #512A53",
"g  c #434343",
"h  c #41414B",
"j  c #4C4C4C",
"k  c #4E4C51",
"l  c #505050",
"z  c #545F5F",
"x  c gray36",
"c  c #6F5450",
"v  c #716E47",
"b  c #656565",
"n  c #6A6B6F",
"m  c #767674",
"M  c #797979",
"N  c #870303",
"B  c #940102",
"V  c #9B0101",
"C  c #8E150C",
"Z  c #A40101",
"A  c #AD0000",
"S  c #B00000",
"D  c #B30D00",
"F  c #AC1608",
"G  c #B51800",
"H  c #973C02",
"J  c #8C3210",
"K  c #B23101",
"L  c #823A3A",
"P  c #AE2F34",
"I  c #C23A00",
"U  c #994502",
"Y  c #994F0F",
"T  c #AB5503",
"R  c #AD7004",
"E  c #8C4E28",
"W  c #985529",
"Q  c #975B33",
"!  c #A7532E",
"~  c #9F6037",
"^  c #A86334",
"/  c #B56A36",
"(  c #CB4A00",
")  c #D35800",
"_  c #DC6500",
"`  c #D06C05",
"'  c #E26B00",
"]  c #E87700",
"[  c #F17E00",
"{  c #C1723A",
"}  c #925852",
"|  c #B84040",
" . c #AC4956",
".. c #9F605A",
"X. c #BB7648",
"o. c #A97351",
"O. c #8D7777",
"+. c #B27369",
"@. c #D07D44",
"#. c #6E9037",
"$. c #718D41",
"%. c #758D4B",
"&. c #79914B",
"*. c #7D9C48",
"=. c #798B61",
"-. c #AF8604",
";. c #B49903",
":. c #BAA200",
">. c #989833",
",. c #F48301",
"<. c #F78901",
"1. c #F88900",
"2. c #F39604",
"3. c #CAB00A",
"4. c #E9AF0C",
"5. c #F8B50A",
"6. c #D4B52D",
"7. c #D0C611",
"8. c #F7C60F",
"9. c #F0CB11",
"0. c #E6D613",
"q. c #F7DB14",
"w. c #EFE71C",
"e. c #F8E916",
"r. c #DBCC26",
"t. c #969E53",
"y. c #B48B53",
"u. c #8CAA4E",
"i. c #95BB56",
"p. c #96BB58",
"a. c #99BE59",
"s. c #88847F",
"d. c #B08C73",
"f. c #9BBD63",
"g. c #9ABB68",
"h. c #ADB071",
"j. c #DA854B",
"k. c #C88E57",
"l. c #E38A4E",
"z. c #F29758",
"x. c #D4946B",
"c. c #CCA470",
"v. c #F5AE70",
"b. c #9CC557",
"n. c #9EC957",
"m. c #9CC25A",
"M. c #9FC95B",
"N. c #A8C64C",
"B. c #A1CD57",
"V. c #A3C55A",
"C. c #A4CB59",
"Z. c #ABCC5B",
"A. c #B0CF5B",
"S. c #A5D356",
"D. c #A9D557",
"F. c #A7D856",
"G. c #AADB56",
"H. c #A6D25A",
"J. c #AAD359",
"K. c #ADDA59",
"L. c #B0DF57",
"P. c #B3D35B",
"I. c #B9D65C",
"U. c #B4DC59",
"Y. c #BBDB5C",
"T. c #ADE155",
"R. c #AEE259",
"E. c #B4E258",
"W. c #BCE35A",
"Q. c #9FC465",
"!. c #A2CA61",
"~. c #A6C86A",
"^. c #ABD668",
"/. c #A6C479",
"(. c #B4D777",
"). c #B7E065",
"_. c #C0DE5E",
"`. c #C3E45C",
"'. c #C4E85C",
"]. c #E0E064",
"[. c #717191",
"{. c #3D2EC8",
"}. c #BE7BA3",
"|. c #855ECA",
" X c #838383",
".X c #8B8B8B",
"XX c #919188",
"oX c #939392",
"OX c #9A9A9A",
"+X c #BC9689",
"@X c #9AAD83",
"#X c #A8AE93",
"$X c #9292A9",
"%X c #9795AC",
"&X c #A3A3A3",
"*X c #A9A1A1",
"=X c #ABABAB",
"-X c #ABACB3",
";X c #B3B3B3",
":X c #B8BBB3",
">X c #BDBDBD",
",X c #CAA090",
"<X c #E6B48D",
"1X c #CDB7AF",
"2X c #ABC884",
"3X c #B1CB8E",
"4X c #B7D78B",
"5X c #B6CD97",
"6X c #B2C1A0",
"7X c #BDD1A3",
"8X c #CAD58E",
"9X c #F4CB8C",
"0X c #F8D694",
"qX c #F8D898",
"wX c #C8E694",
"eX c #F8E69C",
"rX c #C3D7A8",
"tX c #D5CBB3",
"yX c #CAD9B7",
"uX c #D1E5B4",
"iX c #B8B8C8",
"pX c #B3B2E6",
"aX c #C3C3C3",
"sX c #C3C3CB",
"dX c #CCCCCC",
"fX c #DACAC4",
"gX c #CFDDC0",
"hX c #D2DDC6",
"jX c #D5D6D6",
"kX c #DCDCDB",
"lX c #E0D4CF",
"zX c #E6DCD6",
"xX c #D9E5CA",
"cX c #DDE6D2",
"vX c #EBEDCE",
"bX c #E1E9D5",
"nX c #E3EADB",
"mX c #D9D9E0",
"MX c #E3E4E3",
"NX c #EAE6E5",
"BX c #EAEEE5",
"VX c #EDEDED",
"CX c #F5EBE6",
"ZX c #EDF3E4",
"AX c #EDF1EA",
"SX c #F8F1E4",
"DX c #F1F3ED",
"FX c #F6F6F5",
"GX c #F6F6F6",
"HX c #F7F7F7",
"JX c #F8F8F8",
/* pixels */
"%.p.p.p.p.a.!.p.p.p.p.m.p.p.p.V.C.a.F.a.p.p.p.p.p.i.a.M.i.p.p.p.m.p.p.p.m.C.p.J.i.a.p.p.p.p.p.p.Q.a.p.p.p.m.p.p.p.p.Z.p.F.a.p.*.",
"%.p.p.!.p.p.!.p.p.p.p.p.p.p.p.V.`.n.G.n.I.p.p.p.Q.i.a.Q.a.p.p.p.p.p.i./.~.`.B.G.V.I.p.p.p.!.p.a.M.a.p.p.p.p.p.p.p.V.`.S.F.B.I.*.",
"%.p.p.p.p.p.C.p.I.U.m.p.b.J.C.p.a.F.D.S.F.p.p.p.i.i.m.C.m.I.Y./.7XxXVXHXVX3XG.G.H.F.p.p.p.a.i.a.V.m.Z.W.b.i.m.S.C.p.p.G.S.F.S.*.",
"%.p.p.B.p.V.`.S.p.I.E.b.G.C.V.p.a.F.F.B.b.a.p.p.B.i.a.wXrXtXDXJXJXHXNXHXJXFXxXK.B.M.p.a.p.n.p.a.W.J.p.I.W.M.G.H.V.p.p.F.G.n.M.*.",
"t.W.b.G.b.p.p.b.T.a.S.S.B.a.b.V.m.a.a.p.a.Z.E.m.G.yXDXFXfX! FXFXJXlXH CXJXFXJXnX/.a.Z.W.b.G.b.p.p.m.G.b.n.F.F.p.V.C.p.p.a.p.i.*.",
"%.K.G.B.b.n.p.p.F.B.p.G.b.B.D.Z.i.a.i.U.V.i.J.L.xXFXFXFXfXH Y zXJXzXH Y jXFXJXJXFX7Xp.Z.G.B.b.B.p.a.S.S.p.G.b.b.G.Z.m.p.i.K.C.*.",
"%.i.S.S.p.G.p.p.a.S.p.F.p.T.b.C.b.a.`.I.a.i.a.bXJXJXJX1X,XvX;.y.+.+XbXW o.1XCX+.CXFXcXf.B.F.p.G.p.p.i.F.p.G.p.G.n.V.b.i.Y.Y.a.u.",
"%.a.p.p.p.b.p.p.p.p.p.n.p.n.a._.K.V.D.i.i.g.+X+X+X+X+Xo.y.eXxXy.R / eX-.T o.d.U NXFXFXVX3Xp.p.M.p.p.a.p.p.b.p.b.p.Y.U.n.F.p.i.&.",
"%.a.p.p.p.p.M.p.p.p.p.V.a.p.p.a.D.M.b.p.f.nXfX+XU R 1Xd.;.r.eX].:.:.e.0.-.T R U MXdXfXJXDXp.p.p.m.p.p.p.p.B.m.a.p.a.H.n.n.p.p.*.",
"%.a.m.p.p.p.p.p.b.P.p._.U.p.B.p.p.p.a.m.2XFXFXjXh.-.tX<Xh.:.e.e.0.:.0.w.:.-.;.U tXd.+XJXBXp.p.p.p.p.b.P.p.I.U.p.n.a.p.p.p.m.p.u.",
"%.p.a.V.I.p.p.G.'.V.p.a.D.B.'.i.p.a.i.m.7XJXNXzXfXH ;.tXtX3.e.e.0.:.:.w.:.:.-.U Y Y +XJXBXa.Y.a.p.G.`.C.p.a.J.n.W.a.p.m.p.a.p.u.",
"%.p.a.m.P.n.p.R.C.f.p.p.p.G.b.p.p.M.p.i.rXJX+XY U U ;.;.7.e.w.w.w.0.;.;.;.R U J ;.R +XJXnXb.P.B.p.U.Z.p.p.p.p.G.b.p.p.V.p.i.i.&.",
"%.p.P.U.m.F.p.F.gX;X$.i.p.J.p.p.m.i.m.I.hXJXJX1XT :.:.c s s s y s s s s s s d k U fXJXJXnXY.a.D.p.F.p.G.Y.m.p.F.p.p.p.a.p.Y.i.*.",
"%.p.p.I.'.n.p.G.rXtX% r g.a.p.p.W.M.n.n.cXJXJXtXJ p p h k j k d [.iXVXMXiX%X%X%Xx sXJXJXxXI.`.J.p.G.G.I.p.a.m.p.p.p.U.n.n.n.Z.*.",
"%.a.p.p.b.T.n.B.(.MX>X. M #X8XS.B.^.4X7XBXFXJX>X< * s d a a a y [.pXFXJXiXiXmX-Xp sXJXJXhXp.m.U.B.b.F.a.p.a.p.p.I.J.b.F.S.M.H.*.",
"%.m.p.Q.p.p.p.p.m.DXVX;X>  XOX@XDXJXJXFXJXJXtX[.X o 9 e c s s y z [.%X-X[.$X%X[.d dXJXJXyX!.p.p.p.p.p.p.p.p.a.a.i.m.F.a.i.b.m.*.",
"%.p.p.m.p.a.i.F.n.5XyXcXXXoX[.; 7XiX6XsXiX7Xn . . . W 3.>.f ..oXn i f ....c t t $XjXJXGXyXm.i.b.i.F.M.p.a.a.n.m.p.i.p.p.a.p.p.u.",
"%.a.J.V.U.b.F.S.p.a.U.B.G.n.g.u.$.r v n M M h . . . / 6.6.X.v.SXiXf ! v.z.+.d X MXJXFXJXxX3X).b.G.S.p.p.J.H.F.n.p.!.a.m.T.a.b.N.",
"%.a.`.V.K.M.H.g.4X5XV.G.b.F.a.E.Z.p.G.^.rXnX[.- > . l./ y.0X9XSXpX|.z.qXv.}.{.. MXGXJXFXFXFXFXMXcXyX8X~.M.G.m.D.i.K.J.p.S.S.F.*.",
"%.p.p.K.F.b.H.#.dXJXZXvX(.G.G.!.3XyXbXdX      *XcX  / / j.z.1.q.].0XqXqXqX<Xj.. MXFXHXFXFXHXHXHXJXFXFXFXAXvXyXwX^.S.a.m.i.F.G.*.",
"%.!.i.b.m.p.m.n.=.; b JXJXnXnXFXFXm ; ; . X X + > X $ $ w j.0X0XqXqXqXqXy.^ / . ; > > > > > >  XFXJXFXJXFXJXJXJXFXBXcXyX5XQ.G.*.",
"%.p.p.p.p.p.i.i.p.=.; M M M M M M > X . X g g g g g O   $ 7 k.9XtX1XSXCX<X/ 6 . , g h h g g ; , M M M M M M m m M M M M aXHX7X*.",
"%.p.p.p.p.a.^.p.p.p.&X7X> X X ; >XaX X+ , l l l l l , - = , w k.,X<XvXqXd.w O , j j l l l l g , , , , , , , O W k.h.c.y.d.:X/.*.",
"%.p.p.!.p.p.p.p.C.b.f.bX=X&X*X%X;X:X X, l l g 8 , l l , > , . w ^ X.d.@.7 . O , , j l j , , , g l l l l j , t.x.z.<XqX<Xo.m W.*.",
"%.p.p.p.p.V.U.p.Z.'.b.3XJXJXBXaX- ; p l q h =   O , j l g ; . . + - . . . . X . . > p q . . X = g g g g p . v.v.z.l.<X9Xy.r !.*.",
"u.a.p.F.p.p.I.D.B.C.W.V.DXVX:X= l l j q   6 q q q . j l l j + X > h . + o X X X . q l l l l > . . . . X X . @.@./ Y / j.o.*.M.*.",
"u.W.b.K.b.p.p.p.G.a.m.G.bXOX; l l l > . % z.v.0X8XX j j l l k = 8 g X k ; . X O O iXJXJXGXHX=XO O O O O O O O X.l./ O o :XrXi.*.",
"%.b.T.n.p.G.p.p.S.F.a.G.7XOX; l l - X v 0X0Xc.j.z.9Xq , l l k = > h X o X . x DXVXGXGXJXJXGXGXVXVXDXAXAXAXZXVXOX$ > NXDXFX(.Z.*.",
"%.p.b.B.p.D.p.p.p.n.p.F.a.XXo + + o ~ x.qXk.l.l.j.v.6 O = = = O , g X V 1 .XMXFXJXJXFXJXJXFXJXFXFXFXJXJXFXJXJXMXmXMXFXFXZXJ.i.*.",
"%.p.p.p.a.a.p.p.p.p.a.p.a.6X&X. X X Q j.x.z.j.{ E Q C ;.7.:.7.` Q g X A 1 *XHXFXJXgXcXcXBXFXJXJXFXJXJXFXFXFXVXbXxXyXwX(.^.i.p.*.",
"%.a.Q.p.p.p.m.p.p.a.p.P.b./.yX-X-Xj 6 W { l.^ 7 7 T ` 8.w.5.8.] Q g . A 1 &XHXHXxXa.p.i.Q.i.g./.5X7XyX5X2X).M.i.p.p.b.m.b.i.p.*.",
"%.p.p.p.a.p.p.b.D.I.p.P.E.a.H.7XZX=XoXs.W W 6 7 T 5.5.q.w.5.<.! 0 8 2 N O.aXHXFX/.p.!.i.i.i.V.p.p.m.J.Y.a.C.W.m.J.a.p.p.p.Q.a.u.",
"%.p.p.C.W.p.i.E.W.a.p.p.n.F.U.p.g.uXDXkXb b > Y 2.q.e.w.q.0.[ } , 1 A o dXHXHXxXp.p.p.p.p.V.'.a.i.E.`.b.p.p.b.F.U.a.p.V.p.p.p.*.",
"%.p.m.m.m.F.a.G.a.m.m.p.a.F.m.p.i.m./.cXJXFX X2 K ,.,.2.' G D q > 1 A o dXJXFX2XV.p.p.p.a.a.V.D.p.G.m.a.V.i.p.G.a.p.p.a.p.m.p.*.",
"%.p.Z.`.J.B.p.F.V.W.U.p.p.n.i.p.J.p.m.K.cXFXM . + l F 4.e.e.,.} > 1 Z @ dXFXVXp.U.p.p.p.Z.'.P.B.a.F.b.W.P.M.p.B.a.p.Z.p.p.W.p.*.",
"%.p.p.Z.Y.K.m.G.R.V.i.m.Q.a.m.i.K.H.H.Q.FXJX}.o o + # e v v v l > @ # X dXFXFX4Xm.I.p.p.p.V.I.R.a.G.G.Z.p.m.a.p.a.a.K.D.S.m.I.*.",
"%.a.p.p.i.G.b.m.b.a.a.i.p.p.P.S.B.M.B.cXJX.XL T ) B @ = ; ; ; ; + . X . dXJXJXuXB.B.p.m.p.p.a.B.B.a.n.p.p.p.i.p.A.F.B.B.B.B.B.*.",
"%.a.p.~.i.i.p.i.i.i.p.a.m.p.p.a.b.p.rXMX%XN A ) 2.3.R H 4 N R C N 4 N o dXJXJXbXm.p.p.p.p.!.p.a.i.i.a.p.p.p.a.p.p.a.b.p.p.p.p.*.",
"%.p.p.a.b.b.m.G.b.p.b.p.F.i.a.m.m.3XkX=Xn ,X,X+.] 4.5.] ( G ,.K V S S 2 *XjXJXFXf.p.U.p.p.a.b.i.m.F.B.p.b.a.F.a.p.V.p.a.B.p.p.N.",
"%.V.W.Z.W.b.G.b.a.p.Y.S.F.H.i.m./.SX=Xp $XlXzX1X+. .6.5._ G ,.7 4 G I S 3 XXkXJX5XH.V.p.W.n.'.n.T.B.i.p.I.F.S.F.p.m.p.b.G.a.B.u.",
"%.p.P.V.F.n.S.m.Y.a.p.W.p.G.n.W.ZXAX&X> > > > &XMX%XP ) _ F [ 7 4 I [ D S N x NXxXF.i.i.C.J.B.B.D.a.I.V.p.R.b.G.M.E.C.a.C.G.G.*.",
"%.p.a.G.S.i.F.G.Z.p.p.K.n.D.F.cXFXn -XFXJXFXFX>X    %X+.N @ A < 4 B   Z S S V   jXR.p.p.p.F.H.p.B.G.J.p.p.Z.F.B.F.n.p.a.a.B.G.*.",
"%.V.p.p.p.p.p.p.p.p.p.p.H.p.7XVX, C P | | | | +.%X%Xp $ @ . # B 3 1 Z A ' [ ] Z 8 i.p.!.p.p.p.p.p.p.p.p.p.p.n.a.p.p.p.p.p.i.B.*.",
"%.p.p.p.p.p.p.p.p.p.p.m.i.3XdXM B _ 4.9.9.] I P  . .$ &XjXdX  < 4 V S ] [ ' I A # #Xa.p.p.p.p.p.p.p.p.p.p.m.p.p.p.p.p.p.n.a.a.*.",
"%.p.p.m.p.a.^.p.p.p.p.p./.1XXX` 4.8.q.w.5.<.( A Z 3 =XMXnXDX>X1X}.2 A ) ) ) _ _ C s.u.p.p.Q.p.a.^.p.p.p.p.p.p.p.p.V.`.n.G.b.C.*.",
"%.p.p.V.p.p.p.p.P.B.p.f.#XO.T 1.9.8.8.5.,._ K V L &XDXyXp.(.xXFX&X# N N V ( _ _ G 3 $.p.p.m.p.p.i.p.A.J.p.p.p.b.m.p.C.G.F.G.U.*.",
"%.p.p.m.p.V.`.m.p.`.F.xXp H ) 1.<.<.[ ] ' D Z } oXJXxX`.B.p.wXjXXX@ 1 1 V S S S S 2  XQ.p.m.i.m.'.C.p.`.G.m.F.U.A.a.p.G.S.n.V.*.",
"u.Z.p.G.p.p.C.S.D.V.wXBXq ` 2.2.<.,.) S A V 0 -XFXhXa.C.J.^.DXn @ 1 A S G G G D Z 0 OXuXp.F.p.p.C.C.S.V.U.n.G.i.p.p.i.b.n.m.b.*.",
"&.`.S.G.M.m.i.a.S.2XjX  ] 9.e.e.1.I S S A + dXFXxXM.b.a.a.rXFXn 4 A S S ' 1.] A # aXFXZXF.F.B.b.p.p.S.B.i.G.B.b.G.Y.m.a.p.m.m.*.",
"%.a.G.S.p.F.p.p.!.:X9 Z ,.,.5.e.<.I S V @ MXFXcXH.a.F.i.p.hX> C A I ,.,.( G G A # aXFXFX(.D.i.K.p.p.b.G.p.D.i.G.C.p.p.p.P.`.V.*.",
"%.p.p.p.p.F.p.i.cX>X6 ] 9.e.8.2.I G S Z o VXxXa.a.p.F.i.g.NX  V S G I I ' ) Z 1 sXVXAX5Xp.m.p.B.p.p.p.p.p.S.p.S.a.W.J.n.G.b.p.u.",
"%.p.p.p.p.p.a.yXJX>X< ) 4.5.2.) S S N c sXhXp.p.p.p.p.a.rXVX  1 2 4 S A I K c aXFXnX/.p.p.a.p.p.m.p.p.p.p.p.p.p.i.V.E.V.B.p.i.&.",
"%.m.V.p.p.p.2XFXaX.X8 4 T ` ( S S N O.aXhXa.p.V.p.p.p.a.bXVX  . . # 4 4 4 O.;XFXhXf.a.a.!.p.p.p.p.p.m.V.p.Y.D.p.m.a.a.a.a.a.p.u.",
"%.p.p.m.Z.g.BXFX X; , ; ; 5 B B N O.dXgXa.V.p.p.m.!.p.g.FXVX  * * & . .XXXiXFXyXm.p.M.i.p.a.A.p.p.B.U.Y.p.V.E.b.W.p.p.p.p.m.i.u.",
"%.p.p.V.Y.xXFXkXm . + g j l x b x kXyXp.p.p.p.p.V.`.b.7XVXjX& t y t X kXmXVXFXnXp.p.p.p.p.m.'.b.p.G.Y.p.p.p.a.G.S.p.p.!.p.p.i.&.",
"%.p.Z.(.xXVXVX; X X . X X aXJXFXFXyXp.Z.p.p.p.Z.C.p.G.yXsXX s & . X . . . OXFXVXhXp.p.p.C.B.p.G.p.K.p.B.P.a.p.G.p.p.p.p.p.J.i.*.",
"%.Q.uXDX-X: d l k p t   mXFXFXJXuXa.M.G.a.p.p.a.`.W.n./.aXX u u s u u u u t - - MX7Xa.p.a.`.`.V.p.F.S.`.C.p.p.b.p.p.I.a.a.K.a.*.",
"%.xXJXs.j j l l p d y   NXJXJXrXn.F.F.b.I.p.p.p.p.Z.E.b.@XX & & t s s s 9 / j.^ c dX3Xp.p.p.Z.R.b.S.G.p.p.a.m.p.C.B.B.G.D.b.I.*.",
"%.7X:X} X.X.w c.x.} & . MXFX7XS.D.b.M.n.b.p.V.p.p.p.m.b.p.sXdXdX.X* * * $ 7 E 0 O aXnXm.p.p.p.m.m.i.m.a.p.p.p.p.V.C.D.b.b.n.B.*.",
"%.2X.Xw Q Q 6 d.o.w q -XAX5Xi.a.p.p.i.p.p.b.p.p.!.p.p.p.B.cXJXFXjX;X;X-X:X;X;X;X;XcX5Xp.p.!.p.p.a.n.m.p.p.p.b.p.p.p.p.p.i.i.i.u.",
"%.a.=XOXOXOXOXOXOXOX&XFXwXi.p.!.p.b.G.p.m.I.p.p.a.B.b.B.G./.yXxXxXcXbXnXBXBXDXFXFXxXI.a.p.b.B.m.n.F.b.p.B.b.S.a.p.!.p.b.F.i.i.N.",
"%.m.bXJXJXDXnXbXxXrXrX(.M.G.p.H.V.p.G.b.G.p.V.`.C.`.B.G.a.C.V.P.G.B.G.i.Z.V.i.G.b.K.i.a.`.C.W.n.T.m.C.p.A.G.B.G.p.C.V.p.F.b.G.*.",
"%.p./.4X^.B.B.V.Y.b.p.`.b.R.F.R.m.m.n.F.J.p.p.V.S.S.B.B.V.I.p.i.'.n.G.G.G.V.m.M.F.G.p.p.V.D.B.B.F.m.Y.a.p.'.B.G.D.G.m.M.b.F.G.*.",
"%.m.b.G.b.a.B.G.b.a.a.b.n.b.M.p.p.p.p.n.G.p.m.p.S.n.p.B.G.b.p.i.m.F.b.b.a.p.p.i.V.G.p.m.p.S.B.p.n.G.V.p.p.m.B.b.B.p.p.p.a.m.T.*."
};
