/* XPM */
static char *_4d19c98b82a4900b77cbf4f9a9c4b54NADgCQxAt7zsGGro[] = {
/* columns rows colors chars-per-pixel */
"64 64 114 2 ",
"   c #000000",
".  c #171702",
"X  c #0D0F17",
"o  c #0E1019",
"O  c #2F2E03",
"+  c #3A3A04",
"@  c #161A2A",
"#  c #553A10",
"$  c #535305",
"%  c #655805",
"&  c #695E13",
"*  c #765115",
"=  c #6A6A05",
"-  c #7A7706",
";  c #74562B",
":  c #7B5E3D",
">  c #232B47",
",  c #242B48",
"<  c #2E375E",
"1  c #2E3861",
"2  c #343E6C",
"3  c #35406F",
"4  c #394576",
"5  c #3D497E",
"6  c gray26",
"7  c #594F50",
"8  c #59535E",
"9  c #515979",
"0  c #676767",
"q  c #686B75",
"w  c #895C18",
"e  c #96671A",
"r  c #9F6C1C",
"t  c #A26E1C",
"y  c #B77D1E",
"u  c #846235",
"i  c #8C8906",
"p  c #A28E07",
"a  c #AB9405",
"s  c #B49C05",
"d  c #BF8E15",
"f  c #BBA205",
"g  c #B8A624",
"h  c #CB9916",
"j  c #DBAF10",
"k  c #EEAB1F",
"l  c #F4BB14",
"z  c #F1B21A",
"x  c #D18F23",
"c  c #E39C27",
"v  c #EA9F25",
"b  c #EAA025",
"n  c #E6C605",
"m  c #F7C30E",
"M  c #F8C50D",
"N  c #F9CB09",
"B  c #F5D204",
"V  c #FED603",
"C  c #FFD801",
"Z  c #F6C010",
"A  c #F7D718",
"S  c #FEDD1F",
"D  c #FCE201",
"F  c #FAEB00",
"G  c #F7F700",
"H  c #F8F500",
"J  c #F7F800",
"K  c #F8F800",
"L  c #FDE132",
"P  c #FBEA32",
"I  c #FDE13B",
"U  c #F9F930",
"Y  c #CABE68",
"T  c #FDE741",
"R  c #FDE553",
"E  c #EFDE64",
"W  c #FDE96D",
"Q  c #FAF663",
"!  c #FAFA6C",
"~  c #FEEB76",
"^  c #F7F875",
"/  c #FAFA73",
"(  c #43518C",
")  c #545D84",
"_  c #75798C",
"`  c #7C7F8E",
"'  c #4D5EA3",
"]  c #5465AF",
"[  c #5466B0",
"{  c #566ABA",
"}  c #596DBD",
"|  c #5D71C4",
" . c #5F74CA",
".. c #6176CE",
"X. c #647AD5",
"o. c #647BD8",
"O. c #687FDD",
"+. c #6B82E4",
"@. c #7189EF",
"#. c #728CF7",
"$. c #898989",
"%. c #939393",
"&. c #BDB584",
"*. c #ABABAB",
"=. c #FBFB92",
"-. c #FDF099",
";. c #FCFBAC",
":. c #C3C3C3",
">. c #FDF6C4",
",. c #FDFDCE",
"<. c #FDF9DE",
"1. c #E1E1E1",
"2. c #FDFDE4",
"3. c #FEFEFE",
/* pixels */
"#.#.#.#.#.#.#.#.#.#.#.#.#.#.#.#.#.#.#.#.#.#.#.#.#.#.#.#.#.#.#.#.#.#.#.#.#.#.#.#.#.#.#.#.#.#.#.#.#.#.#.#.#.#.#.#.#.#.#.#.#.#.#.#.",
"#.#.#.#.#.#.#.#.#.#.#.#.#.#.#.#.#.#.#.#.#.#.#.#.#.#.#.#.#.#.#.#.#.#.#.#.#.#.#.#.#.#.#.#.#.#.#.#.#.#.#.#.#.#.#.#.#.#.#.#.#.#.#.#.",
"#.#.#.#.#.#.#.#.#.#.#.#.#.#.#.#.#.#.#.#.#.#.#.#.#.#.#.#.#.#.#.#.#.#.#.#.#.#.#.#.#.#.#.#.#.#.#.#.#.#.#.#.#.#.#.#.#.#.#.#.#.#.#.#.",
"#.#.#.#.#.#.#.#.#.#.#.#.#.#.#.#.#.#.#.#.#.#.#.#.#.#.#.#.#.#.#.#.#.#.#.#.#.#.#.#.#.#.#.#.#.#.#.#.#.#.#.#.#.#.#.#.#.#.#.#.#.#.#.#.",
"#.#.#.#.#.#.#.#.#.#.#.#.#.#.#.#.#.#.#.#.#.#.#.#.#.#.#.#.#.#.#.#.#.#.#.#.#.#.#.#.#.#.#.#.#.#.#.#.#.#.#.#.#.#.#.#.#.#.#.#.#.#.#.#.",
"#.#.#.#.#.#.#.#.#.#.#.#.#.#.#.#.#.#.#.#.#.#.#.#.#.#.#.#.#.#.#.#.#.#.#.#.#.#.#.#.#.#.#.#.#.#.#.#.#.#.#.#.#.#.#.#.#.#.#.#.#.#.#.#.",
"#.#.#.#.#.#.#.#.#.#.#.#.#.#.#.#.#.#.#.#.#.#.#.#.#.#.#.#.#.#.#.#.#.#.#.#.#.#.#.#.#.#.#.#.#.#.#.#.#.#.#.#.#.#.#.#.#.#.#.#.#.#.#.#.",
"#.#.#.#.#.#.#.#.#.#.#.#.#.#.#.#.#.#.#.#.#.#.#.#.#.#.#.#.#.#.#.#.#.#.#.#.#.#.#.#.#.#.#.#.#.#.#.#.#.#.#.#.#.#.#.#.#.#.#.#.#.#.#.#.",
"#.#.#.#.#.#.#.#.#.#.#.#.#.#.#.#.#.#.#.#.#.#.#.#.#.#.#.#.#.#.#.#.#.#.#.#.#.#.#.#.#.#.#.#.#.#.#.#.#.#.#.#.#.#.#.#.#.#.#.#.#.#.#.#.",
"#.#.#.#.#.#.#.#.#.#.#.#.#.#.#.#.#.#.#.#.#.#.#.#.#.#.#.#.#.#.#.#.#.#.#.#.#.#.#.#.#.#.#.#.#.#.#.#.#.#.#.#.#.#.#.#.#.#.#.#.#.#.#.#.",
"#.#.#.#.#.#.#.#.#.#.#.#.#.#.#.#.#.#.#.#.#.#.#.#.#.#.+.X.X.X.X.X.X.X.o.o.X.O.#.#.#.#.#.#.#.#.#.#.#.#.#.#.#.#.#.#.#.#.#.#.#.#.#.#.",
"#.#.#.#.#.#.#.#.#.#.#.#.#.#.#.#.#.#.#.#.#.#.#.#.#.#.<                     > #.#.#.#.#.#.#.#.#.#.#.#.#.#.#.#.#.#.#.#.#.#.#.#.#.#.",
"#.#.#.#.#.#.#.#.#.#.#.#.#.#.#.#.#.#.#.#.#.#.#.#.#.#.<                     , #.#.#.#.#.#.#.#.#.#.#.#.#.#.#.#.#.#.#.#.#.#.#.#.#.#.",
"#.#.#.#.#.#.#.#.#.#.#.#.#.#.#.#.#.#.#.#...5 5 5 5 5 _ $.$.$.$.$.$.$.$.$.$.` 5 5 5 5 5 | #.#.#.#.#.#.#.#.#.#.#.#.#.#.#.#.#.#.#.#.",
"#.#.#.#.#.#.#.#.#.#.#.#.#.#.#.#.#.#.#.#.'           *.3.3.3.3.3.3.3.3.3.3.:.          ( #.#.#.#.#.#.#.#.#.#.#.#.#.#.#.#.#.#.#.#.",
"#.#.#.#.#.#.#.#.#.#.#.#.#.#.#.#.#.#.#.#.'           *.3.3.3.3.3.3.3.3.3.3.:.          ( #.#.#.#.#.#.#.#.#.#.#.#.#.#.#.#.#.#.#.#.",
"#.#.#.#.#.#.#.#.#.#.#.#.#.#.#.#.#...@ @ q 1.1.1.1.1.R S S S S S S S S S S A j n j x x ; @ @ | #.#.#.#.#.#.#.#.#.#.#.#.#.#.#.#.#.",
"#.#.#.#.#.#.#.#.#.#.#.#.#.#.#.#.#.|     0 3.3.3.3.3.R V V V C C C C C V C C C C m v v *     [ #.#.#.#.#.#.#.#.#.#.#.#.#.#.#.#.#.",
"#.#.#.#.#.#.#.#.#.#.#.#.#.#.#.#.#.|     0 3.3.<.>.>.T D D L I I I I L D F C C C m v v *     [ #.#.#.#.#.#.#.#.#.#.#.#.#.#.#.#.#.",
"#.#.#.#.#.#.#.#.#.#.#.#.#.#.#.#.#.|     0 3.3.~ C C F K G ,.3.3.3.3.2.K K H C C m v v *     [ #.#.#.#.#.#.#.#.#.#.#.#.#.#.#.#.#.",
"#.#.#.#.#.#.#.#.#.#.#.#.#.#.#.#.#.|     0 3.3.~ C C F K G ,.3.3.3.3.2.G G H C C m b b *     [ #.#.#.#.#.#.#.#.#.#.#.#.#.#.#.#.#.",
"#.#.#.#.#.#.#.#.#.#.#.#.#.#.#.4 4 ) %.%.&.W W P F F Q =.=./ ! ! W W E = = i F F V Z Z d w w 8 4 4 @.#.#.#.#.#.#.#.#.#.#.#.#.#.#.",
"#.#.#.#.#.#.#.#.#.#.#.#.#.#.@.    6 3.3.-.C C F K G ;.3.3.U K K C C n     + J G F C V l v v #     o.#.#.#.#.#.#.#.#.#.#.#.#.#.#.",
"#.#.#.#.#.#.#.#.#.#.#.#.#.#.#.    6 3.3.-.V V F G G ;.3.3.U G G C C n     + J G F C C l v b #     o.#.#.#.#.#.#.#.#.#.#.#.#.#.#.",
"#.#.#.#.#.#.#.#.#.#.#.#.#.#.@.    6 3.3.-.V C F H K ;.3.3.U G H C C n     + K J F C C l b b #     o.#.#.#.#.#.#.#.#.#.#.#.#.#.#.",
"#.#.#.#.#.#.#.#.#.#.#.#.#.#.@.    6 3.3.-.C C F K H ;.3.3.U G K C C n     + K K F C C l b b #     o.#.#.#.#.#.#.#.#.#.#.#.#.#.#.",
"#.#.#.#.#.#.#.#.#.#.#.#.#.#.@.    6 3.3.-.V V F K G ;.3.3.U K K C C n     + K K F V C l b b #     o.#.#.#.#.#.#.#.#.#.#.#.#.#.#.",
"#.#.#.#.#.#.#.#.#.#.#.#.#.#.#.    6 3.3.-.V V F K K ;.3.3.U K K C C n     + K J F C C l b b #     o.#.#.#.#.#.#.#.#.#.#.#.#.#.#.",
"#.#.#.#.#.#.#.#.#.#.#.#.#.#.#.    6 3.3.-.C V F G K ;.3.3.U K H C C n     + K G H V C l b v #     o.#.#.#.#.#.#.#.#.#.#.#.#.#.#.",
"#.#.#.#.#.#.#.#.#.#.#.#.#.#.@.    6 3.3.-.C V F G K ;.3.3.U K K C C n     + K K F C C l v v #     o.#.#.#.#.#.#.#.#.#.#.#.#.#.#.",
"#.#.#.#.#.#.#.#.#.#.#.#.#.#.#.    6 3.3.-.C C F K G ;.3.3.U K G D C n     + K K F C V l v v #     o.#.#.#.#.#.#.#.#.#.#.#.#.#.#.",
"#.#.#.#.#.#.#.#.#.#.#.#.#.#.#.    6 3.3.-.V C F K G ;.3.3.U G H C C n     + K G F C V l v v #     o.#.#.#.#.#.#.#.#.#.#.#.#.#.#.",
"#.#.#.#.#.#.#.#.#.#.#.#.#.#.@.    6 3.3.-.V V F K K ;.3.3.U K K C C n     + K K F V C l b b #     o.#.#.#.#.#.#.#.#.#.#.#.#.#.#.",
"#.#.#.#.#.#.#.#.#.#.#.#.#.#.@.    6 3.3.-.V V F K G ;.3.3.U G K C C n     + K K F C C l b b #     o.#.#.#.#.#.#.#.#.#.#.#.#.#.#.",
"#.#.#.#.#.#.#.#.#.#.#.#.#.#.@.    6 3.3.-.C V F K K ;.3.3.U K H C C n     + K K F C C l b b #     o.#.#.#.#.#.#.#.#.#.#.#.#.#.#.",
"#.#.#.#.#.#.#.#.#.#.#.#.#.#.#.    6 3.3.-.C V F K K ;.3.3.U H H C C n     + K J F C C l b b #     o.#.#.#.#.#.#.#.#.#.#.#.#.#.#.",
"#.#.#.#.#.#.#.#.#.#.#.#.#.#.@.    6 3.3.-.C C F K K ;.3.3.U H H C C n     + J K F C C l b b #     o.#.#.#.#.#.#.#.#.#.#.#.#.#.#.",
"#.#.#.#.#.#.#.#.#.#.#.#.#.#.@.    6 3.3.-.C V F G K ;.3.3.P F D C C n     + J K F C C l b b #     o.#.#.#.#.#.#.#.#.#.#.#.#.#.#.",
"#.#.#.#.#.#.#.#.#.#.#.#.#.#.#.    6 3.3.-.C V F G G ;.3.3.L C V C C n     + K G F C C l b b #     o.#.#.#.#.#.#.#.#.#.#.#.#.#.#.",
"#.#.#.#.#.#.#.#.#.#.#.#.#.#.@.    6 3.3.-.C V F G G ;.3.3.L C C C C n     + K G F C C l v v #     o.#.#.#.#.#.#.#.#.#.#.#.#.#.#.",
"#.#.#.#.#.#.#.#.#.#.#.#.#.#.@.    6 3.3.-.C C F K K ;.3.3.L C C C C n     + H G F C C l b b #     o.#.#.#.#.#.#.#.#.#.#.#.#.#.#.",
"#.#.#.#.#.#.#.#.#.#.#.#.#.#.@.    6 3.3.-.V V F K K ;.3.3.L C V C C n     + K K F C C l b b #     o.#.#.#.#.#.#.#.#.#.#.#.#.#.#.",
"#.#.#.#.#.#.#.#.#.#.#.#.#.#.#.1 1 9 *.*.Y C C F K K ^ ;.;.g a a a a p $ $ - F H D M M h t t 7 1 1 +.#.#.#.#.#.#.#.#.#.#.#.#.#.#.",
"#.#.#.#.#.#.#.#.#.#.#.#.#.#.#.#.#.|     % V V F K G G G K O         . K G H C C Z b b *     [ #.#.#.#.#.#.#.#.#.#.#.#.#.#.#.#.#.",
"#.#.#.#.#.#.#.#.#.#.#.#.#.#.#.#.#.|     % C C F K G G G K O         . K H H V C Z b b *     [ #.#.#.#.#.#.#.#.#.#.#.#.#.#.#.#.#.",
"#.#.#.#.#.#.#.#.#.#.#.#.#.#.#.#.#.|     % V C C D D D D F f a a a a s F D V z z b b b *     [ #.#.#.#.#.#.#.#.#.#.#.#.#.#.#.#.#.",
"#.#.#.#.#.#.#.#.#.#.#.#.#.#.#.#.#.|     % C C C V C C V V V C C C C C C V N b b b b b *     { #.#.#.#.#.#.#.#.#.#.#.#.#.#.#.#.#.",
"#.#.#.#.#.#.#.#.#.#.#.#.#.#.#.#.#. .o X & B B B B B V V V V V V C V V V V M c c b b c ; o o { #.#.#.#.#.#.#.#.#.#.#.#.#.#.#.#.#.",
"#.#.#.#.#.#.#.#.#.#.#.#.#.#.#.#.#.#.#.#.]           t k b b b b b b b b b y           ( #.#.#.#.#.#.#.#.#.#.#.#.#.#.#.#.#.#.#.#.",
"#.#.#.#.#.#.#.#.#.#.#.#.#.#.#.#.#.#.#.#.'           t v b v b b b b b v b y           ( #.#.#.#.#.#.#.#.#.#.#.#.#.#.#.#.#.#.#.#.",
"#.#.#.#.#.#.#.#.#.#.#.#.#.#.#.#.#.#.#.#...2 2 3 2 2 : r e e e e e e e e e u 2 2 3 3 4 } #.#.#.#.#.#.#.#.#.#.#.#.#.#.#.#.#.#.#.#.",
"#.#.#.#.#.#.#.#.#.#.#.#.#.#.#.#.#.#.#.#.#.#.#.#.#.#.1                     > #.#.#.#.#.#.#.#.#.#.#.#.#.#.#.#.#.#.#.#.#.#.#.#.#.#.",
"#.#.#.#.#.#.#.#.#.#.#.#.#.#.#.#.#.#.#.#.#.#.#.#.#.#.<                     > #.#.#.#.#.#.#.#.#.#.#.#.#.#.#.#.#.#.#.#.#.#.#.#.#.#.",
"#.#.#.#.#.#.#.#.#.#.#.#.#.#.#.#.#.#.#.#.#.#.#.#.#.#.X.{ { { } { { { { { { ..#.#.#.#.#.#.#.#.#.#.#.#.#.#.#.#.#.#.#.#.#.#.#.#.#.#.",
"#.#.#.#.#.#.#.#.#.#.#.#.#.#.#.#.#.#.#.#.#.#.#.#.#.#.#.#.#.#.#.#.#.#.#.#.#.#.#.#.#.#.#.#.#.#.#.#.#.#.#.#.#.#.#.#.#.#.#.#.#.#.#.#.",
"#.#.#.#.#.#.#.#.#.#.#.#.#.#.#.#.#.#.#.#.#.#.#.#.#.#.#.#.#.#.#.#.#.#.#.#.#.#.#.#.#.#.#.#.#.#.#.#.#.#.#.#.#.#.#.#.#.#.#.#.#.#.#.#.",
"#.#.#.#.#.#.#.#.#.#.#.#.#.#.#.#.#.#.#.#.#.#.#.#.#.#.#.#.#.#.#.#.#.#.#.#.#.#.#.#.#.#.#.#.#.#.#.#.#.#.#.#.#.#.#.#.#.#.#.#.#.#.#.#.",
"#.#.#.#.#.#.#.#.#.#.#.#.#.#.#.#.#.#.#.#.#.#.#.#.#.#.#.#.#.#.#.#.#.#.#.#.#.#.#.#.#.#.#.#.#.#.#.#.#.#.#.#.#.#.#.#.#.#.#.#.#.#.#.#.",
"#.#.#.#.#.#.#.#.#.#.#.#.#.#.#.#.#.#.#.#.#.#.#.#.#.#.#.#.#.#.#.#.#.#.#.#.#.#.#.#.#.#.#.#.#.#.#.#.#.#.#.#.#.#.#.#.#.#.#.#.#.#.#.#.",
"#.#.#.#.#.#.#.#.#.#.#.#.#.#.#.#.#.#.#.#.#.#.#.#.#.#.#.#.#.#.#.#.#.#.#.#.#.#.#.#.#.#.#.#.#.#.#.#.#.#.#.#.#.#.#.#.#.#.#.#.#.#.#.#.",
"#.#.#.#.#.#.#.#.#.#.#.#.#.#.#.#.#.#.#.#.#.#.#.#.#.#.#.#.#.#.#.#.#.#.#.#.#.#.#.#.#.#.#.#.#.#.#.#.#.#.#.#.#.#.#.#.#.#.#.#.#.#.#.#.",
"#.#.#.#.#.#.#.#.#.#.#.#.#.#.#.#.#.#.#.#.#.#.#.#.#.#.#.#.#.#.#.#.#.#.#.#.#.#.#.#.#.#.#.#.#.#.#.#.#.#.#.#.#.#.#.#.#.#.#.#.#.#.#.#.",
"#.#.#.#.#.#.#.#.#.#.#.#.#.#.#.#.#.#.#.#.#.#.#.#.#.#.#.#.#.#.#.#.#.#.#.#.#.#.#.#.#.#.#.#.#.#.#.#.#.#.#.#.#.#.#.#.#.#.#.#.#.#.#.#.",
"#.#.#.#.#.#.#.#.#.#.#.#.#.#.#.#.#.#.#.#.#.#.#.#.#.#.#.#.#.#.#.#.#.#.#.#.#.#.#.#.#.#.#.#.#.#.#.#.#.#.#.#.#.#.#.#.#.#.#.#.#.#.#.#."
};
