/* XPM */
static char *_6bb78d9863344daaa7b524d0d6bca8aAI4Bt0pLCiaWpLsv[] = {
/* columns rows colors chars-per-pixel */
"64 64 101 2 ",
"   c #1E2119",
".  c #25271F",
"X  c #262720",
"o  c #3F4433",
"O  c #3F4534",
"+  c #424737",
"@  c #43493A",
"#  c #454A3B",
"$  c #454A3C",
"%  c #2F374C",
"&  c #454C45",
"*  c #464C45",
"=  c #474E48",
"-  c #4A514B",
";  c #485051",
":  c #4A5562",
">  c #686A61",
",  c #646D77",
"<  c #D93450",
"1  c #D93651",
"2  c #F73758",
"3  c #F73B5A",
"4  c #F73C5B",
"5  c #F73D5C",
"6  c #F73E5C",
"7  c #E9415C",
"8  c #F6405E",
"9  c #D24363",
"0  c #CA4970",
"q  c #DC4D7B",
"w  c #DD527E",
"e  c #EF4C65",
"r  c #E7416A",
"t  c #F44261",
"y  c #E44771",
"u  c #E84F75",
"i  c #E1517B",
"p  c #C96774",
"a  c #5F6C8A",
"s  c #64739C",
"d  c #6071A0",
"f  c #6273A1",
"g  c #6A7CB8",
"h  c #6C7EBB",
"j  c #6C7EBD",
"k  c #667BC8",
"l  c #647BD8",
"z  c #BB5285",
"x  c #BB5C8E",
"c  c #B36092",
"v  c #A469AE",
"b  c #A46CAF",
"n  c #B366A3",
"m  c #BF65A5",
"M  c #B468AE",
"N  c #B96CAD",
"B  c #AA71B8",
"V  c #CE588E",
"C  c #D75586",
"Z  c #D3598C",
"A  c #D35D8E",
"S  c #C96199",
"D  c #956EC0",
"F  c #8A7BD9",
"G  c #897EDC",
"H  c #9376D0",
"J  c #837EE1",
"K  c #6A81DC",
"L  c #6F87E8",
"P  c #7A85EB",
"I  c #7989EF",
"U  c #728CF7",
"Y  c #778DF5",
"T  c #758EF4",
"R  c #748DF7",
"E  c #788DF3",
"W  c #7B92F3",
"Q  c #7B93F3",
"!  c #7C93F3",
"~  c #7E95F3",
"^  c #AEACAF",
"/  c #AFADAF",
"(  c #B7A9A4",
")  c #B1AAAA",
"_  c #B0ACAF",
"`  c #B0ADAF",
"'  c #8880DF",
"]  c #8B80DE",
"[  c #8C84DE",
"{  c #8F9DDD",
"}  c #8D9CDE",
"|  c #8E9DDE",
" . c #909EDC",
".. c #909FDC",
"X. c #919FDC",
"o. c #909EDE",
"O. c #878BE7",
"+. c #8C8AE2",
"@. c #8087EA",
"#. c #8289E9",
"$. c #878BE8",
/* pixels */
"U U U U U U U U U U U U U U U U U U U U U U U U U U U U U P z 9 9 D R U U U U U U U U U U U U U U U U U U U U U U U U U U U U U ",
"U U U U U U U U U U U U U U U U U U U U U U U U U U U U U v 1 1 < 0 E U U U U U U U U U U U U U U U U U U U U U U U U U U U U U ",
"U U U U U U U U U U U U U U U U U U U U U U U U U U U U U b 1 < 1 0 E U U U U U U U U U U U U U U U U U U U U U U U U U U U U U ",
"U U U U U U U U U U U U U U U U U U U U U U U U U U U ' [ n 1 < 1 x E U U U U U U U U U U U U U U U U U U U U U U U U U U U U U ",
"U U U U U U U U U U U U U U U U U U U U U U U U U U [ y 3 6 7 p c ] U U U U U U U U U U U U U U U U U U U U U U U U U U U U U U ",
"U U U U U U U U U U U U U U U U U U U U U U U U U H i 8 6 6 e ( } U U U U U U U U U U U U U U U U U U U U U U U U U U U U U U U ",
"U U U U U U U U U U U U U U U U U U U U U U U U ] u 8 4 6 6 e ( } U U U U U U U U U U U U U U U U U U U U U U U U U U U U U U U ",
"U U U U U U U U U U U U U U U U U U U U U U ] N y 4 4 8 6 6 e ( } U U U U U U U U U U U U U U U U U U U U U U U U U U U U U U U ",
"U U U U U U U U U U U U U U U U U U U U U O.V 4 6 6 6 6 6 6 e ( } U U U U U U U U U U U U U U U U U U U U U U U U U U U U U U U ",
"U U U U U U U U U U U U U U U U U U U U #.q 8 4 6 6 6 6 6 6 e ( } U U U U U U U U U U U U U U U U U U U U U U U U U U U U U U U ",
"U U U U U U U U U U U U U U U U U U U G C 4 8 8 6 6 6 6 6 6 e ( } U U U U U U U U U U U U U U U U U U U U U U U U U U U U U U U ",
"U U U U U U U U U U U U U U U U U U #.Z 3 4 4 5 6 6 6 6 6 6 e ( } U U U U U U U U U U U U U U U U U U U U U U U U U U U U U U U ",
"U U U U U U U U U U U U U U U U U #.q 4 6 6 6 6 6 6 6 6 6 6 e ( } U U U U U U U U U U U U U U U U U U U U U U U U U U U U U U U ",
"U U U U U U U U U U U U U U U U F A 6 6 6 6 6 6 6 6 6 6 6 6 e ( ..U U U U U U U U U U U U U U U U U U U U U U U U U U U U U U U ",
"U U U U U U U U U U U U U U I #.Z 6 6 6 6 6 6 6 6 6 6 6 8 6 e ( ..U U U U U U U U U U U U U U U U U U U U U U U U U U U U U U U ",
"U U U U U U U U U U U U U U m t 8 6 6 6 6 6 6 6 6 6 6 6 4 8 e ( } U U U U U U U U U U U U U U U U U U U U U U U U U U U U U U U ",
"U U U U U U U U U U U U U J 2 3 5 3 4 5 5 5 5 5 5 5 5 8 5 5 e ( ..U U U U U U U U U U U U U U U U U U U U U U U U U U U U U U U ",
"U U U U U U U U U U U U U E $.$.O.$.+.C r r r r 3 5 5 5 4 8 e ( ..U U U U U U U U U U U U U U U U U U U U U U U U U U U U U U U ",
"U U U U U U U U U U U U U U U U U U U U R U R R M S S S S w e ( ..U U U U U U U U U U U U U U U U U U U U U U U U U U U U U U U ",
"U U U U U U U U U U U U U U U U U U U U U U U U U U U U U ] B ) ..U U U U U U U U U U U U U U U U U U U U U U U U U U U U U U U ",
"U U U U U U U U U U U U U U U U U U U U U U U U U U U U U U W ^ ..U U U U U U U U U U U U U U U U U U U U U U U U U U U U U U U ",
"U U U U U U U U U U U U U U U U U U U U U U U U U U U U U U ~ ^ ..U U U U U U U U U U U U U U U U U U U U U U U U U U U U U U U ",
"U U U U U U U U U U U U U U U U U U U U U U U U U U U U U U ~ ^ ..U U U U U U U U U U U U U U U U U U U U U U U U U U U U U U U ",
"U U U U U U U U U U U U U U U U U U U U U U U U U U U U U U W ^ ..U U U U U U U U U U U U U U U U U U U U U U U U U U U U U U U ",
"U U U U U U U U U U U U U U U U U U U U U U U U U U U U U U W ^ ..U U U U U U U U U U U U U U U U U U U U U U U U U U U U U U U ",
"U U U U U U U U U U U U U U U U U U U U U U U U U U U U U U W ^ ..U U U U U U U U U U U U U U U U U U U U U U U U U U U U U U U ",
"U U U U U U U U U U U U U U U U U U U U U U U U U U U U U U ! ^ ..U U U U U U U U U U U U U U U U U U U U U U U U U U U U U U U ",
"U U U U U U U U U U U U U U U U U U U U U U U U U U U U U U ! ^ } U U U U U U U U U U U U U U U U U U U U U U U U U U U U U U U ",
"U U U U U U U U U U U U U U U U U U U U U U U U U U U U U U W ^ ..U U U U U U U U U U U U U U U U U U U U U U U U U U U U U U U ",
"U U U U U U U U U U U U U U U U U U U U U U U U U U U U U U ~ ^ ..U U U U U U U U U U U U U U U U U U U U U U U U U U U U U U U ",
"U U U U U U U U U U U U U U U U U U U U U U U U U U U U U U ~ ^ ..U U U U U U U U U U U U U U U U U U U U U U U U U U U U U U U ",
"U U U U U U U U U U U U U U U U U U U U U U U U U U U U U U ~ ^ ..U U U U U U U U U U U U U U U U U U U U U U U U U U U U U U U ",
"U U U U U U U U U U U U U U U U U U U U U U U U U U U U U U ~ ^ ..U U U U U U U U U U U U U U U U U U U U U U U U U U U U U U U ",
"U U U U U U U U U U U U U U U U U U U U U U U U U U U U U U ~ _ ..U U U U U U U U U U U U U U U U U U U U U U U U U U U U U U U ",
"U U U U U U U U U U U U U U U U U U U U U U U U U U U U U U ~ _ o.U U U U U U U U U U U U U U U U U U U U U U U U U U U U U U U ",
"U U U U U U U U U U U U U U U U U U U U U U U U U U U U U U ~ _ ..U U U U U U U U U U U U U U U U U U U U U U U U U U U U U U U ",
"U U U U U U U U U U U U U U U U U U U U U U U U U U U U U U ! ^ o.U U U U U U U U U U U U U U U U U U U U U U U U U U U U U U U ",
"U U U U U U U U U U U U U U U U U U U U U U U U U U U U U U #._ ..U U U U U U U U U U U U U U U U U U U U U U U U U U U U U U U ",
"U U U U U U U U U U U U U U U U U U U U U U U U U U U U U U ! _ | U U U U U U U U U U U U U U U U U U U U U U U U U U U U U U U ",
"U U U U U U U U U U U U U U U U U U U U U U U U U U U U U U ~ _ ..U U U U U U U U U U U U U U U U U U U U U U U U U U U U U U U ",
"U U U U U U U U U U U U U U U U U U U U U U U U U U U U U U ~ _ | U U U U U U U U U U U U U U U U U U U U U U U U U U U U U U U ",
"U U U U U U U U U U U U U U U U U U U U U U U U U U U U U U ! ^ ..U U U U U U U U U U U U U U U U U U U U U U U U U U U U U U U ",
"U U U U U U U U U U U U U U U U U U U U U U U U U U U U U U ~ ^ | U U U U U U U U U U U U U U U U U U U U U U U U U U U U U U U ",
"U U U U U U U U U U U U U U U U U U U U U U U U U U U U U U ~ ^ ..U U U U U U U U U U U U U U U U U U U U U U U U U U U U U U U ",
"U U U U U U U U U U U U U U U U U U U U U U U U U U U U U U W ^ | U U U U U U U U U U U U U U U U U U U U U U U U U U U U U U U ",
"U U U U U U U U U U U U U U U U U U U U U U U U U U U U U U ~ ^ o.U U U U U U U U U U U U U U U U U U U U U U U U U U U U U U U ",
"U U U U U U U U U U U U U U U U U U U U U U U U U U U U U U ~ ^ o.U U U U U U U U U U U U U U U U U U U U U U U U U U U U U U U ",
"U U U U U U U U U U U U U U U U U U U U U U U U U U U U U U ~ ^ o.U U U U U U U U U U U U U U U U U U U U U U U U U U U U U U U ",
"U U U U U U U U U U U U U U U U U U U U U U U U U U U U U U ~ ^ o.U U U U U U U U U U U U U U U U U U U U U U U U U U U U U U U ",
"U U U U U U U U U U U U U U U U U U U U U U U U U U U U U U W ^  .U U U U U U U U U U U U U U U U U U U U U U U U U U U U U U U ",
"U U U U U U U U U U U U U U U U U U U U U U U U U U U U U U W ^ } U U U U U U U U U U U U U U U U U U U U U U U U U U U U U U U ",
"U U U U U U U U U U U U U U U U U U U U U U U U U U U U U U W ^ ..U U U U U U U U U U U U U U U U U U U U U U U U U U U U U U U ",
"U U U U U U U U U U U U U U U U U U U U U U U U U U U U U U ~ ^ ..U U U U U U U U U U U U U U U U U U U U U U U U U U U U U U U ",
"U U U U U U U U U U U U U U U U U U U U U U U U U U U U U U ~ ^ o.U U U U U U U U U U U U U U U U U U U U U U U U U U U U U U U ",
"U U U U U U U U U U U U U U U U U U U U U U U U U U U U U U ~ ^ o.U U U U U U U U U U U U U U U U U U U U U U U U U U U U U U U ",
"U U U U U U U U U U U U U U U U U U U U U U U U U U U U U U ~ ^  .U U U U U U U U U U U U U U U U U U U U U U U U U U U U U U U ",
"U U U U U U U U U U U U U U U U U U U U U U U U U U U U R R #._ o.U U U U U U U U U U U U U U U U U U U U U U U U U U U U U U U ",
"U U U U U U U U U U U U U U U U U U U U U U U U U U U f f R f > , l k a L U U U U U U U U U U U U U U U U U U U U U U U U U U U ",
"U U U U U U U U U U U U U U U U U U U U U U U U U U U : @ ; = # @ = * + l U U U U U U U U U U U U U U U U U U U U U U U U U U U ",
"U U U U U U U U U U U U U U U U U U U U U U U U U U R : $ $ # $ @ $ @ + K U U U U U U U U U U U U U U U U U U U U U U U U U U U ",
"U U U U U U U U U U U U U U U U U U U U U U U U U U U % . . . X X X X   l U U U U U U U U U U U U U U U U U U U U U U U U U U U ",
"U U U U U U U U U U U U U U U U U U U U U U U U U U U R - # $ $ $ @ $ h Y U U U U U U U U U U U U U U U U U U U U U U U U U U U ",
"U U U U U U U U U U U U U U U U U U U U U U U U U U U U = @ @ @ @ $ $ h U U U U U U U U U U U U U U U U U U U U U U U U U U U U ",
"U U U U U U U U U U U U U U U U U U U U U U U U U U U T & o + + + + + h U U U U U U U U U U U U U U U U U U U U U U U U U U U U "
};
