/* XPM */
static char *_795b7b3dc7a4fe08356ac409739c7c2ll49jWOCieFYHKVN[] = {
/* columns rows colors chars-per-pixel */
"64 64 186 2 ",
"   c #000000",
".  c #0E0302",
"X  c #060A05",
"o  c #090A07",
"O  c #050608",
"+  c #0C0C0A",
"@  c #1E0907",
"#  c #160A09",
"$  c #1C0B0A",
"%  c #071005",
"&  c #0A1308",
"*  c #111C0E",
"=  c #0D0E13",
"-  c #0E1016",
";  c #1A1714",
":  c #13151C",
">  c #200D0C",
",  c #2B0D09",
"<  c #3A130F",
"1  c #231916",
"2  c #381A16",
"3  c #12210F",
"4  c #1C3415",
"5  c #26231E",
"6  c #223B1B",
"7  c #171925",
"8  c #191B23",
"9  c #272225",
"0  c #212533",
"q  c #23273A",
"w  c #252939",
"e  c #541D17",
"r  c #5A1F1A",
"t  c #5B241D",
"y  c #66261E",
"u  c #6C251E",
"i  c #72271F",
"p  c #4F3835",
"a  c #6D2720",
"s  c #6C2D28",
"d  c #762820",
"f  c #6F3934",
"g  c #26431F",
"h  c #2E432F",
"j  c #32542C",
"k  c #366629",
"l  c #3A672E",
"z  c #3C702E",
"x  c #3E6C33",
"c  c #4A453E",
"v  c #50463E",
"b  c #77463D",
"n  c #417433",
"m  c #487D36",
"M  c #2E334C",
"N  c #2F3654",
"B  c #2D365C",
"V  c #303752",
"C  c #363C53",
"Z  c #323A5D",
"A  c #374E49",
"S  c #38465B",
"D  c #3B4366",
"F  c #3C4671",
"G  c #3D4873",
"H  c #4E4A41",
"J  c #524C44",
"K  c #5C4B43",
"L  c #56514C",
"P  c #55425A",
"I  c #764A40",
"U  c #634253",
"Y  c #645D53",
"T  c #686055",
"R  c #6E665A",
"E  c #7A6A5C",
"W  c #48576B",
"Q  c #414C7B",
"!  c #51547E",
"~  c #685879",
"^  c #496170",
"/  c #7C7366",
"(  c #6A6977",
")  c #777375",
"_  c #822D24",
"`  c #83342A",
"'  c #88342A",
"]  c #93352B",
"[  c #9B362B",
"{  c #A2392E",
"}  c #B43F32",
"|  c #914337",
" . c #AB483C",
".. c #B84537",
"X. c #C24435",
"o. c #CE4737",
"O. c #CB4838",
"+. c #D34635",
"@. c #D24837",
"#. c #D34D3B",
"$. c #D3503F",
"%. c #A4594C",
"&. c #AD6859",
"*. c #877567",
"=. c #867C6E",
"-. c #D35342",
";. c #D45947",
":. c #D35B4A",
">. c #DA5E4C",
",. c #D26452",
"<. c #DA6A57",
"1. c #DE7966",
"2. c #E17461",
"3. c #468135",
"4. c #4B8839",
"5. c #51913E",
"6. c #5B9D47",
"7. c #5DA946",
"8. c #5EA848",
"9. c #64B54B",
"0. c #66BC4B",
"q. c #6ABF4F",
"w. c #66C14A",
"e. c #958A7A",
"r. c #998F7E",
"t. c #DF816D",
"y. c #E38975",
"u. c #E3907B",
"i. c #455183",
"p. c #4C5582",
"a. c #4D598D",
"s. c #525889",
"d. c #4C5A95",
"f. c #47589A",
"g. c #48589A",
"h. c #546B8D",
"j. c #54629E",
"k. c #676F94",
"l. c #5565A2",
"z. c #5867A7",
"x. c #5868A7",
"c. c #5364AA",
"v. c #5867A8",
"b. c #596AAE",
"n. c #5B6CB2",
"m. c #6375BA",
"M. c #6375BC",
"N. c #6375C1",
"B. c #6679C5",
"V. c #697BC9",
"C. c #677DD2",
"Z. c #6C83E2",
"A. c #7288E5",
"S. c #758BE9",
"D. c #738BEC",
"F. c #728CF7",
"G. c #7890F0",
"H. c #948C84",
"J. c #A79A88",
"K. c #B3A694",
"L. c #B9AB97",
"P. c #B8AC9B",
"I. c #BEB09A",
"U. c #E99C86",
"Y. c #E99F89",
"T. c #EAA68F",
"R. c #E9A890",
"E. c #EBB49C",
"W. c #C5B7A1",
"Q. c #CBBCA6",
"!. c #F3BBA3",
"~. c #D4C5AE",
"^. c #DCCDB5",
"/. c #F3C4AA",
"(. c #F7C5AC",
"). c #F7CFB4",
"_. c #E7D7BD",
"`. c #F9D5BA",
"'. c #EEDDC2",
"]. c #F0DFC3",
"[. c #FCDDC1",
"{. c #F3E1C6",
"}. c #FCE4C7",
"|. c #F7E4C9",
" X c #FAE7CB",
".X c #FEEBCD",
/* pixels */
"F.F.F.F.F.F.F.F.F.F.F.F.F.F.F.F.F.F.F.F.F.F.F.F.F.F.F.F.F.F.F.F.F.F.F.F.F.F.F.F.F.F.F.F.F.F.F.F.F.F.F.F.F.F.F.F.F.F.F.F.F.F.F.F.",
"F.F.F.F.F.F.F.F.F.F.F.F.F.F.F.F.F.F.F.F.F.F.F.F.F.F.F.F.F.F.F.F.F.F.F.F.F.F.F.F.F.F.F.F.F.F.F.F.F.F.F.F.F.F.F.F.F.F.F.F.F.F.F.F.",
"F.F.F.F.F.F.F.F.F.F.F.F.F.F.F.F.F.F.F.F.F.F.F.F.F.F.F.F.F.F.F.F.F.F.F.F.F.F.F.F.F.F.F.F.F.F.F.F.F.F.F.F.F.F.F.F.F.F.F.F.F.F.F.F.",
"F.F.F.F.F.F.F.F.F.F.F.F.F.F.F.n.: : : : : : z.F.F.F.F.F.F.F.F.F.F.F.F.F.F.F.F.F.D.0 : : : : : V F.F.F.F.F.F.F.F.F.F.F.F.F.F.F.F.",
"F.F.F.F.F.F.F.F.F.F.F.F.F.F.F.x.            l.F.F.F.F.F.F.F.F.F.F.F.F.F.F.F.F.F.D.-           0 F.F.F.F.F.F.F.F.F.F.F.F.F.F.F.F.",
"F.F.F.F.F.F.F.F.F.F.F.F.F.l.G ( r.r.r.e.;   M G j.F.F.F.F.F.F.F.F.F.F.F.F.F.C.G F O   T r.r.r.H.G G D.F.F.F.F.F.F.F.F.F.F.F.F.F.",
"F.F.F.F.F.F.F.F.F.F.F.F.F.N   R .X.X.X|.5       N F.F.F.F.F.F.F.F.F.F.F.F.F.c.        K..X.X.X^.    A.F.F.F.F.F.F.F.F.F.F.F.F.F.",
"F.F.F.F.F.F.F.F.F.F.F.F.F.V   R .X.X.X|.Y c 9   N F.F.F.F.F.F.F.F.F.F.F.F.F.c.    c c Q..X.X.X~.    A.F.F.F.F.F.F.F.F.F.F.F.F.F.",
"F.F.F.F.F.F.F.F.F.F.F.F.F.N   R .X.X.X.X.X.XR   V F.F.F.F.F.F.F.F.F.F.F.F.F.b.  + '..X.X.X.X.X^.    A.F.F.F.F.F.F.F.F.F.F.F.F.F.",
"F.F.F.F.F.F.F.F.F.F.F.F.F.N   R .X.X.X.X.X.XE O C F.F.F.F.F.F.F.F.F.F.F.F.F.b.O ; '..X.X.X.X.X~.    A.F.F.F.F.F.F.F.F.F.F.F.F.F.",
"F.F.F.F.F.F.F.F.F.F.F.F.F.V   R .X.X.X.X.X.X{.'.P.8 0 D.F.F.F.F.F.F.F.F.G 7 L '.'..X.X.X.X.X.X^.    A.F.F.F.F.F.F.F.F.F.F.F.F.F.",
"F.F.F.F.F.F.F.F.F.F.F.F.F.V   R .X.X.X.X.X.X.X.XW.  = D.F.F.F.F.F.F.F.F.B   H .X.X.X.X.X.X.X.X^.    D.F.F.F.F.F.F.F.F.F.F.F.F.F.",
"F.F.F.F.F.F.F.F.F.F.F.F.F.B.b.k.Y / .X.X.X.X.X.XI.  = D.F.F.F.F.F.F.F.F.B   J .X.X.X.X.X.XK.T ( n.c.F.F.F.F.F.F.F.F.F.F.F.F.F.F.",
"F.F.F.F.F.F.F.F.F.F.F.F.F.F.F.v.  ; .X.X.X.X.X.XI.  = D.F.F.F.F.F.F.F.F.B   J .X.X.X.X.X.X=.  w F.F.F.F.F.F.F.F.F.F.F.F.F.F.F.F.",
"F.F.F.F.F.F.F.F.F.F.F.F.F.F.F.B.D W L.L.{..X.X.X~.H L V.N.Z.F.F.F.F.V.N.W J =..X.X.X.X~.L.) D p.F.F.F.F.F.F.F.F.F.F.F.F.F.F.F.F.",
"F.F.F.F.F.F.F.F.F.F.F.F.F.F.F.F.F.G.  o ^..X.X.X X.X{.1   l.F.F.F.F.:   H..X.X.X.X.X.XL   a.F.F.F.F.F.F.F.F.F.F.F.F.F.F.F.F.F.F.",
"F.F.F.F.F.F.F.F.F.F.F.F.F.F.F.F.G.G.. # ~.|. X.X.X.X|.9 o j.F.F.F.G.: o J..X.X.X.X X|.J . s.F.G.F.F.F.F.F.F.F.F.F.F.F.F.F.F.F.F.",
"F.F.F.F.F.F.F.F.F.F.F.F.F.F.F.n.8 9 ....2 : r..X.X.X.X'.'./ 8 8 8 9 ^.{. X.X.X.X].1 ; ' O.s 8 C F.F.F.F.F.F.F.F.F.F.F.F.F.F.F.F.",
"F.F.F.F.F.F.F.F.F.F.F.F.F.F.F.z.  @ o.O.@   e..X.X.X.X.X.XT       + _..X.X.X.X.X'.=   ] @.a   w F.F.F.F.F.F.F.F.F.F.F.F.F.F.F.F.",
"F.F.F.F.F.F.F.F.F.F.F.F.F.F.F.v.  > o.@.[ ] b J / .X.X.X.XQ.K.K.K.I. X.X.X.XW.c v ' ] X.+.u   w F.F.F.F.F.F.F.F.F.F.F.F.F.F.F.F.",
"F.F.F.F.F.F.F.F.F.F.F.F.F.F.F.v.  $ O.+.@.+.t   c .X.X.X.X.X.X.X.X.X.X.X.X.XJ.  . X.+.+.+.u   w F.F.F.F.F.F.F.F.F.F.F.F.F.F.F.F.",
"F.F.F.F.F.F.F.F.F.F.F.F.F.m.l.~ t s u.y.$.+.] t f e.r.'..X.X.X.X.X.X.X.XL.e.*.r y O.+.1.u.%.t p l.j.F.F.F.F.F.F.F.F.F.F.F.F.F.F.",
"F.F.F.F.F.F.F.F.F.F.F.F.F.M   r @.:..X}.>.+.+.+.[   o _..X.X.X.X.X.X.X.XL   < @.+.+.+.E..XU.+.}     A.F.F.F.F.F.F.F.F.F.F.F.F.F.",
"F.F.F.F.F.F.F.F.F.F.F.F.F.N   r @.;.`.).:.+.+.+.{ @ > W.^._.^.^._.^.^.^.K @ e @.+.+.@.R.`.u.+.}     A.F.F.F.F.F.F.F.F.F.F.F.F.F.",
"F.F.F.F.F.F.F.F.F.F.F.F.F.V   r @.+.@.#.+.+.+.+.+.@.X.> + . o o X o o O ` O.@.+.+.+.+.@.#.@.+.}     A.F.F.F.F.F.F.F.F.F.F.F.F.F.",
"F.F.F.F.F.F.F.F.F.F.F.F.F.V   r +.+.@.@.+.+.+.+.+.+.X.@                 _ +.+.+.+.+.+.+.@.+.+.}     A.F.F.F.F.F.F.F.F.F.F.F.F.F.",
"F.F.F.F.F.F.F.F.F.F.F.F.F.V   r +.;.(./.;.+.+.+.<.(./. .{ { { { { { { { u.(.U.@.+.+.@.Y.(.y.+.}     A.F.F.F.F.F.F.F.F.F.F.F.F.F.",
"F.F.F.F.F.F.F.F.F.F.F.F.F.V   t +.:.}.}.:.+.+.+.2..X}.;.+.+.+.+.@.@.+.+.E..XE.@.@.@.@.E..XU.+.}     D.F.F.F.F.F.F.F.F.F.F.F.F.F.",
"F.F.F.F.F.F.F.F.F.F.F.F.F.b.Q P i ` Y.U.-.@.+.+.>.U.U.#.+.+.+.+.+.+.+.+.1.Y.t.@.+.+.+.1.Y.&.d f Q Q D.F.F.F.F.F.F.F.F.F.F.F.F.F.",
"F.F.F.F.F.F.F.F.F.F.F.F.F.F.F.c.  $ O.@.+.+.+.@.+.+.+.+.+.+.+.+.+.+.+.+.@.@.+.@.+.+.+.+.@.a   w F.F.F.F.F.F.F.F.F.F.F.F.F.F.F.F.",
"F.F.F.F.F.F.F.F.F.F.F.F.F.F.F.v.  $ O.+.+.+.#.;.;.+.+.+.+.+.+.+.+.+.+.+.+.+.#.;.;.+.+.+.+.u   w F.F.F.F.F.F.F.F.F.F.F.F.F.F.F.F.",
"F.F.F.F.F.F.F.F.F.F.F.F.F.F.F.c.  @ O.@.+.+.T..X!.@.+.+.+.+.+.+.+.+.+.+.+.+.1..X[.-.+.+.+.u   w F.F.F.F.F.F.F.F.F.F.F.F.F.F.F.F.",
"F.F.F.F.F.F.F.F.F.F.F.F.F.F.F.x.  $ O.O.@.O.T..X/.+.@.@.@.@.+.+.+.+.@.@.@.+.1..X}.-.o.o.@.a   w F.F.F.F.F.F.F.F.F.F.F.F.F.F.F.F.",
"F.F.F.F.F.F.F.F.F.F.F.F.F.F.F.D.C.V., , , , | <.>.+.#.!.(.1.+.+.+.#.!.(.1.+.#.<.,.< , , , ! C.C.F.F.F.F.F.F.F.F.F.F.F.F.F.F.F.F.",
"F.F.F.F.F.F.F.F.F.F.F.F.F.F.F.F.F.F.        d +.@.@.$.`..Xy.+.+.+.#.[..X1.+.@.@....       a.F.F.F.F.F.F.F.F.F.F.F.F.F.F.F.F.F.F.",
"F.F.F.F.F.F.F.F.F.F.F.F.F.F.F.F.F.F.i.i.i.i.U a u u a *.=.I a a i a *.=.I a a u s p.i.i.i.N.F.F.F.F.F.F.F.F.F.F.F.F.F.F.F.F.F.F.",
"F.F.F.F.F.F.F.F.F.F.F.F.F.F.F.F.F.F.F.F.F.F.p.                                  - F.F.F.F.F.F.F.F.F.F.F.F.F.F.F.F.F.F.F.F.F.F.F.",
"F.F.F.F.F.F.F.F.F.F.F.F.F.F.F.F.F.F.F.F.F.F.l.q q q 0 X   & 3 3 3 *     7 w q w M F.F.F.F.F.F.F.F.F.F.F.F.F.F.F.F.F.F.F.F.F.F.F.",
"F.F.F.F.F.F.F.F.F.F.F.F.F.F.F.F.F.F.F.F.F.F.F.F.F.F.F.7   n 0.w.w.9.%   g.F.F.F.F.F.F.F.F.F.F.F.F.F.F.F.F.F.F.F.F.F.F.F.F.F.F.F.",
"F.F.F.F.F.F.F.F.F.F.F.F.F.F.F.F.F.F.F.F.F.F.F.F.F.F.G.8   n w.w.w.9.%   g.F.F.F.F.F.F.F.F.F.F.F.F.F.F.F.F.F.F.F.F.F.F.F.F.F.F.F.",
"F.F.F.F.F.F.F.F.F.F.F.F.F.F.F.F.F.F.F.F.F.F.F.F.F.F.F.8 O n w.w.w.9.%   f.F.F.F.F.F.F.F.F.F.F.F.F.F.F.F.F.F.F.F.F.F.F.F.F.F.F.F.",
"F.F.F.F.F.F.F.F.F.F.F.F.F.F.F.F.F.F.F.F.F.F.F.F.F.F.F.;   n w.w.w.9.%   f.F.F.F.F.F.F.F.F.F.F.F.F.F.F.F.F.F.F.F.F.F.F.F.F.F.F.F.",
"F.F.F.F.F.F.F.F.F.F.F.F.F.F.F.F.F.F.F.F.F.F.F.F.F.F.F.8   n w.w.w.0.l l W d.d.d.j.F.F.F.F.F.F.F.F.F.F.F.F.F.F.F.F.F.F.F.F.F.F.F.",
"F.F.F.F.F.F.F.F.F.F.F.F.F.F.F.F.F.F.F.F.F.F.F.F.F.F.D.8   n w.w.w.w.0.0.g       = F.F.F.F.F.F.F.F.F.F.F.F.F.F.F.F.F.F.F.F.F.F.F.",
"F.F.F.F.F.F.F.F.F.F.F.F.F.F.F.F.F.F.F.F.F.F.A.M.N.M.M.h 6 5.w.w.w.w.w.w.l 6 6 6 h M.B.Z.F.F.F.F.F.F.F.F.F.F.F.F.F.F.F.F.F.F.F.F.",
"F.F.F.F.F.F.F.F.F.F.F.F.F.F.F.F.F.F.F.F.F.F.p.      X 9.w.w.w.w.w.w.w.w.w.0.w.w.9.X   n.F.F.F.F.F.F.F.F.F.F.F.F.F.F.F.F.F.F.F.F.",
"F.F.F.F.F.F.F.F.F.F.F.F.F.F.F.F.F.F.F.F.F.F.Q X X   % 7.w.w.w.w.w.w.w.w.w.w.w.w.9.X   n.F.F.F.F.F.F.F.F.F.F.F.F.F.F.F.F.F.F.F.F.",
"F.F.F.F.F.F.F.F.F.F.F.F.F.F.F.F.F.F.F.F.C 8 x 9.9.9.9.w.w.w.w.w.w.w.w.w.w.w.w.w.9.X   n.F.F.F.F.F.F.F.F.F.F.F.F.F.F.F.F.F.F.F.F.",
"F.F.F.F.F.F.F.F.F.F.F.F.F.F.F.F.F.F.F.F.0   z w.w.w.w.w.w.w.w.w.w.w.w.w.w.w.w.w.9.X   n.F.F.F.F.F.F.F.F.F.F.F.F.F.F.F.F.F.F.F.F.",
"F.F.F.F.F.F.F.F.F.F.F.F.F.F.F.F.F.F.F.F.0   z w.w.w.w.w.w.w.w.w.w.w.w.w.w.w.w.w.0.m m ^ F F F F G F F.F.F.F.F.F.F.F.F.F.F.F.F.F.",
"F.F.F.F.F.F.F.F.F.F.F.F.F.F.F.F.F.F.F.F.9   z w.w.w.w.w.w.w.w.w.w.w.w.w.w.w.w.w.w.w.w.6             Z.F.F.F.F.F.F.F.F.F.F.F.F.F.",
"F.F.F.F.F.F.F.F.F.F.F.F.F.F.F.F.F.F.M.m.h g 4.w.w.w.w.w.w.w.w.w.w.w.w.w.w.w.w.w.w.w.w.k g 6 6 4     A.F.F.F.F.F.F.F.F.F.F.F.F.F.",
"F.F.F.F.F.F.F.F.F.F.F.F.F.F.F.F.F.G.  X 8.w.w.w.w.w.w.w.w.w.w.w.w.w.w.w.0.w.w.w.w.w.w.w.w.w.w.8.    A.F.F.F.F.F.F.F.F.F.F.F.F.F.",
"F.F.F.F.F.F.F.F.F.F.F.F.F.F.F.F.F.G.  X 8.w.w.w.w.w.w.w.w.w.w.w.0.9.0.9.0.0.0.w.w.w.w.w.w.0.9.6.    S.F.F.F.F.F.F.F.F.F.F.F.F.F.",
"F.F.F.F.F.F.F.F.F.F.F.F.F.F.F.n.: :   X 8.w.w.w.w.w.w.w.w.w.w.5.% + + + o o g w.w.w.w.w.w.l & w F.F.F.F.F.F.F.F.F.F.F.F.F.F.F.F.",
"F.F.F.F.F.F.F.F.F.F.F.F.F.F.F.b.      X 8.w.w.w.w.w.w.w.w.w.w.4.            6 w.w.w.w.0.w.k   q F.F.F.F.F.F.F.F.F.F.F.F.F.F.F.F.",
"F.F.F.F.F.F.F.F.F.F.F.F.F.F.F.v.  + m 4.9.q.w.w.w.w.0.j g g g A n.n.b.b.n.b.h.h h g g g g ^ n.M.F.F.F.F.F.F.F.F.F.F.F.F.F.F.F.F.",
"F.F.F.F.F.F.F.F.F.F.F.F.F.F.F.v.  * w.w.w.w.w.w.w.w.9.%       B F.F.F.F.F.F.c.    O       a.F.F.F.F.F.F.F.F.F.F.F.F.F.F.F.F.F.F.",
"F.F.F.F.F.F.F.F.F.F.F.F.F.F.F.B.Z S 3.3.3.3.3.3.3.3.m S Z Z B d.F.F.F.F.F.F.N.B Z Z B B Z n.F.F.F.F.F.F.F.F.F.F.F.F.F.F.F.F.F.F.",
"F.F.F.F.F.F.F.F.F.F.F.F.F.F.F.F.F.G.                = D.F.F.F.F.F.F.F.F.F.F.F.F.F.F.F.F.F.F.F.F.F.F.F.F.F.F.F.F.F.F.F.F.F.F.F.F.",
"F.F.F.F.F.F.F.F.F.F.F.F.F.F.F.F.F.F.                - D.F.F.F.F.F.F.F.F.F.F.F.F.F.F.F.F.F.F.F.F.F.F.F.F.F.F.F.F.F.F.F.F.F.F.F.F.",
"F.F.F.F.F.F.F.F.F.F.F.F.F.F.F.F.F.F.F.F.F.F.F.F.F.F.F.F.F.F.F.F.F.F.F.F.F.F.F.F.F.F.F.F.F.F.F.F.F.F.F.F.F.F.F.F.F.F.F.F.F.F.F.F.",
"F.F.F.F.F.F.F.F.F.F.F.F.F.F.F.F.F.F.F.F.F.F.F.F.F.F.F.F.F.F.F.F.F.F.F.F.F.F.F.F.F.F.F.F.F.F.F.F.F.F.F.F.F.F.F.F.F.F.F.F.F.F.F.F.",
"F.F.F.F.F.F.F.F.F.F.F.F.F.F.F.F.F.F.F.F.F.F.F.F.F.F.F.F.F.F.F.F.F.F.F.F.F.F.F.F.C.F.F.F.F.F.F.F.F.F.F.F.F.F.F.F.F.F.F.F.F.F.F.F."
};
