/* XPM */
static char *_e82aa558e154936f113e7aab270e18721sukF4V8EzhumIk[] = {
/* columns rows colors chars-per-pixel */
"64 64 147 2 ",
"   c #010101",
".  c #0B0805",
"X  c #16100A",
"o  c #1D150C",
"O  c #21180D",
"+  c #332516",
"@  c #44301D",
"#  c #2F3861",
"$  c #6A5741",
"%  c #755D46",
"&  c #404462",
"*  c #774B6C",
"=  c #674D77",
"-  c #666370",
";  c #8D2209",
":  c #9B2C0F",
">  c #E93D1A",
",  c #F73B10",
"<  c #F83B10",
"1  c #905613",
"2  c #945916",
"3  c #915819",
"4  c #9D611E",
"5  c #8E5D2C",
"6  c #8D5F34",
"7  c #B6433F",
"8  c #A86B26",
"9  c #AE702B",
"0  c #B97A34",
"q  c #CA4711",
"w  c #D4501A",
"e  c #D94E2A",
"r  c #E9452A",
"t  c #F95A27",
"y  c #E34B37",
"u  c #F35431",
"i  c #F96F37",
"p  c #FA7037",
"a  c #974755",
"s  c #90485A",
"d  c #8D525B",
"f  c #A74549",
"g  c #886448",
"h  c #8A654C",
"j  c #896652",
"k  c #A37646",
"l  c #AC7B48",
"z  c #B2635B",
"x  c #B4596A",
"c  c #856D6D",
"v  c #866F75",
"b  c #85717A",
"n  c #A86673",
"m  c #BF6075",
"M  c #BD637A",
"N  c #DC5044",
"B  c #D7514B",
"V  c #D8524B",
"C  c #F96644",
"Z  c #F96E4D",
"A  c #C75B66",
"S  c #C25F71",
"D  c #D76F6D",
"F  c #C06075",
"G  c #EA7160",
"H  c #649A76",
"J  c #C4833E",
"K  c #AFCB3C",
"L  c yellow",
"P  c #E3EC16",
"I  c #C6DA2B",
"U  c #BB854E",
"Y  c #9ABD4D",
"T  c #CC8B45",
"R  c #D18E47",
"E  c #E4A15F",
"W  c #FA8A70",
"Q  c #E3A360",
"!  c #F5AD65",
"~  c #F7B16C",
"^  c #FFB56B",
"/  c #FAB472",
"(  c #385399",
")  c #337B9A",
"_  c #1D56AC",
"`  c #0E58B6",
"'  c #035BBE",
"]  c #2356A8",
"[  c #795F83",
"{  c #646B8C",
"}  c #4171AB",
"|  c #005AC0",
" . c #0F61C6",
".. c #1D67CD",
"X. c #3673D7",
"o. c #4478DE",
"O. c #687FDF",
"+. c #857587",
"@. c #827691",
"#. c #827A9B",
"$. c #B5698A",
"%. c #AA6E9B",
"&. c #9079AB",
"*. c #9D76B1",
"=. c #9579BC",
"-. c #A372A7",
";. c #A273A9",
":. c #3C8094",
">. c #43858F",
",. c #4A8988",
"<. c #7B80BC",
"1. c #7A81C4",
"2. c #679CD9",
"3. c #78A6DD",
"4. c #5781E9",
"5. c #6785EA",
"6. c #7688E0",
"7. c #7589E6",
"8. c #7E90ED",
"9. c #6787F1",
"0. c #6888F1",
"q. c #728CF7",
"w. c #7790F7",
"e. c #A98DA8",
"r. c #BCA0A4",
"t. c #B4A1B7",
"y. c #BBA3B3",
"u. c #D8AB95",
"i. c #E2AE8B",
"p. c #FBA38E",
"a. c #CBA6A0",
"s. c #FCB7A7",
"d. c #8583DA",
"f. c #9797D4",
"g. c #9898D3",
"h. c #A09CCE",
"j. c #8893E3",
"k. c #8292EA",
"l. c #859BF8",
"z. c #83ACE1",
"x. c #88B1E1",
"c. c #A8C6E9",
"v. c #E5EAFD",
"b. c #EFF2FE",
"n. c #F1F4FD",
"m. c #F7FAFE",
"M. c #FFFFFF",
/* pixels */
"q.q.q.q.q.q.q.q.q.q.q.q.q.q.q.q.q.q.q.q.q.q.q.q.q.q.q.q.q.q.q.q.q.q.q.q.q.q.q.q.q.q.q.q.q.q.q.q.q.q.q.q.q.q.q.q.q.q.q.q.q.q.q.q.",
"q.q.q.q.q.q.q.q.q.q.q.q.q.q.q.q.q.q.q.q.q.q.q.q.q.q.q.q.q.q.q.q.q.q.q.q.q.q.q.q.q.q.q.q.q.q.q.q.q.q.q.q.q.q.q.q.q.q.q.q.q.q.q.q.",
"q.q.q.q.q.q.q.q.q.q.q.q.q.q.q.q.q.q.q.q.q.q.q.q.q.q.q.q.q.q.q.q.q.q.q.q.q.q.q.q.q.q.q.q.q.q.q.q.q.q.q.q.q.q.q.q.q.q.q.q.q.q.q.q.",
"q.q.q.q.q.q.q.q.q.q.q.q.q.q.q.q.q.q.q.q.q.q.q.q.q.q.q.q.q.q.q.q.q.q.q.q.q.q.q.q.q.q.q.q.q.q.q.q.q.q.q.q.q.q.q.q.q.q.q.q.q.q.q.q.",
"q.q.q.q.q.q.q.q.q.q.q.q.q.q.q.q.q.q.q.q.q.q.q.q.q.q.q.q.q.q.q.q.q.q.q.q.q.q.q.q.q.q.q.q.q.q.q.q.q.q.q.q.q.q.q.q.q.q.q.q.q.q.q.q.",
"q.q.q.q.q.q.q.q.q.q.q.q.q.q.q.q.q.q.q.q.q.q.q.q.q.q.q.q.q.q.q.q.q.q.q.q.q.q.q.q.q.q.q.q.q.q.q.q.q.q.q.q.q.q.q.q.q.q.q.q.q.q.q.q.",
"q.q.q.q.q.q.q.q.q.q.q.q.q.q.q.q.q.q.q.q.q.q.q.q.q.q.q.q.q.q.q.q.q.q.q.q.q.q.q.q.q.q.q.q.q.q.q.q.q.q.q.q.q.q.q.q.q.q.q.q.q.q.q.q.",
"q.q.q.q.q.q.q.q.q.q.q.q.q.q.q.q.q.q.q.q.q.q.q.q.q.d.A A A A A A A A A A A A A A A *.q.q.q.q.q.q.q.q.q.q.q.q.q.q.q.q.q.q.q.q.q.q.",
"q.q.q.q.q.q.q.q.q.q.q.q.q.q.q.q.q.q.q.q.q.q.q.q.q.=., , , , , , , , , , , , , , , M q.q.q.q.q.q.q.q.q.q.q.q.q.q.q.q.q.q.q.q.q.q.",
"q.q.q.q.q.q.q.q.q.q.q.q.q.q.q.q.q.q.q.q.q.q.q.w.q.=., , , , , , , , , , , , , , , $.q.q.q.q.q.q.q.q.q.q.q.q.q.q.q.q.q.q.q.q.q.q.",
"q.q.q.q.q.q.q.q.q.q.q.q.q.q.q.q.-.A m m m A m m S B , , , , , , , , , , , , , , , y m m ;.q.q.q.q.q.q.q.q.q.q.q.q.q.q.q.q.q.q.q.",
"q.q.q.q.q.q.q.q.q.q.q.q.q.q.q.q.A , , , , , , , , , , , , , , , , , , , , , , , , , , , m q.q.q.q.q.q.q.q.q.q.q.q.q.q.q.q.q.q.q.",
"q.q.q.q.q.q.q.q.q.q.q.q.q.q.q.q.A , , , , , , , , , , , , , , , , , , , , , , , , , , , m q.q.q.q.q.q.q.q.q.q.q.q.q.q.q.q.q.q.q.",
"q.q.q.q.q.q.q.q.q.q.q.q.q.q.q.q.;.M M M M M D p p e ; ; : i i i p p p w q q q q q q q q n q.q.q.q.q.q.q.q.q.q.q.q.q.q.q.q.q.q.q.",
"q.q.q.q.q.q.q.q.q.q.q.q.q.q.q.q.q.q.q.q.q.q.h.^ ^ U     o ^ ^ ^ ^ ^ ^ 8 1 1 1 1 1 1 1 1 v q.q.q.q.q.q.q.q.q.q.q.q.q.q.q.q.q.q.q.",
"q.q.q.q.q.q.q.q.q.q.q.q.q.q.q.q.q.q.q.q.q.q.h.^ ^ U     o ^ ^ ^ ^ ^ ^ 8 1 1 1 1 1 1 1 1 v q.q.q.q.q.q.q.q.q.q.q.q.q.q.q.q.q.q.q.",
"q.q.q.q.q.q.q.q.q.q.q.q.q.q.q.q.j.g.f.f.f.f.y.^ ^ U     o ~ ^ ^ ^ ^ ^ J 9 9 4 1 1 4 9 9 U <.<.1.q.q.q.q.q.q.q.q.q.q.q.q.q.q.q.q.",
"q.q.q.q.q.q.q.q.q.q.q.q.q.q.q.q.a.^ ^ ^ ^ ^ ^ ^ ^ U     o ^ ^ ^ ^ ^ ^ ^ ^ ^ 0 1 1 J ^ ^ U 1 1 h q.q.q.q.q.q.q.q.q.q.q.q.q.q.q.q.",
"q.q.q.q.q.q.q.q.q.q.q.q.q.q.q.q.a.^ ^ ^ ^ ^ ^ ^ ^ U     o ~ ^ ^ ^ ^ ^ ^ ^ ^ 0 1 1 J ^ ^ R 3 1 h q.q.q.q.q.q.q.q.q.q.q.q.q.q.q.q.",
"q.q.q.q.q.q.q.q.q.q.q.q.q.k.k.k.u.^ ^ ^ ^ ^ ! Q Q l o o + ^ ^ ^ ^ ^ ! ! ! ! 0 1 1 J ^ / T 3 1 h q.q.q.q.q.q.q.q.q.q.q.q.q.q.q.q.",
"q.q.q.q.q.q.q.q.q.q.q.q.q.i.^ ^ ^ ^ ^ ^ ^ ^ l     @ ^ ^ ^ ^ ^ ^ ^ ^ ^ 8 1 1 1 1 1 J ^ ^ R 1 1 h q.q.q.q.q.q.q.q.q.q.q.q.q.q.q.q.",
"q.q.q.q.q.q.q.q.q.q.q.q.q.i.^ ^ ^ ^ ^ ^ ^ ^ l     @ ^ ^ ^ ^ ^ ^ ^ ^ ^ 8 1 1 1 1 1 J ^ ^ R 1 1 h q.q.q.q.q.q.q.q.q.q.q.q.q.q.q.q.",
"q.q.q.q.q.q.q.q.q.q.q.q.q.u./ / / ! ! ! ! ! k     @ ! ! ! ^ ^ ^ ^ ^ ^ 8 2 2 2 2 4 J ~ ~ R 1 1 h q.q.q.q.q.q.q.q.q.q.q.q.q.q.q.q.",
"q.q.q.q.q.q.q.q.q.q.q.q.q.k.8.8.& X X X X X .     . X X + ^ ^ ^ ^ ^ ^ ! ! ! ! E ! J 4 4 3 1 1 h q.q.q.q.q.q.q.q.q.q.q.q.q.q.q.q.",
"q.q.q.q.q.q.q.q.q.q.q.q.q.q.q.q.#                       o ~ ^ ^ ^ ^ ^ ^ ^ ^ ^ ^ ^ J 2 1 1 1 3 h q.q.q.q.q.q.q.q.q.q.q.q.q.q.q.q.",
"q.q.q.q.q.q.q.q.q.q.q.q.q.q.q.q.# . .             .     O ^ ^ ^ ^ ^ ^ ^ ^ ^ ^ ^ ^ T 3 3 3 3 3 j q.q.q.q.q.q.q.q.q.q.q.q.q.q.q.q.",
"q.q.q.q.q.q.q.q.q.q.q.q.q.q.q.q.5.5.O.e.Q Q Q Q Q Q Q Q Q ^ ^ ^ ^ ^ ^ ^ ^ ^ ^ ^ ^ r.6.6.6.6.6.7.q.q.q.q.q.q.q.q.q.q.q.q.q.q.q.q.",
"q.q.q.q.q.q.q.q.q.q.q.q.q.q.q.q.0.q.q.t.^ ^ ^ ^ ^ ^ ^ ^ ^ ^ ^ ^ ^ ^ ^ ^ ^ ^ ^ ^ ^ t.q.q.q.q.q.q.q.q.q.q.q.q.q.q.q.q.q.q.q.q.q.q.",
"q.q.q.q.q.q.q.q.q.q.q.q.q.q.q.q.q.q.q.t.^ ^ ^ ^ ^ ^ ^ ^ ^ ^ ^ ^ ^ ^ ^ ^ ^ ^ ^ ^ / y.q.q.q.q.q.q.q.q.q.q.q.q.q.q.q.q.q.q.q.q.q.q.",
"q.q.q.q.q.q.q.q.q.q.q.q.q.q.q.q.q.q.q.k.g.g.f.f.g.e.t t t t t t t t t { } } z t t u V V %.q.q.q.q.q.q.q.q.q.q.q.q.q.q.q.q.q.q.q.",
"q.q.q.q.q.q.q.q.q.q.q.q.q.q.q.q.q.q.q.q.q.q.q.q.q.=.< < , , , , , , , ( ' ' a , , , , , m q.q.q.q.q.q.q.q.q.q.q.q.q.q.q.q.q.q.q.",
"q.q.q.q.q.q.q.q.q.q.q.q.q.q.q.q.q.q.q.q.q.q.q.q.q.=.< < , , , , , , , ( ' ' a , , , , , m q.q.q.q.q.q.q.q.q.q.q.q.q.q.q.q.q.q.q.",
"q.q.q.q.q.q.q.q.q.q.q.q.q.q.q.q.;.F m S m S m m F x = = * , , , , , < ( ' ' a , , , , , y m x $.q.q.q.q.q.q.q.q.q.q.q.q.q.q.q.q.",
"q.q.q.q.q.q.q.q.q.q.q.q.q.q.q.q.A , , , , , , , < f | | _ , , , , , < ( ' ' a , , , , , , , , B q.q.q.q.q.q.q.q.q.q.q.q.q.q.q.q.",
"q.q.q.q.q.q.q.q.q.q.q.q.q.q.q.q.A , , , , , , , < 7 | | _ , , , , < < ( | ' a , , , , , , , , B q.q.q.q.q.q.q.q.q.q.q.q.q.q.q.q.",
"q.q.q.q.q.q.q.q.q.q.q.q.q.*.%.%.V , , , , , , , < 7 | | ` s s s d s s ] | ' a , , , , , , , , y %.%.-.q.q.q.q.q.q.q.q.q.q.q.q.q.",
"q.q.q.q.q.q.q.q.q.q.q.q.q.N , , < , , , , , , , < 7 | | | | | | | | | | | | a , , , , , , , , , < < r q.q.q.q.q.q.q.q.q.q.q.q.q.",
"q.q.q.q.q.q.q.q.q.q.q.q.q.N , , , , , , , , , , < 7 | | | | | | | | | | | | a , , , , , , , , , < < r q.q.q.q.q.q.q.q.q.q.q.q.q.",
"q.q.q.q.q.q.q.q.q.q.q.q.q.D Z Z Z Z Z u , , > 7 7 d >.>.:.' | | | | | ) >.>.d 7 7 e , , t Z Z Z Z Z G w.q.q.q.q.q.q.q.q.q.q.q.q.",
"q.q.q.q.q.q.q.q.q.q.q.q.q.v.M.M.M.M.M.p., , f | | >.L L P ' | | | | | I L L H ' ' * , , W M.M.M.m.m.n.w.q.q.q.q.q.q.q.q.q.q.q.q.",
"q.q.q.q.q.q.q.q.q.q.q.q.q.v.M.M.M.M.M.p., , f | | >.L L P ' | | | | | I L L H | | * < < W M.M.M.M.M.b.w.q.q.q.q.q.q.q.q.q.q.q.q.",
"q.q.q.q.q.q.q.q.q.q.q.q.q.v.M.M.M.M.M.s.C C n | | :.I I K ' | | | | | Y I I ,.| | [ C C p.M.M.M.M.m.n.w.q.q.q.q.q.q.q.q.q.q.q.q.",
"q.q.q.q.q.q.q.q.q.q.q.q.q.v.M.M.M.M.M.M.M.M.c.| | | | | | | | | | | | | | | | | | 3.M.M.M.M.M.M.M.M.n.w.q.q.q.q.q.q.q.q.q.q.q.q.",
"q.q.q.q.q.q.q.q.q.q.q.q.q.v.M.M.M.M.M.M.M.M.c.| | | | | | | | | | | | | | | | | | 3.M.M.M.M.M.M.M.M.n.w.q.q.q.q.q.q.q.q.q.q.q.q.",
"q.q.q.q.q.q.q.q.q.q.q.q.q.v.M.M.M.M.M.m.n.n.c.' | | | | | | | | | | | | | | | | | 3.n.n.m.M.M.M.M.M.b.w.q.q.q.q.q.q.q.q.q.q.q.q.",
"q.q.q.q.q.q.q.q.q.q.q.q.q.v.M.M.M.M.M.x.' | | ' | | | | | | | | | | | | | | | | | | | | 2.M.M.M.M.M.n.w.q.q.q.q.q.q.q.q.q.q.q.q.",
"q.q.q.q.q.q.q.q.q.q.q.q.q.v.M.M.M.M.M.x.| | | | | | | | | | | | | | | | | | | | | | | | 2.M.M.M.M.M.b.q.q.q.q.q.q.q.q.q.q.q.q.q.",
"q.q.q.q.q.q.q.q.q.q.q.q.q.v.M.M.M.M.m.z.| | | | | | | | | | | | | | | | | | | | | | | | 2.M.M.M.M.M.b.w.q.q.q.q.q.q.q.q.q.q.q.q.",
"q.q.q.q.q.q.q.q.q.q.q.q.q.l.l.l.8.w.l.X. .' | | | | | |  .0.0.0.9.9.9...| | | | | | | | o.l.l.l.l.l.l.q.q.q.q.q.q.q.q.q.q.q.q.q.",
"q.q.q.q.q.q.q.q.q.q.q.q.q.q.q.q.q.q.w.4.' ' | | | | | |  .q.q.q.q.q.q...| | | | | | | | X.q.q.q.q.q.q.q.q.q.q.q.q.q.q.q.q.q.q.q.",
"q.q.q.q.q.q.q.q.q.q.q.q.q.q.q.q.w.q.0.4.| | | ' | | | |  .w.q.q.q.q.q...| | | | | | ' ' X.q.q.q.q.q.q.q.q.q.q.q.q.q.q.q.q.q.q.q.",
"q.q.q.q.q.q.q.q.q.q.q.q.q.q.q.q.@.j g % $ $ $ $ $ - 4.4.4.q.q.q.q.q.q.4.4.O.{ $ $ $ $ $ % h j b q.q.q.q.q.q.q.q.q.q.q.q.q.q.q.q.",
"q.q.q.q.q.q.q.q.q.q.q.q.q.q.q.q.c 1 1 1 1 1 1 1 1 j q.q.q.q.q.q.q.q.q.q.q.q.c 1 1 1 1 1 1 1 1 h q.q.q.q.q.q.q.q.q.q.q.q.q.q.q.q.",
"q.q.q.q.q.q.q.q.q.q.q.q.q.q.q.q.- 1 1 1 1 1 1 1 1 j q.q.q.q.q.q.q.q.q.q.q.q.c 1 1 1 1 1 1 1 1 h q.q.q.q.q.q.q.q.q.q.q.q.q.q.q.q.",
"q.q.q.q.q.q.q.q.q.q.q.q.q.@.b b 6 1 1 1 1 1 1 1 1 j q.q.q.q.q.q.q.q.q.q.q.q.c 1 1 1 1 1 1 1 1 6 b b +.q.q.q.q.q.q.q.q.q.q.q.q.q.",
"q.q.q.q.q.q.q.q.q.q.q.q.q.g 1 2 1 1 1 1 1 1 1 1 1 j q.q.q.q.q.q.q.q.q.q.q.q.c 1 1 1 1 1 1 1 1 1 1 1 5 q.q.q.q.q.q.q.q.q.q.q.q.q.",
"q.q.q.q.q.q.q.q.q.q.q.q.q.g 1 1 1 1 1 1 1 1 1 1 1 j q.q.q.q.q.q.q.q.q.q.q.q.v 3 1 1 1 1 1 1 1 1 1 1 5 q.q.q.q.q.q.q.q.q.q.q.q.q.",
"q.q.q.q.q.q.q.q.q.q.q.q.q.&.@.@.e.{ { @.@.@.e.[ [ <.q.q.q.q.q.q.q.q.q.q.q.q.1.[ @.@.@.@.@.@.@.@.@.@.#.q.q.q.q.q.q.q.q.q.q.q.q.q.",
"q.q.q.q.q.q.q.q.q.q.q.q.q.q.w.q.q.q.q.q.w.q.q.q.w.w.q.q.q.q.q.q.q.q.q.q.q.q.w.w.q.q.q.q.q.q.q.q.q.q.q.q.q.q.q.q.q.q.q.q.q.q.q.q.",
"q.q.q.q.q.q.q.q.q.q.q.q.q.q.q.q.q.q.q.q.q.q.q.q.q.w.q.q.q.q.q.q.q.q.q.q.q.q.q.q.q.q.q.q.q.q.q.q.q.q.q.q.q.q.q.q.q.q.q.q.q.q.q.q.",
"q.q.q.q.q.q.q.q.q.q.q.q.q.q.q.q.q.q.q.q.q.q.q.q.q.q.q.q.q.q.q.q.q.q.q.q.q.q.q.q.q.q.q.q.q.q.q.q.q.q.q.q.q.q.q.q.q.q.q.q.q.q.q.q.",
"q.q.q.q.q.q.q.q.q.q.q.q.q.q.q.q.q.q.q.q.q.q.q.q.q.q.q.q.q.q.q.q.q.q.q.q.q.q.q.q.q.q.q.q.q.q.q.q.q.q.q.q.q.q.q.q.q.q.q.q.q.q.q.q.",
"q.q.q.q.q.q.q.q.q.q.q.q.q.q.q.q.q.q.q.q.q.q.q.q.q.q.q.q.q.q.q.q.q.q.q.q.q.q.q.q.q.q.q.q.q.q.q.q.q.q.q.q.q.q.q.q.q.q.q.q.q.q.q.q.",
"0.q.q.q.q.q.q.q.q.q.q.0.q.q.q.q.q.q.q.q.q.q.q.q.q.q.q.q.q.q.q.q.q.q.q.q.q.q.q.q.q.q.q.q.q.q.q.q.q.q.q.q.q.q.q.q.q.q.q.q.q.q.q.q."
};
