/* XPM */
static char *_7bc01e01763471ff2a103f7d8b9771aiGPkgoNUOWgqyprQ[] = {
/* columns rows colors chars-per-pixel */
"64 64 151 2 ",
"   c #010101",
".  c #0B0805",
"X  c #16100A",
"o  c #1D150C",
"O  c #21180D",
"+  c #332516",
"@  c #44301D",
"#  c #2D365D",
"$  c #6A5741",
"%  c #755D46",
"&  c #404462",
"*  c #774B6C",
"=  c #674D77",
"-  c #666370",
";  c #8D2209",
":  c #9B2C0F",
">  c #E93D1A",
",  c #F73B10",
"<  c #F83B10",
"1  c #905613",
"2  c #945916",
"3  c #915819",
"4  c #9D611E",
"5  c #8E5D2C",
"6  c #8D5F34",
"7  c #B6433F",
"8  c #A86B26",
"9  c #AB6D29",
"0  c #AE702B",
"q  c #B97A34",
"w  c #CA4711",
"e  c #D4501A",
"r  c #D94E2A",
"t  c #E9452A",
"y  c #F95A27",
"u  c #E34B37",
"i  c #F35431",
"p  c #C07F39",
"a  c #F96F37",
"s  c #FA7037",
"d  c #974755",
"f  c #90485A",
"g  c #8D525B",
"h  c #A74549",
"j  c #886448",
"k  c #8A654C",
"l  c #896652",
"z  c #A37646",
"x  c #AC7B48",
"c  c #B2635B",
"v  c #B4596A",
"b  c #856D6D",
"n  c #9A7869",
"m  c #866F75",
"M  c #85717A",
"N  c #A86673",
"B  c #BF6075",
"V  c #BD637A",
"C  c #DC5044",
"Z  c #D7514B",
"A  c #D8524B",
"S  c #F96644",
"D  c #F96E4D",
"F  c #C75B66",
"G  c #C25F71",
"H  c #D76F6D",
"J  c #C06075",
"K  c #EA7160",
"L  c #649A76",
"P  c #C4833E",
"I  c #AFCB3C",
"U  c yellow",
"Y  c #E3EC16",
"T  c #C6DA2B",
"R  c #BB854E",
"E  c #9ABD4D",
"W  c #CC8B45",
"Q  c #D18E47",
"!  c #E4A15F",
"~  c #FA8A70",
"^  c #E3A360",
"/  c #F5AD65",
"(  c #F7B16C",
")  c #FFB56B",
"_  c #FAB472",
"`  c #385399",
"'  c #337B9A",
"]  c #1D56AC",
"[  c #0E58B6",
"{  c #035BBE",
"}  c #2356A8",
"|  c #795F83",
" . c #646B8C",
".. c #4171AB",
"X. c #7C7FB8",
"o. c #005AC0",
"O. c #0F61C6",
"+. c #1D67CD",
"@. c #3673D7",
"#. c #4478DE",
"$. c #687FDF",
"%. c #857587",
"&. c #827691",
"*. c #827A9B",
"=. c #B5698A",
"-. c #AA6E9B",
";. c #9079AB",
":. c #9D76B1",
">. c #9579BC",
",. c #A372A7",
"<. c #A273A9",
"1. c #3C8094",
"2. c #43858F",
"3. c #4A8988",
"4. c #7B80BC",
"5. c #679CD9",
"6. c #78A6DD",
"7. c #5781E9",
"8. c #6785EA",
"9. c #7688E0",
"0. c #7589E6",
"q. c #7E90ED",
"w. c #6787F1",
"e. c #6888F1",
"r. c #728CF7",
"t. c #7790F7",
"y. c #A98DA8",
"u. c #BCA0A4",
"i. c #B4A1B7",
"p. c #BBA3B3",
"a. c #D8AB95",
"s. c #E2AE8B",
"d. c #FBA38E",
"f. c #CBA6A0",
"g. c #FCB7A7",
"h. c #9F9CCF",
"j. c #8583DA",
"k. c #9797D4",
"l. c #9898D3",
"z. c #8893E3",
"x. c #8292EA",
"c. c #859BF8",
"v. c #83ACE1",
"b. c #88B1E1",
"n. c #A8C6E9",
"m. c #E5EAFD",
"M. c #E8ECFD",
"N. c #EFF2FE",
"B. c #F1F4FD",
"V. c #F7FAFE",
"C. c #FFFFFF",
/* pixels */
"r.r.r.r.r.r.r.r.r.r.r.r.r.r.r.r.r.r.r.r.r.r.r.r.r.r.r.r.r.r.r.r.r.r.r.r.r.r.r.r.r.r.r.r.r.r.r.r.r.r.r.r.r.r.r.r.r.r.r.r.r.r.r.r.",
"r.r.r.r.r.r.r.r.r.r.r.r.r.r.r.r.r.r.r.r.r.r.r.r.r.r.r.r.r.r.r.r.r.r.r.r.r.r.r.r.r.r.r.r.r.r.r.r.r.r.r.r.r.r.r.r.r.r.r.r.r.r.r.r.",
"r.r.r.r.r.r.r.r.r.r.r.r.r.r.r.r.r.r.r.r.r.r.r.r.r.r.r.r.r.r.r.r.r.r.r.r.r.r.r.r.r.r.r.r.r.r.r.r.r.r.r.r.r.r.r.r.r.r.r.r.r.r.r.r.",
"r.r.r.r.r.r.r.r.r.r.r.r.r.r.r.r.r.r.r.r.r.r.r.r.r.r.r.r.r.r.r.r.r.r.r.r.r.r.r.r.r.r.r.r.r.r.r.r.r.r.r.r.r.r.r.r.r.r.r.r.r.r.r.r.",
"r.r.r.r.r.r.r.r.r.r.r.r.r.r.r.r.r.r.r.r.r.r.r.r.r.r.r.r.r.r.r.r.r.r.r.r.r.r.r.r.r.r.r.r.r.r.r.r.r.r.r.r.r.r.r.r.r.r.r.r.r.r.r.r.",
"r.r.r.r.r.r.r.r.r.r.r.r.r.r.r.r.r.r.r.r.r.r.r.r.r.r.r.r.r.r.r.r.r.r.r.r.r.r.r.r.r.r.r.r.r.r.r.r.r.r.r.r.r.r.r.r.r.r.r.r.r.r.r.r.",
"r.r.r.r.r.r.r.r.r.r.r.r.r.r.r.r.r.r.r.r.r.r.r.r.r.r.r.r.r.r.r.r.r.r.r.r.r.r.r.r.r.r.r.r.r.r.r.r.r.r.r.r.r.r.r.r.r.r.r.r.r.r.r.r.",
"r.r.r.r.r.r.r.r.r.r.r.r.r.r.r.r.r.r.r.r.r.r.:.F F F F F F F F F F F F F F F j.r.r.r.r.r.r.r.r.r.r.r.r.r.r.r.r.r.r.r.r.r.r.r.r.r.",
"r.r.r.r.r.r.r.r.r.r.r.r.r.r.r.r.r.r.r.r.r.r.=.< , , , , , , , , < , , , , , y.r.r.r.r.r.r.r.r.r.r.r.r.r.r.r.r.r.r.r.r.r.r.r.r.r.",
"r.r.r.r.r.r.r.r.r.r.r.r.r.r.r.r.r.r.r.r.r.r.=., , , , , , , , , < < , , , , >.r.r.r.r.r.r.r.r.r.r.r.r.r.r.r.r.r.r.r.r.r.r.r.r.r.",
"r.r.r.r.r.r.r.r.r.r.r.r.r.r.r.r.r.r.r.<.G G C , , , , < , , , , , , , , , , A J v B V B G G B ,.r.r.r.r.r.r.r.r.r.r.r.r.r.r.r.r.",
"r.r.r.r.r.r.r.r.r.r.r.r.r.r.r.r.r.r.r.G , , < , , , , , , , , , , , , , , , , < < , , , , , , F r.r.r.r.r.r.r.r.r.r.r.r.r.r.r.r.",
"r.r.r.r.r.r.r.r.r.r.r.r.r.r.r.r.r.r.r.J , , , , , , , , , , , , , , , , , , < < < < , , , , , F r.r.r.r.r.r.r.r.r.r.r.r.r.r.r.r.",
"r.r.r.r.r.r.r.r.r.r.r.r.r.r.r.r.r.r.r.N w w w w w w w w e s s s s s a : ; ; r a a H V B V V V ,.r.r.r.r.r.r.r.r.r.r.r.r.r.r.r.r.",
"r.r.r.r.r.r.r.r.r.r.r.r.r.r.r.r.r.r.r.m 1 1 1 1 1 1 1 1 8 ) ) ) ) ) ) o     R ) ) h.r.r.r.r.r.r.r.r.r.r.r.r.r.r.r.r.r.r.r.r.r.r.",
"r.r.r.r.r.r.r.r.r.r.r.r.r.r.r.r.r.r.r.b 1 1 1 1 1 1 1 1 8 ) ) ) ) ) ) o     R ) ) h.r.r.r.r.r.r.r.r.r.r.r.r.r.r.r.r.r.r.r.r.r.r.",
"r.r.r.r.r.r.r.r.r.r.r.r.r.r.r.r.$.;.4.n 0 0 4 1 1 4 0 0 p ) ) ) ) ) ) o     R ) ) p.l.l.k.k.k.z.r.r.r.r.r.r.r.r.r.r.r.r.r.r.r.r.",
"r.r.r.r.r.r.r.r.r.r.r.r.r.r.r.r.j 1 1 Q ) ) P 1 2 q ) ) ) ) ) ) ) ) ) o     R ) ) ) ) ) ) ) ) f.r.r.r.r.r.r.r.r.r.r.r.r.r.r.r.r.",
"r.r.r.r.r.r.r.r.r.r.r.r.r.r.r.r.j 1 1 Q ) ) P 1 1 q ) ( ) ) ) ) ) ) ) X     R ) ) ) ) ) ) ) ) f.r.r.r.r.r.r.r.r.r.r.r.r.r.r.r.r.",
"r.r.r.r.r.r.r.r.r.r.r.r.r.r.r.r.k 1 1 Q ) ) P 1 2 0 / / / ) ) ) ) ) ) + o X x ! ^ / ) ) ) ) ) a.x.x.q.r.r.r.r.r.r.r.r.r.r.r.r.r.",
"r.r.r.r.r.r.r.r.r.r.r.r.r.r.r.r.j 1 2 Q ) ) P 1 1 1 1 1 9 ) ) ) ) ) ) ) ) ) @     x ) ) ) ) ) ) ) ) s.r.r.r.r.r.r.r.r.r.r.r.r.r.",
"r.r.r.r.r.r.r.r.r.r.r.r.r.r.r.r.j 1 1 Q ) ) P 1 1 1 1 1 8 ) ) ) ) ) ) ) ) ) @     x ) ) ) ) ) ) ) ) s.r.r.r.r.r.r.r.r.r.r.r.r.r.",
"r.r.r.r.r.r.r.r.r.r.r.r.r.r.r.r.k 1 1 W ( / P 2 2 2 2 2 0 ) ) ) ) ) ) / / ( @     z / / ( / / ( ( _ a.r.r.r.r.r.r.r.r.r.r.r.r.r.",
"r.r.r.r.r.r.r.r.r.r.r.r.r.r.r.r.k 1 1 2 4 4 W / / / / / / ) ) ) ) ) ) + X X .     . X X X X X & q.q.x.r.r.r.r.r.r.r.r.r.r.r.r.r.",
"r.r.r.r.r.r.r.r.r.r.r.r.r.r.r.r.k 2 1 1 1 1 P ) ) ) ) ) ) ) ) ) ) ) ( o                       # r.r.r.r.r.r.r.r.r.r.r.r.r.r.r.r.",
"r.r.r.r.r.r.r.r.r.r.r.r.r.r.r.r.l 3 3 3 3 3 W ) ) ) ) ) ) ) ) ) ) ) ) O                   .   # r.r.r.r.r.r.r.r.r.r.r.r.r.r.r.r.",
"r.r.r.r.r.r.r.r.r.r.r.r.r.r.r.r.0.9.9.9.0.9.u.) ) ) ) ) ) ) ) ) ) ) ) ^ ^ ^ ^ ^ ^ ^ ! ! y.8.$.8.r.r.r.r.r.r.r.r.r.r.r.r.r.r.r.r.",
"r.r.r.r.r.r.r.r.r.r.r.r.r.r.r.r.r.r.r.r.r.t.p.) ) ) ) ) ) ) ) ) ) ) ) ) ) ) ) ) ) ) ) ) i.r.r.r.r.r.r.r.r.r.r.r.r.r.r.r.r.r.r.r.",
"r.r.r.r.r.r.r.r.r.r.r.r.r.r.r.r.r.r.r.r.r.r.p.) ) ) ) ) ) ) ) ) ) ) ) ) ) ) ) ) ) ) ) ) i.r.r.r.r.r.r.r.r.r.r.r.r.r.r.r.r.r.r.r.",
"r.r.r.r.r.r.r.r.r.r.r.r.r.r.r.r.r.r.r.-.Z Z u y y c .... .y y y y y y y y y y.k.k.k.k.k.q.r.r.r.r.r.r.r.r.r.r.r.r.r.r.r.r.r.r.r.",
"r.r.r.r.r.r.r.r.r.r.r.r.r.r.r.r.r.r.r.B , , , , , d O.{ ` , , , , , , < , < >.t.r.r.r.r.r.r.r.r.r.r.r.r.r.r.r.r.r.r.r.r.r.r.r.r.",
"r.r.r.r.r.r.r.r.r.r.r.r.r.r.r.r.r.r.r.B , , , , , d { { ` , , , , , , , , < >.r.r.r.r.r.r.r.r.r.r.r.r.r.r.r.r.r.r.r.r.r.r.r.r.r.",
"r.r.r.r.r.r.r.r.r.r.r.r.r.r.r.r.=.G B u , , , , , d o.o.` < , , , , , * = = v V B B G B B J B <.r.r.r.r.r.r.r.r.r.r.r.r.r.r.r.r.",
"r.r.r.r.r.r.r.r.r.r.r.r.r.r.r.r.Z , , , , , , , , d o.o.` < , , , , , ] o.o.h , , , , , , , , F r.r.r.r.r.r.r.r.r.r.r.r.r.r.r.r.",
"r.r.r.r.r.r.r.r.r.r.r.r.r.r.r.r.Z , , , < , , , , d o.o.` < , , , , , ] o.{ 7 < , , , , , , , F r.r.r.r.r.r.r.r.r.r.r.r.r.r.r.r.",
"r.r.r.r.r.r.r.r.r.r.r.r.r.,.-.-.u , , , , , , , , d o.o.} f f f f f f [ o.{ 7 < , , , , , , , C -.-.:.r.r.r.r.r.r.r.r.r.r.r.r.r.",
"r.r.r.r.r.r.r.r.r.r.r.r.t.t < , , , , , < < < , , d o.o.o.o.o.o.o.{ { { o.{ 7 < , , , , , , , , , , C r.r.r.r.r.r.r.r.r.r.r.r.r.",
"r.r.r.r.r.r.r.r.r.r.r.r.r.t < < , , , , < < < , , d o.o.o.o.o.o.o.o.o.{ o.o.h < , , , , , , , , , , C r.r.r.r.r.r.r.r.r.r.r.r.r.",
"r.r.r.r.r.r.r.r.r.r.r.r.r.K D D D S D i < < r 7 h g 2.2.' o.o.o.o.o.{ ' 2.2.f 7 7 > , < i D D D D D H r.r.r.r.r.r.r.r.r.r.r.r.r.",
"r.r.r.r.r.r.r.r.r.r.r.r.t.B.C.C.C.C.C.~ < < * { { L U U T o.o.o.o.o.{ Y U U 2.{ { h , < d.C.C.C.C.C.m.r.r.r.r.r.r.r.r.r.r.r.r.r.",
"r.r.r.r.r.r.r.r.r.r.r.r.t.N.C.C.C.C.C.~ , , * o.o.L U U T o.o.o.o.o.{ Y U U 2.o.o.h < < d.C.C.C.C.C.m.r.r.r.r.r.r.r.r.r.r.r.r.r.",
"r.r.r.r.r.r.r.r.r.r.r.r.t.B.C.C.C.C.C.d.S S | o.o.3.T T E o.o.o.o.o.{ I T T 1.o.o.N S S g.C.C.C.C.C.m.r.r.r.r.r.r.r.r.r.r.r.r.r.",
"r.r.r.r.r.r.r.r.r.r.r.r.t.B.C.C.C.C.C.C.C.C.6.o.o.o.o.o.o.o.o.o.o.o.o.o.o.o.o.o.o.n.C.C.C.C.C.C.C.C.m.r.r.r.r.r.r.r.r.r.r.r.r.r.",
"r.r.r.r.r.r.r.r.r.r.r.r.r.B.C.C.C.C.C.C.C.C.6.o.o.o.o.o.o.o.o.o.o.o.o.o.o.o.o.o.o.n.C.C.C.C.C.C.C.C.m.r.r.r.r.r.r.r.r.r.r.r.r.r.",
"r.r.r.r.r.r.r.r.r.r.r.r.t.B.C.C.C.C.C.V.B.B.6.{ o.o.o.o.o.o.o.o.o.o.o.o.o.o.o.o.o.n.B.B.V.C.C.C.C.C.M.r.r.r.r.r.r.r.r.r.r.r.r.r.",
"r.r.r.r.r.r.r.r.r.r.r.r.t.N.C.C.C.C.C.5.{ o.o.{ o.o.o.o.o.o.o.o.o.o.o.o.o.o.o.o.o.o.o.o.b.C.C.C.C.C.m.r.r.r.r.r.r.r.r.r.r.r.r.r.",
"r.r.r.r.r.r.r.r.r.r.r.r.r.N.C.C.C.C.C.5.o.o.o.o.o.o.o.o.o.o.o.o.o.o.o.o.o.o.o.o.o.o.o.o.b.C.C.C.C.C.m.r.r.r.r.r.r.r.r.r.r.r.r.r.",
"r.r.r.r.r.r.r.r.r.r.r.r.t.N.C.C.C.C.C.5.o.o.o.o.o.o.o.o.o.o.o.o.o.o.o.o.o.o.o.o.o.o.o.o.v.V.C.C.C.C.m.r.r.r.r.r.r.r.r.r.r.r.r.r.",
"r.r.r.r.r.r.r.r.r.r.r.r.r.c.c.c.c.c.c.@.o.o.o.o.o.o.o.o.+.w.w.w.w.e.e.O.o.o.o.o.o.o.o.o.7.t.c.6.c.c.c.r.r.r.r.r.r.r.r.r.r.r.r.r.",
"r.r.r.r.r.r.r.r.r.r.r.r.r.r.r.r.r.r.r.@.o.o.o.o.o.o.o.o.+.r.r.r.r.r.r.O.o.o.o.o.o.o.o.o.#.r.r.t.r.r.r.r.r.r.r.r.r.r.r.r.r.r.r.r.",
"r.r.r.r.r.r.r.r.r.r.r.r.r.r.r.r.r.r.r.@.o.o.o.o.{ { o.o.+.r.r.r.r.r.r.O.o.o.{ o.o.o.O.o.#.r.t.t.r.r.r.r.r.r.r.r.r.r.r.r.r.r.r.r.",
"r.r.r.r.r.r.r.r.r.r.r.r.r.r.r.r.M l l % $ $ $ $ $  .7.7.8.r.r.r.r.r.r.7.7.7.- $ $ $ $ $ % l l | r.r.r.r.r.r.r.r.r.r.r.r.r.r.r.r.",
"r.r.r.r.r.r.r.r.r.r.r.r.r.r.r.r.k 1 1 1 1 1 1 1 1 b r.r.r.r.r.r.r.r.r.r.r.r.l 1 2 1 1 1 1 1 1 b r.r.r.r.r.r.r.r.r.r.r.r.r.r.r.r.",
"r.r.r.r.r.r.r.r.r.r.r.r.r.r.r.r.j 1 1 1 1 1 1 1 1 b r.r.r.r.r.r.r.r.r.r.r.r.l 1 1 1 1 1 1 1 1 - r.r.r.r.r.r.r.r.r.r.r.r.r.r.r.r.",
"r.r.r.r.r.r.r.r.r.r.r.r.r.%.m m 6 1 1 1 1 1 1 1 1 m r.r.r.r.r.r.r.r.r.r.r.r.l 1 1 1 1 1 1 1 1 6 M M &.r.r.r.r.r.r.r.r.r.r.r.r.r.",
"r.r.r.r.r.r.r.r.r.r.r.r.r.5 1 1 1 1 1 1 1 1 1 1 1 b r.r.r.r.r.r.r.r.r.r.r.r.l 1 1 1 1 1 1 1 1 1 1 1 k r.r.r.r.r.r.r.r.r.r.r.r.r.",
"r.r.r.r.r.r.r.r.r.r.r.r.r.5 1 1 1 1 1 1 1 1 1 1 1 b r.r.r.r.r.r.r.r.r.r.r.r.l 1 4 2 1 2 1 1 1 1 1 4 j r.r.r.r.r.r.r.r.r.r.r.r.r.",
"r.r.r.r.r.r.r.r.r.r.r.r.r.*.&.&.&.&.&.&.&.&.&.&.&.X.r.r.r.r.r.r.r.r.r.r.r.r.X.&. .%.%.&.&.&.y.| 4.| ;.r.r.r.r.r.r.r.r.r.r.r.r.r.",
"r.r.r.r.r.r.r.r.r.r.r.r.r.r.r.r.r.r.r.r.r.r.r.r.r.r.r.r.r.r.r.r.r.r.r.r.r.r.r.r.r.r.r.r.t.r.r.r.9.e.r.r.r.r.r.r.r.r.r.r.r.r.r.r.",
"r.r.r.r.r.r.r.r.r.r.r.r.r.r.r.r.r.r.r.r.r.r.r.r.r.r.r.r.r.r.r.r.r.r.r.r.r.r.r.r.r.r.r.r.r.r.r.r.r.t.r.r.r.r.r.r.r.r.r.r.r.r.r.r.",
"r.r.r.r.r.r.r.r.r.r.r.r.r.r.r.r.r.r.r.r.r.r.r.r.r.r.r.r.r.r.r.r.r.r.r.r.r.r.r.r.r.r.r.r.r.r.r.r.r.r.r.r.r.r.r.r.r.r.r.r.r.r.r.r.",
"r.r.r.r.r.r.r.r.r.r.r.r.r.r.r.r.r.r.r.r.r.r.r.r.r.r.r.r.r.r.r.r.r.r.r.r.r.r.r.r.r.r.r.r.r.r.r.r.r.r.r.r.r.r.r.r.r.r.r.r.r.r.r.r.",
"r.r.r.r.r.r.r.r.r.r.r.r.r.r.r.r.r.r.r.r.r.r.r.r.r.r.r.r.r.r.r.r.r.r.r.r.r.r.r.r.r.r.r.r.r.r.r.r.r.r.r.r.r.r.r.r.r.r.r.r.r.r.r.r.",
"r.r.r.r.r.r.r.r.r.r.r.r.r.r.r.r.r.r.r.r.r.r.r.r.r.r.r.r.r.r.r.r.r.r.r.r.r.r.r.r.r.r.r.r.r.r.r.r.r.r.r.r.r.r.r.r.r.r.r.r.r.r.r.r."
};
