/* XPM */
static char *_aa66e8952684c6ac27598081c01a90bNIo1QE4XmabBZ4AY[] = {
/* columns rows colors chars-per-pixel */
"64 64 139 2 ",
"   c #251B11",
".  c #261B11",
"X  c #271C11",
"o  c #281C11",
"O  c #2B1C12",
"+  c #2A1D12",
"@  c #2D1D12",
"#  c #3E2314",
"$  c #3D2E22",
"%  c #3F362C",
"&  c #412314",
"*  c #452615",
"=  c #482615",
"-  c #482715",
";  c #4B2716",
":  c #4D2816",
">  c #4E2A17",
",  c #512B17",
"<  c #532C17",
"1  c #502B18",
"2  c #552D18",
"3  c #562F1A",
"4  c #592F1A",
"5  c #592F1B",
"6  c #5C301B",
"7  c #5E321C",
"8  c #5F321C",
"9  c #62331C",
"0  c #6F391F",
"q  c #513524",
"w  c #593926",
"e  c #533D2F",
"r  c #563E2F",
"t  c #583E2F",
"y  c #5A3E2F",
"u  c #5A3F31",
"i  c #6F3A20",
"p  c #703920",
"a  c #703A20",
"s  c #733C22",
"d  c #753D21",
"f  c #753D22",
"g  c #773E22",
"h  c #783D22",
"j  c #783E22",
"k  c #6D412B",
"l  c #7D4124",
"z  c #624130",
"x  c #614231",
"c  c #654432",
"v  c #664432",
"b  c #634B3D",
"n  c #744A35",
"m  c #746C63",
"M  c #766D63",
"N  c #786E63",
"B  c #824325",
"V  c #864627",
"C  c #8B4927",
"Z  c #884728",
"A  c #8A4928",
"S  c #8D4A29",
"D  c #8F4C2B",
"F  c #924B29",
"G  c #924B2A",
"H  c #934C2A",
"J  c #944E2C",
"K  c #95502D",
"L  c #96532E",
"P  c #98512D",
"I  c #9D532E",
"U  c #AF5B31",
"Y  c #AF5B32",
"T  c #B05B32",
"R  c #B15C32",
"E  c #B55F34",
"W  c #B75F34",
"Q  c #A96138",
"!  c #B86034",
"~  c #BA6034",
"^  c #BA673B",
"/  c #B9693D",
"(  c #C6693A",
")  c #C36B3D",
"_  c #C46B3D",
"`  c #C36C3D",
"'  c #C56E3F",
"]  c #C96A3A",
"[  c #CB6B3A",
"{  c #CE6B3A",
"}  c #D06C3B",
"|  c #AB6947",
" . c #B06C48",
".. c #BA714E",
"X. c #867265",
"o. c #8D7466",
"O. c #C76F40",
"+. c #C77040",
"@. c #C17146",
"#. c #C67448",
"$. c #DE7743",
"%. c #DF7743",
"&. c #D67E4E",
"*. c #C17850",
"=. c #C37C53",
"-. c #CA7D53",
";. c #E27741",
":. c #E37741",
">. c #E17743",
",. c #E17843",
"<. c #E47943",
"1. c #E57943",
"2. c #DB804F",
"3. c #D38054",
"4. c #D88558",
"5. c #E2854E",
"6. c #E4864F",
"7. c #E7864F",
"8. c #FD9457",
"9. c #D68A60",
"0. c #CD916C",
"q. c #ED9B6F",
"w. c #F19969",
"e. c #E09A74",
"r. c #E8A075",
"t. c #EDA279",
"y. c #EBA87F",
"u. c #FCAC7C",
"i. c #FCB285",
"p. c #F0B18A",
"a. c #DBD1C5",
"s. c #DED9D0",
"d. c #E3D5C7",
"f. c #E2DAD0",
"g. c #E3DAD0",
"h. c #E9DED3",
"j. c #EFE1D4",
"k. c #F8EEE2",
"l. c #F8F4EB",
/* pixels */
"f.-.8.8.8.8.8.8.8.8.8.8.8.8.8.8.8.8.8.8.8.8.8.8.8.8.8.8.8.u.k.l.l.j.=.8.8.8.8.8.8.8.8.8.8.8.8.8.8.8.8.8.8.8.8.8.8.8.8.8.8.8.u.l.",
"c J ^ ^ ^ ^ ^ ^ ^ ^ ^ ^ ^ ^ ^ ^ ^ ^ ^ ^ ^ ^ ^ ^ ^ ^ ^ ^ ^ 3.e.o.o.c H / ^ ^ ^ ^ ^ ^ ^ ^ ^ ^ ^ ^ ^ ^ ^ ^ ^ ^ ^ ^ ^ ^ ^ ^ ^ ^ 3.q.",
"< j H H H H H H G G H H H H G H H H H H H H H H H H H H H ~ ( + @ = a H H H H H H H H H H H H H H H H H H H H H H H H H H H T ,.",
"< j H H H H H H G G H H H H H H H H H H H H H H H H H H H ! ] . . * a H H H H H H H H H H H H H H H H H H H H H H H H H H H T ,.",
"< j H H H H H H H H H H H H H H H H H H H H H H H H H H H ~ ] X o = a H H H H H H H H H H H H H H H H H H H H H H H H H H H T 1.",
"< j H H H H H H H H H H H H H H H H H H H H H H H H H H H ~ ( . . = a H H H H H H H H H H H H H H H H H H H H H H H H H H H T 1.",
", j H H H H H H H H H H H H H H H H H H H H H H H H H H H ~ ] . . * a G H H H H H H H H H H H H H H H H H H H H H H H H H H T 1.",
"< j H H H H H H H H H H H H H H H H H H H H H H H H H H H ~ ] X X * a H H H H H H H H H H H H H H H H H H H H H H H H H H H T ,.",
"2 j H H H H H H H H H H H H H H H H H H H H H H H H H H H ~ (   X * a G H H H H H H H H H H H H H H H H H H H H H H H H H H T 1.",
"2 j H H H H H H H H H H H H H H H H H H H H H H H H H H H ! ] . X * a H H H H H H H H H H H H H H H H H H H H H H H H H H H T ,.",
", j H H H H H H H H H H H H H H H H H H H H H H H H H H H ~ ] X + - a H H H H H H H H H H H H H H H H H H H H H H H H H H H ! ,.",
"2 j H H H H H H H H H H H H H H H H H H H H H H H H H H H ~ (   X = a H H H H H H H H H H H H H H H H H H H H H H H H H H H T ;.",
", j G G H H H H H H H H H H H H H H H H H H H H H H H H H ~ { . X * a H H H H H H H H H H H H H H H H H H H H H H H H H H H T 1.",
"2 j G G H H H H H H H H H H H H H H H H H H H H H H H H H ~ ] . X * a H H H H H H H H H H H H H H H H H H H H H H H H H H H U :.",
"2 j H H H H H H H H H H H H H H H H H H H H H H H H H H H ~ (   X * 0 H H H H H H H H H H H H H H H H H H H H H H H H H F F T <.",
"2 j H H H H H H H H H H H H H H H H H H H H H H H H H H H ! ] . . * a H H H H H H H H H H H H H H H H H H H H H H H H H H K T <.",
"2 j G H H H H H H H H H H H H H H H H H H H H H H H H H H ~ ] X o = p H H H H H H H H H H H H H H H H H H H H H H H H H H H T 1.",
", j G G H H H H H H H H H H H H H H H H H H H H H H H H H ~ ( . . = p H H H H G H H H H H H H H H H H H H H H H H H H H H H T 1.",
"r 4 0 0 0 0 0 0 0 0 0 0 0 0 0 0 0 0 0 0 0 0 0 0 0 0 0 0 0 C A . . & 4 a 0 a 0 a a 0 a 0 0 a 0 0 0 0 0 0 a p i i p p a a a a B  .",
"h.b = = = = = ; = = * * = = = = = = = = = = = = = * * * = 1 + . . X # = = = * * = = = = = = * * - - - - = = * * = = = = = * x d.",
"l.m . . o . . . X . .                   . . .               . X X               o . .           X X X               . . o . X.l.",
"l.m . X . . . . X X           X       X . .                 . . . .             . .     X X X   X X X X     X X     . . . o X.l.",
"j.-.8.8.8.8.8.8.8.8.8.8.8.p.% X   X Q 8.8.8.8.8.8.8.8.8.8.8.8.8.8.8.8.8.8.8.8.8.8.8.8.8.8.r.% .   @ / 8.8.8.8.8.8.8.8.8.8.8.i.l.",
"k K ' ' ) ) ` ) ' ' ' ` ` 3.#.X   3 K ` O.O.O.O.O.O.O.+.+.+.' O.O.O.O.O.O.O.O.O.O.O.O.O.[ 2...X   6 L ' ' ' +.+.O.O.O.O.O.O.9.w.",
"< j H H H H H H H H H H H ! { X   - a H H H H H H H D H H D H H H H H D H H H D H H H H H ~ ( X X - 0 H H D H H G H H H H H U ,.",
"2 j H H H H H H H H H H H ! { X   * a H H H H H H H H H H H H H H H H H H H H H H H H H H ~ ( . X * 0 H H H H H H H H H H H U 1.",
"< j H H H H H H H H H H H T { + + - a G H H H H H H H H H H H H H H H H H H H H H H H H H ~ ( X X * 0 H H H H H H H H H H H U ,.",
"2 g H H H H H H H H H H G ! { X X = a H H H H H H H H H H H H H H H H H H H H H H H H H H ~ ] X X = 0 H H H H H H H H H H H U ,.",
", g H H H H H H H H H H H ! { + . * a H H H H H H H H H H H H H H H H H H H H H H H H H H ~ (   X : 0 H H H H H H H H H H H T ,.",
", g H G G H H H H H H H H T [ X X * a H H H H H H H H H H H H H H H H H H H H H H H H H H ~ ]   X * 0 H H H H H H H H H H H T ,.",
"2 j G G H H H H H H H H H ! [ X X * i H H H H H H H H H H H H H H H H H H H H H H H H H H ~ ( . + = 0 H H H H H H H H H H H T ;.",
", j G G H H G H G G H H H ! [ + X * i G H H H H H H H H H H H H H H H H H H H H H H H H H ~ ( . X * 0 H H H H H H H H H H H T 1.",
", g H H H H H F H H H H D ! ] + X - 0 H H H H H H H H H H H H H H H H H H H H H H H H H H ~ ] X . = 0 H H H H H H H H H H H U ,.",
"< g F H H F D H H H H H H ! { X X - 0 H H H H H H H H H H H H H H H H H H H H H H H H H H ~ (     * a H H H H H H H H H H H T :.",
", g H H H F F H H H H H H T [ + X * 0 H H H H H H H H H H H H H H H H H H H H H H H H H H ~ (   + : 0 H H H H H H H H H H H T :.",
", j F F F F F H H C H H H ! [ X X * 0 H H H A H H H H H H H H H H H H H H H H H H H H H H ~ ( X . = 0 H H H H H H H H H H H U :.",
", j G G D F F H H H H S H ! { X X * 0 H H H H H H H H H H H H H H H H H H H H H H H H H H ~ (   X * 0 H H H H H H H H H H H U <.",
", j F G H F F F H H H H H T ( X X * 0 H D H H H H H H H H H H H H H H H H H H H H H H H H ~ ( X + = 0 H H H H H H H H H H H Y >.",
"2 j F F H H C H H H C H H ! ] X X - 0 H H H H H H H H H H H H H H H H H H H H H H H H H H ~ ( X X : 0 H H H H H H H H H G G Y :.",
", j F F H H H H H H H H H ! { X X * 0 H H H H H H H H D H H H H H H H H H H H H H H H H H ~ ( . X * 0 H H H H H H H H H J G Y :.",
"y 9 0 0 0 0 0 0 0 0 0 0 0 S S X   # 6 0 0 a 0 0 0 0 0 0 0 0 0 0 i 0 0 0 0 0 0 0 0 0 0 0 0 V V X . # 4 0 0 0 a a i i a a 0 0 l | ",
"s.w : : : : : : : - : : : * +   X X * - - - : : : * : : : : - - * : : : - - : : : : : : * * X X   + * : : : ; - : : : - ; : x g.",
"l.N . . . . . .     X X o X .             . + X .   X X + X       . X .       X     + X .   X +     . . . . X . X .   . . + X.l.",
"l.N o o . X . o X X X + o X X   X X + X X X X + X X X + X X       . X X X X X + +   + X X X X + X   + X X X X @ . X   X . @ X.l.",
"d.*.6.5.5.6.6.6.5.5.6.6.6.5.5.5.6.6.6.6.5.6.6.6.5.5.5.5.5.0.$ .   + Q 5.5.5.2.6.5.5.5.5.6.6.5.6.5.5.6.6.5.6.6.5.5.5.6.5.6.5.p.k.",
"n I ( ' ' ' ' ' ' ' ' ' ' ' ' ` +.` ] ' ' ` ' ' ' ' ' ' ' 4...X X 7 H ' ` O.O.` ' ' ) ` ' O.' ' O.O.' ' ) O.+.O.O.O.O.O.' O.&.t.",
"< g F F S F G F C H F H H H F F D H S F G H S H F F F H H ~ ( X X * 0 H H D H D H H H H H H H H H G G G H H H D H H H H H H T :.",
"< g F F F F F F F F F H H S F G H G F F G S G G F F S H H ~ (   . * i G H H H H H H H H H H G H H G H G D H H H H H H H H G U $.",
"> g H G F F H F F H F H F H H F C H H F F C H F F H F F H ~ ] X . - 0 F H H H F F F F H H D H F G H H H F F H H D F F H H H U ,.",
"< g F G H S S F F F F S F C C F F F F F H H H C C H F F C ! ] X . - 0 F C H F F C F F H F H H H G H H H D H H H H H D H H H U ;.",
", g F C G H F F H F H F H H H H H F F H F H H H F F C H H ! (   . * 0 F H H H F H H F H F H H H H G H H H H D H F H H H H H U $.",
", g G G F S F H S F F F F C F F H C F H F C F F C F F H H ~ ]   X - 0 F H F F H G H F H C H H H H H H A H H F F F H H H D H U :.",
", g G F F F F F H H F F F H F F H H F C C F H H H H F C H ~ ] X . - 0 F F F F H F H H F F F F H G S F F F F H F D H H F G H U $.",
", g C F F F F H F C F F C H H C C F F F H F F C F F F F H ~ (   . * 0 C G H H C F C H H F F F C F F F S H H H F H H F H H H T $.",
", j F F F G G F F F H F F H H F H F F H H F F F C F F H F ~ [   X - 0 H C H H H F F F C F F F F F F F H F F F F H S F H H H U } ",
"2 j F F F C F F C H S F F H C F H C F H C F F F H H C H C ~ [ X X - 0 H F F H C F F H H H H C F F H F F F F F F F F F H H H T ,.",
"< 0 F F S G F F H H C H H C H H F S F F S F F S H H F F H ~ (   . * 0 F F H F F H F F H F H H H F F H C C F F F H F F F F F U %.",
"< l F F F F F F F F F F F F F F F F F F F F F F F C F H G ~ ] . X * 0 F C H H C F S C H C F C F F F H F H F F H F S F K S F ~ } ",
"< 0 F S F F F F F H H F H C C H S F F S F F F F F C C H F ! ] X X * 0 F F H H F F F F F H F C F F C H F H G C H F F F S H S ! { ",
"< g F F F S G F F C F F H F F H F F H G S F F S H H F F F E (   . * 0 H F H C F H G C G H F H H H H H C F F F F F F F F H H ~ 1.",
"< g H H F F F S F G G G F H H F G G G G C F G S F H H F G ! ( . X = 0 S C F F C G G G G C G H S F F C H G S H F H H H H F D U { ",
"< g S S G S F F F S G G F C C F H H S H H G G G F C C F H ~ ( X X = 0 H H H H H G G G S H G G H G F F H G H G F C D H H F H ! 1.",
"u 6 g g j j g g d g j s g g g g j 0 j j g g g g j j g g g H | m m r 6 j j j g 0 g g g j g g j g g j g 0 g g g g g g l a 0 l Z ..",
"f.e - : : ; ; - - , : - - < : - - ; - - ; - : - : : : * = z h.l.l.a.q - : * < : = = = : = * : : = * < - : - : : : * : : - - r f."
};
